<svg width="185" height="188" fill="none" xmlns="http://www.w3.org/2000/svg"><path d="M94.292 27.396c6.316-2.114 11.42-.339 14.728 5.945 2.936-2.495 5.986-5.235 9.888-3.424 4.389 2.037 8.988 2.984 13.7 3.687 3.754.852 3.727 4.105 4.17 6.981 3.153.87 6.889 1.12 9.816 2.479 3.901 1.81 2.575 5.944 2.435 9.44.601-.017 1.088.21 1.933.305 7.752 1.817 9.909 9.941 4.784 15.873-.584.62-1.281 1.483-2.109 1.99-3.049 2.74-3.015 3.943.66 6.242 5.268 3.336 8.105 9.995 6.831 15.934-.227.488.034 1.203.278 1.316 3.091 2.919 2.105 6.32 1.477 9.59-.629 3.27-2.964 5.747-6.049 7.284-.47.375-.827.506-1.542.768.79 6.6-1.205 8.345-7.827 12.395-4.496 2.662-11.256 1.9-14.834-1.245-1.525 1.37-3.407 2.87-4.802 4.598-2.205 2.835-6.282 3.317-9.713 1.131-.488-.226-.879-1.299-1.48-1.281-5.75.894-3.84-3.86-4.771-6.963-5.018 1.233-9.294-1.049-13.796-2.842-3.528-1.34-5.801-.911-7.632 2.394-2.85 5.504-4.857 11.103-7.707 16.606-2.738 5.26-3.185 10.692-3.5 16.481-.317 5.79-2.539 8.024-8.567 7.6-8.318-.596-15.146-3.765-21.198-9.245l-.244-.113c-1.236-1.167-3.822-3.258-3.595-3.747 1.133-2.442 3.111-4.788 5.107-6.534 1.638-1.614 4.513-2.06 5.664-3.901 1.96-2.948 3.19-6.236 3.932-9.75 1.258-6.54 1.914-13.062 2.944-19.114-2.064-.661-3.527-1.34-5.104-1.775-1.088-.209-2.177-.417-3.249-.024-5.959 1.983-9.843.774-13.247-4.665-.244-.113-.6.018-.845-.095-5.845 1.739-9.016.268-11.574-5.075-.261-.715-.653-1.787-.313-2.52 2.058-3.794.152-7.35-.796-11.055-.653-1.787.724-4.116 1.03-6.051.21-1.09.42-2.18.158-2.895-1.418-3.33-.24-8.422 2.697-10.918 2.352-1.876 4.461-3.866 6.196-6.325 3.355-4.676 7.79-5.29 12.745-4.473-2.27-7.88-.456-11.788 6.801-14.652-.092-7.464 6.268-12.229 13.533-10.638.844.096 2.143-.786 2.727-1.405 4.88-6.046 11.1-7.314 17.004-2.793 1.35.923 2.003 2.71 3.256 4.48zm40.746 87.179c-.618-.584-.862-.697-1.105-.81l-2.247-2.823c1.202-.036 2.648.041 3.72-.352 1.429-.524 3.345-.821 3.799-1.798 1.037-1.597 1.099-3.645 1.762-5.712.113-.245-.732-.34-.862-.697-.862-.697-1.724-1.394-2.83-2.204.941-.75 1.882-1.501 2.953-1.894 2.971-1.293 3.26-3.83 3.548-6.367.289-2.538-1.061-3.461-3.369-4.236-2.665-.643-2.83-2.204-.59-3.835.47-.376 1.071-.393 1.298-.882.68-1.465 2.074-3.192 1.91-4.753-.148-.959-2.343-1.978-3.693-2.9-.243-.114-.958.148-1.088-.21-.732-.339-1.707-.792-1.725-1.393-.017-.602.681-1.466 1.151-1.84.471-.376 1.298-.882 2.013-1.144 3.798-1.799 3.877-3.246 1.257-6.54-1.497-1.883-3.057-1.716-4.843-1.06-3.798 1.798-3.798 1.798-5.234-2.133-.653-1.787-1.793-3.8-3.143-4.724-2.943-1.96-6.872-.518-9.321 2.203-1.865 2.103-3.991 3.49-6.23 5.123-.471.375-1.316.28-1.804.053-.374-.47-.522-1.43-.539-2.03.759-2.913 1.762-5.713 2.391-8.983.968-4.003-1.408-7.183-5.276-7.791-4.355-.834-4.859-1.662-3.42-6.04.323-1.334.628-3.27-.007-4.455-1.549-3.687-5.303-4.54-8.614-2.514-.828.506-2.257 1.03-3.101.935-.488-.227-1.254-1.77-1.158-2.615.368-3.985-2.541-4.742-5.337-5.742-3.283-1.228-6.01.178-7.501 2.751-.794 1.71-1.082 4.247-2.154 4.64-1.428.524-3.397-.983-5.217-1.531-3.153-.87-5.505 1.006-7.614 2.996-1.752 1.858-.742 3.514.625 5.039.374.47.408 1.673.068 2.406-.47.375-1.542.768-2.273.429-2.308-.775-3.72.351-5.001 1.834-3.033 3.342-2.817 6.707-.91 10.263 1.531 3.086.38 4.926-3.112 4.789-2.291-.173-4.713-.703-7.003-.876-1.09-.209-2.875.447-3.102.935-.367 3.985-3.582 5.164-6.048 7.284-2.24 1.632-3.73 4.205-2.346 6.332 2.002 2.71.477 4.08-.787 6.165a6.572 6.572 0 00-1.36 2.93c.148.959.556 2.633 1.288 2.972 4.276 2.282 4.276 2.282 2.105 6.32-.227.489-.81 1.108-.68 1.465.783 2.145 1.34 4.777 2.837 6.66 1.741 1.995 3.119-.334 4.644-1.704 1.411-1.125 3.328-1.423 4.87-2.191.165 1.56.33 3.12.608 4.437a24.936 24.936 0 001.827 5.004c1.9-.9 3.929-1.442 5.584-2.454 1.185-.638 1.865-2.103 2.92-3.097.47-.376 1.185-.638 1.9-.9.26.715.765 1.543.669 2.389.034 1.203-.175 2.293-.141 3.496 3.067-2.138 4.314-4.824 1.955-7.403-3.109-3.52-6.557-6.309-9.892-9.34-1.106-.81-2.456-1.734-4.338-.233-.584.62-2.778-.4-3.884-1.21-.488-.226-.67-2.388-.67-2.388 2.126-1.388 2.755-4.658 6.248-4.52 2.047.06 3.458-1.067 1.586-3.42-1.253-1.768-.556-2.632 1.378-2.328 1.69.19 3.38.381 5.557.798l1.597-7.272c.244.113.601-.018.845.095.278 1.316.313 2.52.704 3.592.278 1.316.8 2.745 1.078 4.062 1.168-1.239 2.336-2.478 3.373-4.074l.567-1.221c.567-1.221 1.264-2.085 2.075-3.193-.375-.47-1.237-1.167-2.343-1.977.941-.75 1.638-1.614 2.58-2.365.862.697 1.367 1.525 2.228 2.222 4.644-1.703 5.62-1.25 5.025 3.223 3.153.87 3.895-2.645 6.526-3.205-.436 1.579-1.003 2.8-1.44 4.378-.645 2.669-1.404 5.581-1.449 8.232.017.602 1.985 2.109 2.456 1.733 2.858-1.048 5.454-2.81 8.538-4.347-1.123-1.412-1.645-2.842-2.75-3.652-2.1-1.864-.948-3.705.202-5.545.227-.489 1.185-.638 1.786-.655.244.113.862.697.88 1.298.26.715-.08 1.448-.063 2.05 3.8-1.8 5.393-.763 5.643 3.806 5.977-1.382 5.059 4.425 7.062 7.136.096-.846-.035-1.204-.165-1.561-.295-1.918.124-4.098 2.528-4.17 2.16-.184 2.098 1.865 2.263 3.426.313 2.52 1.226 5.021-1.728 6.915-.357.131-.34.733-.209 1.09.539 2.031.721 4.193 1.391 6.582 1.071-.393 1.786-.655 2.744-.804.601-.018 1.333.322 1.82.548-1.229 3.288.251 4.568 3.273 5.08 0 0 .244.114.131.358.993 1.054 1.295 7.428.728 8.649-.34.732-.924 1.352-1.508 1.971 1.089.209 1.934.304 3.023.513l1.463.679c-.941.75-1.769 1.256-2.109 1.989-.454.977-.533 2.424.086 3.008 2.864 3.407 2.864 3.407.188 6.618l-.566 1.221c1.123 1.411 2.115 2.466 3.238 3.877.358-.131.959-.149 1.429-.524 2.24-1.632 4.592-3.508 7.762-2.036.732.339 2.161-.185 2.858-1.049.567-1.221 1.831-3.305 3.338-5.277zm-19.494-.144c-2.665-.643-4.973-1.417-7.02-1.477-3.737-.25-6.89-1.12-9.607-3.568-3.71-3.503-3.42-6.04 1.206-8.345 2.37-1.275 4.983-2.436 7.467-3.955-1.209-4.42-3.902-1.81-6.176-1.382-4.434.613-8.85 1.828-13.171 2.197-3.964.238-5.348-1.888-4.493-5.647.952-4.604 3.366-8.529 6.887-11.644l5.646-4.503c-.13-.357-.017-.601-.147-.959-1.56.167-3.25-.024-4.434.614-2.727 1.405-5.324 3.168-8.051 4.574-3.084 1.536-5.636.649-6.454-2.699-.67-2.388-.267-5.17-.466-7.934-2.552-.887-2.728 1.406-3.277 3.228-.838 4.36-1.546 9.078-2.384 13.438-.096.846-1.037 1.596-1.49 2.573-.976-.453-2.195-1.019-2.7-1.847-2.394-3.782-4.544-7.451-6.694-11.12l-4.678.5-3.174 6.838c.976.452 2.082 1.262 3.057 1.715 5.643 3.806 10.702 8.232 11.51 15.433.216 3.366-.17 6.749-.31 10.245-.605 8.327-1.697 16.428-4.836 24.469-1.117 3.044-2.851 5.503-5.822 6.796-1.185.637-2.37 1.274-3.799 1.798.732.34 1.463.68 1.934.304 2.857-1.048 5.41-.16 7.978 1.329 2.57 1.489 5.382 3.092 8.291 3.848 2.91.757 5.234 2.133 6.522 5.105.21-1.09.306-1.936.402-2.782.725-4.115 1.206-8.344 2.175-12.347.419-2.18 1.683-4.265 2.59-6.218 1.456-3.777 2.912-7.553 4.612-11.216 3.627-7.814 7.897-9.988 15.83-6.009 1.707.792 3.658 1.698 5.461 1.644 1.951.905 5.087 1.174 7.615-2.996zm29.521-40.615c1.071-.393 2.387-.673 3.328-1.423 1.411-1.126 2.449-2.722 3.486-4.318 1.151-1.84 2.658-3.812 3.191-6.236.742-3.515-.756-5.397-4.135-5.778-1.69-.191-3.607.107-6.011.178l-.494-4.682c-.66-6.242-3.716-7.958-8.927-5.033-1.542.768-2.256 1.03-2.795-1.001-.409-1.674-.722-4.193-1.827-5.003-2.831-2.204-5.791-4.766-10.531-2.217 1.082-4.246-1.566-4.288-3.857-4.461-2.291-.173-4.922.387-5.681 3.3-.323 1.334-.044 2.65.364 4.324-.601.018-1.803.053-3.249-.024 2.926 1.358 6.55 1.852 7.934 3.979 1.384 2.127.886 5.754 1.102 9.12 3.147-3.586 7.014-2.979 10.768-2.127 1.576.435 3.527 1.34 4.406 2.64 1.872 2.352 3.256 4.478 6.749 4.616 1.202-.036 2.308.774 3.414 1.584 3.579 3.145 3.943 7.47 2.765 12.562zm-9.951 47.621c5.069.572 8.772-.381 12.344-1.691 3.929-1.441 3.912-2.043 1.648-5.468-1.253-1.769-.25-4.569 1.763-5.712 1.899-.899 3.912-2.043 5.55-3.657 3.52-3.115 3.373-4.074.622-7.725-1.384-2.127-4.101-4.575-.32-6.975.715-.262.89-2.556.498-3.628-1.044-2.859-2.802-5.456-6.426-5.95-3.754-.852-4.399 1.816-5.663 3.9 4.31 3.485 4.726 9.614.508 13.593-.584.62-1.508 1.972-1.134 2.442 1.288 2.973-.089 5.301-1.353 7.386-2.397 4.527-4.925 8.696-8.037 13.485zM85.735 94.363c6.663 1.609 12.135-.601 17.85-2.697-3.448-2.788-1.618-6.094-1.102-9.12-1.106-.81-1.968-1.507-3.074-2.317-1.35-.923-2.683-1.245-4.451.012-4.235 3.377-7.591 8.053-9.222 14.122zm-35.284 53.671c6.46 7.154 14.133 10.418 23.262 9.907-.704-3.592-2.915-5.212-6.426-5.951a14.183 14.183 0 01-6.096-2.83c-3.335-3.032-6.697-2.811-10.74-1.126zm48.703-42.991c3.012 4.367 6.766 5.218 11.087 4.849.01-3.853.021-7.707.275-11.448-3.555 1.912-7.336 4.312-11.362 6.599zM67.525 84.427c.358-.131.602-.018.959-.149.594-4.473 1.432-8.833 2.026-13.306l-1.219-.566c-1.865 2.102-3.843 4.45-5.708 6.552 1.401 2.728 2.672 5.098 3.942 7.469z" fill="#020202" opacity=".1"/></svg>