<?xml version="1.0" encoding="utf-8"?><svg viewBox="0 0 100 100" xmlns="http://www.w3.org/2000/svg" xmlns:xlink="http://www.w3.org/1999/xlink"><style>:root>svg{display:none}:root>svg:target{display:block}</style><svg fill="none" viewBox="0 0 35 35" id="clock" xmlns="http://www.w3.org/2000/svg"><path d="M30.698 29.05A17.382 17.382 0 0035 18.665h-3.107v-2.328H35a17.386 17.386 0 00-4.303-10.388l-2.068 2.07-1.647-1.647 2.069-2.069A17.381 17.381 0 0018.664 0v2.925h-2.328V0A17.38 17.38 0 005.949 4.303L8.146 6.5 6.5 8.146 4.302 5.95A17.385 17.385 0 000 16.336h3.107v2.328H0c.251 3.86 1.75 7.48 4.302 10.387L6.5 26.854 8.146 28.5 5.95 30.698A17.387 17.387 0 0016.336 35v-3.107h2.328V35c3.86-.252 7.48-1.75 10.387-4.303L26.855 28.5l1.647-1.646 2.197 2.197zm-5.805-2.69l-8.52-8.37-.037-9.023 2.328-.01.033 8.053 7.827 7.689-1.631 1.66z" fill="#fff"/></svg><svg fill="none" viewBox="0 0 100 100" id="design" xmlns="http://www.w3.org/2000/svg"><path d="M36.525 5.86a1.465 1.465 0 100 2.93 1.465 1.465 0 000-2.93zm-11.718 0a1.465 1.465 0 100 2.93 1.465 1.465 0 000-2.93zm67.869 2.546H89.96c2.317-3.835 2.76-6.284 1.403-7.641-1.504-1.504-4.349-.797-8.938 2.222A3.813 3.813 0 0078.709 0H21.291a3.813 3.813 0 00-3.809 3.809v4.597H7.324C3.286 8.406 0 11.692 0 15.73v55.16c0 4.04 3.286 7.325 7.324 7.325H41.58l-1.116 8.292h-1.632a3.036 3.036 0 00-2.917 2.218l-2.063 7.439c-.255.919-.07 1.882.507 2.64a3.004 3.004 0 002.41 1.196h26.464c.954 0 1.833-.436 2.41-1.195.577-.76.762-1.722.507-2.641l-2.063-7.439a3.036 3.036 0 00-2.917-2.218h-1.632l-1.116-8.292h34.255c4.038 0 7.324-3.286 7.324-7.324V15.73c0-4.04-3.285-7.325-7.324-7.325zM82.96 6.165c3.613-2.524 5.53-3.166 6.238-3.234-.069.708-.71 2.624-3.234 6.238-2.527 3.617-6.201 7.892-10.347 12.037-1.47 1.47-2.95 2.873-4.408 4.186a7.426 7.426 0 00-2.119-3.221 7.429 7.429 0 00-2.249-1.367 116.46 116.46 0 014.08-4.291c4.146-4.147 8.421-7.822 12.039-10.348zm.406 11.03h7.845v49.301h-8.693V18.162c.287-.324.57-.646.848-.967zM53.28 35.544c-.008-.944-.015-1.625.433-2.423 1.033-1.846 3.708-2.94 5.841-2.356.45.124 1.22.755 1.32 3.6.108 3.058-1.388 6.717-5.07 8.137-2.234.861-4.365.422-5.855-.165 1.081-.756 1.918-1.673 2.495-2.738.859-1.58.846-2.952.836-4.055zm7.59-7.41a75.524 75.524 0 013.825-4.88c.67.098 1.615.371 2.454 1.113 1.176 1.038 1.483 2.405 1.557 3.208-1.844 1.555-3.617 2.929-5.247 4.059-.445-1.778-1.311-2.95-2.59-3.5zM20.411 14.648h34.432a1.465 1.465 0 100-2.93H20.412v-7.91a.88.88 0 01.879-.878h57.418c1.04-.013.908 1.343.879 2.062-2.495 1.871-5.196 4.163-7.928 6.727h-9.98a1.465 1.465 0 100 2.93h6.963c-.969.973-1.914 1.955-2.825 2.935-.09.011-31.324-.006-31.45-.006a4.472 4.472 0 00-4.468 4.467v21.227a1.465 1.465 0 102.93 0V22.045c0-.848.69-1.537 1.537-1.537h28.827c-2.005 2.312-4.286 5.27-5.603 7.217-2.622.255-5.194 1.75-6.433 3.963-.828 1.478-.816 2.811-.806 3.883.008.959.015 1.717-.481 2.631-.488.9-1.31 1.654-2.443 2.242a2.22 2.22 0 00-.035 3.926c1.237.673 3.324 1.548 5.796 1.548a10.14 10.14 0 003.67-.683c4.622-1.78 6.946-6.434 6.96-10.313a55.716 55.716 0 003.35-2.363V53.24c0 .848-.688 1.537-1.536 1.537H34.367c-.847 0-1.537-.69-1.537-1.537v-3.133a1.465 1.465 0 10-2.93 0v3.133a4.472 4.472 0 004.467 4.467h31.266A4.472 4.472 0 0070.1 53.24V30.23a111.723 111.723 0 007.588-6.95c.647-.648 1.28-1.296 1.9-1.944v45.161H20.412V14.648zM61.17 89.436c.044 0 .083.03.094.072l2.063 7.439c.018.047-.043.129-.094.123H36.768c-.05.006-.113-.076-.094-.123l2.063-7.439a.098.098 0 01.094-.072h22.338zm-17.75-2.93l1.116-8.291h10.93l1.116 8.292H43.419zM97.07 70.892a4.4 4.4 0 01-4.394 4.394H7.324a4.4 4.4 0 01-4.394-4.394V15.73a4.4 4.4 0 014.394-4.395h10.158v2.93H8.105a2.249 2.249 0 00-2.246 2.246V67.18a2.249 2.249 0 002.246 2.246h83.79a2.249 2.249 0 002.246-2.246V16.512a2.249 2.249 0 00-2.247-2.246h-6.092a70.212 70.212 0 002.217-2.93h4.657a4.4 4.4 0 014.394 4.394v55.16zM17.482 17.195v49.301H8.79v-49.3h8.693zm57.711 43.442H24.807a1.465 1.465 0 000 2.93h50.386a1.465 1.465 0 100-2.93zM30.666 5.86a1.465 1.465 0 100 2.93 1.465 1.465 0 000-2.93z" fill="#353535"/></svg><svg fill="none" viewBox="0 0 12 6" id="dropdown" xmlns="http://www.w3.org/2000/svg"><path d="M6 6L0 0h12L6 6z" fill="#353535"/></svg><svg viewBox="0 0 30 30" id="facebook" xmlns="http://www.w3.org/2000/svg"><path d="M17.323 30V16.317h4.591l.69-5.335h-5.28V7.577c0-1.544.426-2.596 2.643-2.596l2.822-.001V.209C22.301.145 20.625 0 18.675 0c-4.071 0-6.86 2.485-6.86 7.049v3.933H7.212v5.335h4.605V30h5.507z"/></svg><svg fill="none" viewBox="0 0 100 100" id="handshake" xmlns="http://www.w3.org/2000/svg"><g clip-path="url(#eclip0)" fill="#353535"><path d="M68.578 56.382L55 48.04a1.498 1.498 0 00-.548-.2l-4.25-.75a1.479 1.479 0 00-1.698 1.188 1.479 1.479 0 001.188 1.697l4.012.708 13.339 8.196c.65.4 1.544.206 1.976-.423.464-.675.255-1.645-.442-2.074z"/><path d="M99.514 56.852a1.465 1.465 0 00-2.07-.07l-5.94 5.55L64.29 35.482 99.445 2.534A1.465 1.465 0 1097.442.396L61.174 34.385a1.48 1.48 0 00-.027 2.111l2.407 2.375-.768.679-16.09-1.386a1.468 1.468 0 00-.733.127l-12.748 5.806a1.575 1.575 0 00-.113-.026l-7.333-1.294.593-1.516a1.465 1.465 0 00-.82-1.894L2.1 29.991a1.464 1.464 0 10-1.088 2.72l22.09 8.837-13.018 33.267-8.04-2.847a1.465 1.465 0 10-.977 2.762l9.376 3.32c.736.261 1.569-.12 1.853-.847l2.176-5.56 5.7 3.195-.628 1.02a6.16 6.16 0 002.005 8.467 6.19 6.19 0 005.129.613 6.181 6.181 0 002.85 4.31 6.19 6.19 0 005.13.613 6.182 6.182 0 002.85 4.31 6.18 6.18 0 005.129.616 6.181 6.181 0 002.85 4.308c2.227 1.374 5.173 1.168 7.18-.514.506-.424.942-.93 1.288-1.492l1-1.619.822.505c2.23 1.37 5.176 1.16 7.18-.526.505-.425.939-.932 1.284-1.495.687-1.117.971-2.37.896-3.59.465.112.942.172 1.422.172a6.202 6.202 0 005.254-2.934 6.109 6.109 0 00.9-3.59c.463.112.939.172 1.418.172a6.202 6.202 0 005.254-2.934 6.108 6.108 0 00.899-3.592 6.155 6.155 0 006.672-2.76 6.16 6.16 0 00-2.021-8.464l-1.004-.617 3.367-3.518 3.15 3.107a1.48 1.48 0 002.029.028l6.967-6.511c.591-.553.622-1.48.07-2.071zm-71.99 23.929a3.227 3.227 0 01-4.436 1.05 3.227 3.227 0 01-1.05-4.435l8.206-13.3a3.239 3.239 0 014.381-1.083c1.553.919 1.982 3.047 1.05 4.558l-8.151 13.21zm7.98 4.923a3.227 3.227 0 01-4.436 1.05c-1.494-.922-1.974-2.938-1.05-4.435l6.564-10.64a3.24 3.24 0 014.382-1.082c1.552.918 1.98 3.046 1.048 4.558l-6.509 10.549zm7.98 4.923a3.205 3.205 0 01-2.001 1.444 3.202 3.202 0 01-2.435-.393c-1.495-.922-1.974-2.94-1.05-4.435l4.922-7.98a3.239 3.239 0 014.382-1.083c1.553.918 1.981 3.047 1.05 4.558l-4.869 7.89zm11.206-.306l-3.227 5.23c-.923 1.494-2.94 1.974-4.436 1.05-1.494-.921-1.974-2.939-1.05-4.435l3.282-5.32a3.239 3.239 0 014.381-1.083c1.553.918 1.982 3.047 1.05 4.558zm26.688-26.073l-7.262-4.463a1.49 1.49 0 00-2.015.482 1.49 1.49 0 00.48 2.014l10.82 6.649a3.227 3.227 0 011.06 4.433 3.227 3.227 0 01-4.434 1.059l-11.604-7.13a1.465 1.465 0 10-1.534 2.496l8.941 5.494c1.496.919 1.98 2.935 1.06 4.433-.92 1.496-2.936 1.98-4.434 1.06l-8.103-4.98a1.465 1.465 0 10-1.534 2.496l5.44 3.343c1.496.92 1.98 2.935 1.059 4.433-.92 1.496-2.936 1.98-4.434 1.06 0 0-4.784-2.938-4.829-2.96a1.465 1.465 0 00-1.402 2.569l2.035 1.25a3.227 3.227 0 011.058 4.434c-.919 1.495-2.935 1.979-4.433 1.058l-.818-.502.689-1.117a6.342 6.342 0 00.75-4.823 6.048 6.048 0 00-2.802-3.796 6.097 6.097 0 00-3.522-.83 6.35 6.35 0 00-.015-2.957 6.048 6.048 0 00-2.8-3.796 6.096 6.096 0 00-3.523-.831c.604-2.595-.508-5.388-2.816-6.752a6.1 6.1 0 00-3.523-.832c.605-2.595-.508-5.387-2.815-6.752-2.866-1.693-6.618-.766-8.366 2.067l-6.037 9.784-6.164-3.452 9.128-23.329 4.97.877a6.16 6.16 0 00-.814 6.416 6.161 6.161 0 008.15 3.05l8.58-3.909a1.479 1.479 0 00.725-1.94 1.479 1.479 0 00-1.94-.726l-8.58 3.908a3.227 3.227 0 01-4.269-1.598 3.227 3.227 0 011.597-4.269l13.73-6.253 16.331 1.407a1.466 1.466 0 001.095-.361l1.39-1.228L85.213 60.24l-3.834 4.008z"/></g><defs><clipPath id="eclip0"><path fill="#fff" d="M0 0h100v100H0z"/></clipPath></defs></svg><svg viewBox="0 0 30 30" id="insta" xmlns="http://www.w3.org/2000/svg"><path d="M21.88 0H8.12C3.644 0 0 3.643 0 8.12v13.76C0 26.357 3.643 30 8.12 30h13.76c4.477 0 8.12-3.643 8.12-8.12V8.12C30 3.644 26.357 0 21.88 0zM15 23.203c-4.523 0-8.203-3.68-8.203-8.203S10.477 6.797 15 6.797s8.203 3.68 8.203 8.203-3.68 8.203-8.203 8.203zm8.399-14.471a2.426 2.426 0 01-2.424-2.424A2.427 2.427 0 0123.4 3.884a2.427 2.427 0 012.424 2.424A2.427 2.427 0 0123.4 8.732z"/><path d="M15 8.556A6.452 6.452 0 008.556 15 6.452 6.452 0 0015 21.444 6.451 6.451 0 0021.444 15 6.451 6.451 0 0015 8.556zM23.399 5.643a.666.666 0 10.002 1.331.666.666 0 00-.002-1.331z"/></svg><svg fill="none" viewBox="0 0 36 8" id="next" xmlns="http://www.w3.org/2000/svg"><path fill-rule="evenodd" clip-rule="evenodd" d="M32.172.464l3.182 3.182a.5.5 0 010 .707l-3.182 3.182a.5.5 0 11-.707-.707L33.793 4.5H0v-1h33.793L31.465 1.17a.5.5 0 11.707-.707z" fill="#353535"/></svg><svg fill="none" viewBox="0 0 36 8" id="prev" xmlns="http://www.w3.org/2000/svg"><path fill-rule="evenodd" clip-rule="evenodd" d="M3.828 7.535L.646 4.353a.5.5 0 010-.707L3.828.464a.5.5 0 11.708.707L2.207 3.5H36v1H2.207l2.329 2.328a.5.5 0 11-.708.707z" fill="#353535"/></svg><svg fill="none" viewBox="0 0 100 100" id="production" xmlns="http://www.w3.org/2000/svg"><g clip-path="url(#iclip0)" fill="#353535"><path d="M69.73 62.63l-3.585-3.586a18.348 18.348 0 001.46-3.345h5.265c.809 0 1.465-.656 1.465-1.465v-8.468c0-.81-.656-1.465-1.465-1.465h-5.264a18.352 18.352 0 00-1.46-3.345l3.584-3.585c.572-.572.572-1.5 0-2.071l-5.505-5.506a1.465 1.465 0 00-2.072 0l-3.723 3.724a18.415 18.415 0 00-2.748-1.14v-5.264c0-.81-.656-1.465-1.465-1.465h-7.785c-.81 0-1.465.656-1.465 1.465v5.068c-1.174.332-2.31.778-3.397 1.336l-3.724-3.724a1.465 1.465 0 00-2.071 0L30.27 35.3a1.464 1.464 0 000 2.071l3.584 3.585a18.346 18.346 0 00-1.46 3.345H27.13c-.81 0-1.465.656-1.465 1.465v8.468c0 .81.656 1.465 1.465 1.465h5.264c.374 1.16.863 2.28 1.46 3.345L30.27 62.63a1.465 1.465 0 000 2.072l5.505 5.505c.572.572 1.5.572 2.071 0l3.724-3.724a18.346 18.346 0 003.397 1.336v5.069c0 .809.655 1.464 1.464 1.464h7.786c.809 0 1.465-.655 1.465-1.464v-5.265a18.415 18.415 0 002.747-1.14l3.724 3.724c.572.572 1.5.572 2.072 0L69.73 64.7c.572-.572.572-1.5 0-2.072zm-6.54 4.468l-3.468-3.466a1.464 1.464 0 00-1.784-.224 15.473 15.473 0 01-4.083 1.694c-.649.165-1.103.75-1.103 1.419v4.9h-4.855v-4.749c0-.691-.484-1.289-1.16-1.433a15.435 15.435 0 01-4.675-1.83 1.464 1.464 0 00-1.784.223l-3.468 3.467-3.433-3.434 3.36-3.36c.488-.488.569-1.252.192-1.832a15.452 15.452 0 01-2.014-4.6 1.465 1.465 0 00-1.42-1.104h-4.9v-5.538h4.901c.67 0 1.254-.454 1.42-1.103a15.47 15.47 0 012.014-4.6 1.465 1.465 0 00-.193-1.833l-3.36-3.36 3.434-3.433 3.467 3.467a1.465 1.465 0 001.784.224 15.434 15.434 0 014.675-1.832 1.465 1.465 0 001.16-1.432v-4.75h4.855v4.9c0 .67.455 1.255 1.104 1.42 1.432.365 2.805.935 4.082 1.694.576.342 1.31.25 1.784-.224l3.467-3.467 3.434 3.434-3.36 3.36a1.465 1.465 0 00-.193 1.832 15.46 15.46 0 012.015 4.6c.165.65.75 1.103 1.42 1.103h4.9v5.539h-4.901c-.67 0-1.254.454-1.42 1.103a15.467 15.467 0 01-2.014 4.6 1.465 1.465 0 00.193 1.833l3.36 3.36-3.434 3.433z"/><path d="M50 42.616c-.376 0-.753.029-1.12.085a1.465 1.465 0 10.441 2.896A4.46 4.46 0 0154.454 50 4.46 4.46 0 0150 54.454a4.459 4.459 0 01-4.402-5.137 1.465 1.465 0 00-2.896-.446c-.057.37-.085.75-.085 1.129 0 4.071 3.312 7.384 7.383 7.384 4.072 0 7.384-3.313 7.384-7.384 0-4.072-3.313-7.384-7.384-7.384zM86.698 8.878a4.43 4.43 0 00-4.425 4.425 4.43 4.43 0 004.425 4.424 4.43 4.43 0 004.424-4.424 4.43 4.43 0 00-4.424-4.425zm0 5.92c-.825 0-1.495-.671-1.495-1.495 0-.824.67-1.495 1.495-1.495.824 0 1.494.67 1.494 1.495 0 .824-.67 1.494-1.494 1.494z"/><path d="M98.535 8.878h-2.49a10.297 10.297 0 00-4.923-4.923v-2.49c0-.81-.656-1.465-1.465-1.465h-5.92c-.808 0-1.464.656-1.464 1.465v2.49a10.298 10.298 0 00-4.924 4.923h-2.49c-.809 0-1.465.656-1.465 1.465v5.92c0 .808.656 1.464 1.465 1.464h2.49a10.3 10.3 0 004.924 4.924v2.49c0 .809.656 1.465 1.465 1.465h5.919c.809 0 1.465-.656 1.465-1.465v-2.49a10.298 10.298 0 004.923-4.924h2.49c.81 0 1.465-.656 1.465-1.465v-5.919c0-.809-.656-1.465-1.465-1.465zm-1.465 5.92h-2.003c-.62 0-1.174.39-1.38.975a7.5 7.5 0 01-4.52 4.519c-.584.207-.975.76-.975 1.38v2.004h-2.99v-2.004c0-.62-.39-1.173-.974-1.38a7.5 7.5 0 01-4.52-4.52 1.465 1.465 0 00-1.38-.975h-2.004v-2.989h2.004c.62 0 1.173-.39 1.38-.975a7.5 7.5 0 014.52-4.52c.584-.207.975-.76.975-1.38V2.93h2.989v2.003c0 .62.39 1.174.975 1.38a7.5 7.5 0 014.52 4.52c.207.584.76.975 1.38.975h2.003v2.99zM91.122 86.697a4.43 4.43 0 00-4.424-4.424 4.43 4.43 0 00-4.425 4.424 4.43 4.43 0 004.425 4.424 4.43 4.43 0 004.424-4.424zm-5.92 0c0-.824.671-1.494 1.495-1.494.824 0 1.495.67 1.495 1.494s-.67 1.495-1.495 1.495c-.824 0-1.494-.67-1.494-1.495z"/><path d="M98.535 82.273h-2.49a10.298 10.298 0 00-4.923-4.924v-2.49c0-.809-.656-1.465-1.465-1.465h-5.92c-.808 0-1.464.656-1.464 1.465v2.605a1.465 1.465 0 001.608 2.377c.114-.047.23-.091.346-.132.585-.208.976-.76.976-1.381v-2.004h2.989v2.004c0 .62.39 1.173.975 1.38a7.5 7.5 0 014.52 4.52c.207.584.76.975 1.38.975h2.003v2.989h-2.003c-.62 0-1.174.39-1.38.975a7.499 7.499 0 01-4.52 4.52c-.584.207-.975.76-.975 1.38v2.003h-2.99v-2.003c0-.62-.39-1.174-.974-1.38a7.5 7.5 0 01-4.52-4.52 1.465 1.465 0 00-1.38-.975h-2.004v-2.99h2.004c.62 0 1.174-.39 1.38-.975a7.25 7.25 0 01.141-.365 1.465 1.465 0 00-2.397-1.589h-2.593c-.809 0-1.465.656-1.465 1.465v5.919c0 .809.656 1.465 1.465 1.465h2.49a10.298 10.298 0 004.924 4.923v2.49c0 .81.656 1.465 1.465 1.465h5.919c.809 0 1.465-.656 1.465-1.465v-2.49a10.297 10.297 0 004.923-4.923h2.49c.81 0 1.465-.656 1.465-1.465v-5.92c0-.808-.656-1.464-1.465-1.464zM17.727 13.303a4.43 4.43 0 00-4.424-4.425 4.43 4.43 0 00-4.425 4.425 4.43 4.43 0 004.425 4.424 4.43 4.43 0 004.424-4.424zm-5.919 0c0-.825.67-1.495 1.495-1.495.823 0 1.494.67 1.494 1.495 0 .824-.67 1.494-1.495 1.494-.823 0-1.494-.67-1.494-1.494z"/><path d="M1.465 17.727h2.49a10.298 10.298 0 004.923 4.924v2.49c0 .809.656 1.465 1.465 1.465h5.92c.808 0 1.464-.656 1.464-1.465v-2.49a10.3 10.3 0 004.924-4.924h2.49c.809 0 1.465-.656 1.465-1.465v-5.919c0-.809-.656-1.465-1.465-1.465h-2.49a10.298 10.298 0 00-4.924-4.923v-2.49c0-.81-.656-1.465-1.465-1.465h-5.919c-.809 0-1.465.656-1.465 1.465V4.07a1.465 1.465 0 001.609 2.376c.114-.047.229-.09.346-.132.584-.208.975-.76.975-1.38V2.93h2.99v2.003c0 .62.39 1.174.975 1.38a7.5 7.5 0 014.519 4.52c.207.584.76.975 1.38.975h2.004v2.99h-2.004c-.62 0-1.173.39-1.38.975a7.5 7.5 0 01-4.52 4.519c-.584.207-.975.76-.975 1.38v2.004h-2.989v-2.004c0-.62-.39-1.173-.975-1.38a7.5 7.5 0 01-4.52-4.52 1.465 1.465 0 00-1.38-.975H2.93v-2.989h2.003c.62 0 1.174-.39 1.381-.975a7.04 7.04 0 01.14-.364 1.465 1.465 0 00-2.397-1.59H1.465C.655 8.878 0 9.533 0 10.342v5.92c0 .808.656 1.464 1.465 1.464zM25.14 82.273h-2.49a10.3 10.3 0 00-4.923-4.924v-2.49c0-.809-.656-1.465-1.465-1.465h-5.919c-.809 0-1.465.656-1.465 1.465v2.49a10.298 10.298 0 00-4.923 4.924h-2.49c-.81 0-1.465.656-1.465 1.465v5.919c0 .809.656 1.465 1.465 1.465h2.49a10.297 10.297 0 004.923 4.923v2.49c0 .81.656 1.465 1.465 1.465h5.92c.808 0 1.464-.656 1.464-1.465v-2.49a10.298 10.298 0 004.924-4.923h2.49c.809 0 1.465-.656 1.465-1.465v-5.92c0-.808-.656-1.464-1.465-1.464zm-1.464 5.919h-2.004c-.62 0-1.173.39-1.38.975a7.5 7.5 0 01-4.52 4.52c-.584.207-.975.76-.975 1.38v2.003h-2.989v-2.003c0-.62-.39-1.174-.975-1.38a7.5 7.5 0 01-4.52-4.52 1.465 1.465 0 00-1.38-.975H2.93v-2.99h2.003c.62 0 1.174-.39 1.38-.974a7.5 7.5 0 014.52-4.52c.584-.207.975-.76.975-1.38v-2.004h2.99v2.004c0 .62.39 1.173.975 1.38a7.5 7.5 0 014.519 4.52c.207.584.76.975 1.38.975h2.004v2.989z"/><path d="M13.303 82.273a4.43 4.43 0 00-4.425 4.424 4.43 4.43 0 004.425 4.424 4.43 4.43 0 004.424-4.424 4.43 4.43 0 00-4.425-4.424zm0 5.919c-.825 0-1.495-.67-1.495-1.495 0-.824.67-1.494 1.495-1.494.823 0 1.494.67 1.494 1.494s-.67 1.495-1.495 1.495zM24.203 22.131a1.465 1.465 0 00-2.071 2.072l4.207 4.208h-1.198a1.465 1.465 0 100 2.93h4.735a1.48 1.48 0 001.465-1.466V25.14a1.465 1.465 0 10-2.93 0v1.2l-4.208-4.209zM68.667 30.02a1.48 1.48 0 001.457 1.32h4.736a1.465 1.465 0 100-2.929h-1.2l4.208-4.207a1.465 1.465 0 00-2.071-2.072l-4.208 4.207v-1.198a1.465 1.465 0 10-2.93 0v4.734c0 .049.003.098.008.146zM31.333 69.585a1.48 1.48 0 00-1.457-1.32H25.14a1.465 1.465 0 100 2.93h1.198l-4.207 4.207a1.464 1.464 0 102.071 2.071l4.208-4.207v1.198a1.465 1.465 0 102.93 0V69.73c0-.049-.003-.097-.008-.145zM75.797 77.473a1.46 1.46 0 002.072 0c.571-.572.571-1.5 0-2.071l-4.208-4.208h1.198a1.465 1.465 0 100-2.93h-4.735a1.48 1.48 0 00-1.465 1.466v4.734a1.465 1.465 0 102.93 0v-1.198l4.208 4.207z"/></g><defs><clipPath id="iclip0"><path fill="#fff" d="M0 0h100v100H0z"/></clipPath></defs></svg><svg fill="none" viewBox="0 0 25 35" id="route" xmlns="http://www.w3.org/2000/svg"><path d="M12.5 0C6.067 0 .833 5.234.833 11.667c0 1.93.483 3.846 1.4 5.544l9.629 17.413a.728.728 0 001.276 0l9.632-17.419a11.687 11.687 0 001.397-5.538C24.167 5.234 18.933 0 12.5 0zm0 17.5a5.84 5.84 0 01-5.833-5.833A5.84 5.84 0 0112.5 5.833a5.84 5.84 0 015.833 5.834A5.84 5.84 0 0112.5 17.5z" fill="#fff"/></svg><svg fill="none" viewBox="0 0 25 19" id="tick" xmlns="http://www.w3.org/2000/svg"><path fill-rule="evenodd" clip-rule="evenodd" d="M25 1.563L8.83 19 0 11.402 1.487 9.66l7.165 6.165L23.328 0 25 1.563z" fill="#353535"/></svg><svg fill="none" viewBox="0 0 100 100" id="time" xmlns="http://www.w3.org/2000/svg"><path d="M7.592 29.143h15.449a1.465 1.465 0 100-2.93H7.592a1.465 1.465 0 100 2.93zM22.511 36.195H16.41a1.465 1.465 0 100 2.93h6.102a1.465 1.465 0 100-2.93zM1.465 46.353h14.944a1.465 1.465 0 100-2.93H1.465a1.465 1.465 0 100 2.93zM24.506 72.322c0-.809-.656-1.465-1.465-1.465H7.592a1.465 1.465 0 100 2.93h15.449c.809 0 1.465-.656 1.465-1.465zM22.511 60.876H16.41a1.465 1.465 0 100 2.93h6.102a1.465 1.465 0 100-2.93zM17.873 55.112c0-.809-.655-1.465-1.464-1.465H1.465a1.465 1.465 0 100 2.93h14.944c.809 0 1.464-.655 1.464-1.465zM62.408 32.389c.81 0 1.465-.656 1.465-1.465v-2.236a1.465 1.465 0 10-2.93 0v2.236c0 .81.656 1.465 1.465 1.465zM78.514 33.894a1.465 1.465 0 00-2.072 0l-1.581 1.581a1.465 1.465 0 002.072 2.072l1.58-1.581c.572-.572.572-1.5 0-2.072zM81.484 48.535a1.465 1.465 0 100 2.93h2.236a1.465 1.465 0 100-2.93h-2.236zM76.933 62.453a1.465 1.465 0 00-2.072 2.072l1.581 1.58a1.465 1.465 0 002.072-2.071l-1.581-1.581zM60.943 69.076v2.236a1.465 1.465 0 102.93 0v-2.236a1.465 1.465 0 10-2.93 0zM47.883 62.453l-1.58 1.58a1.465 1.465 0 002.07 2.073l1.582-1.581a1.465 1.465 0 00-2.072-2.072zM41.096 48.535a1.465 1.465 0 100 2.93h2.236a1.465 1.465 0 100-2.93h-2.236zM49.955 35.475l-1.581-1.58a1.465 1.465 0 00-2.072 2.07l1.581 1.582a1.465 1.465 0 002.072-2.072zM70.285 50c0-.809-.656-1.465-1.465-1.465h-4.947V37.66a1.465 1.465 0 10-2.93 0V50c0 .81.656 1.465 1.465 1.465h6.412c.81 0 1.465-.656 1.465-1.465z" fill="#353535"/><path d="M90.184 49.759a1.465 1.465 0 001.373-1.551c-.932-15.372-13.736-27.413-29.15-27.413-16.103 0-29.205 13.102-29.205 29.206s13.102 29.205 29.206 29.205c14.427 0 26.738-10.57 28.88-24.835a1.465 1.465 0 10-2.898-.435c-1.923 12.815-12.989 22.34-25.982 22.34-14.489 0-26.276-11.787-26.276-26.275 0-14.489 11.787-26.276 26.276-26.276 13.867 0 25.386 10.832 26.225 24.66.049.808.742 1.42 1.55 1.374z" fill="#353535"/><path d="M62.408 12.408c-5.153 0-10.201 1.07-14.848 3.068H21.715a1.465 1.465 0 100 2.93H42.05a37.552 37.552 0 00-7.512 6.368 1.465 1.465 0 102.171 1.966 34.737 34.737 0 0125.699-11.402C81.52 15.338 97.07 30.888 97.07 50c0 19.113-15.55 34.662-34.662 34.662-19.113 0-34.663-15.549-34.663-34.662 0-6.693 1.912-13.189 5.53-18.786a1.465 1.465 0 10-2.461-1.59A37.455 37.455 0 0024.816 50c0 13.236 6.876 24.894 17.243 31.594H21.715a1.465 1.465 0 100 2.93H47.54a37.377 37.377 0 0014.868 3.068C83.136 87.592 100 70.728 100 50c0-20.728-16.864-37.592-37.592-37.592z" fill="#353535"/></svg><svg viewBox="0 0 30 30" id="youtube" xmlns="http://www.w3.org/2000/svg"><path d="M28.83 6.256c-1.082-1.287-3.082-1.812-6.9-1.812H8.07c-3.906 0-5.94.559-7.018 1.93C0 7.708 0 9.677 0 12.403v5.193c0 5.28 1.248 7.96 8.07 7.96h13.86c3.311 0 5.146-.464 6.333-1.6C29.481 22.792 30 20.89 30 17.597v-5.194c0-2.874-.081-4.854-1.17-6.147zm-9.57 9.461l-6.294 3.29a.968.968 0 01-1.416-.858V11.59a.968.968 0 011.414-.859l6.294 3.269a.968.968 0 01.002 1.716z"/></svg></svg>