<?xml version="1.0" encoding="utf-8"?><svg viewBox="0 0 32 32" xmlns="http://www.w3.org/2000/svg" xmlns:xlink="http://www.w3.org/1999/xlink"><style>:root>svg{display:none}:root>svg:target{display:block}</style><svg fill="none" viewBox="0 0 24 24" id="dribble" xmlns="http://www.w3.org/2000/svg"><path fill-rule="evenodd" clip-rule="evenodd" d="M12 22C6.486 22 2 17.514 2 12S6.486 2 12 2s10 4.486 10 10-4.486 10-10 10zm8.433-8.631c-.292-.092-2.643-.794-5.32-.365 1.117 3.07 1.572 5.57 1.66 6.09a8.556 8.556 0 003.66-5.725zm-5.097 6.507c-.127-.75-.623-3.361-1.822-6.478l-.056.02c-4.818 1.678-6.547 5.02-6.7 5.334a8.53 8.53 0 008.578 1.124zm-9.682-2.152c.194-.331 2.538-4.212 6.943-5.636.112-.036.224-.07.337-.102a28.675 28.675 0 00-.693-1.45c-4.265 1.277-8.404 1.224-8.778 1.216a8.508 8.508 0 002.191 5.972zm-2.015-7.46c.382.005 3.901.02 7.896-1.041a54.506 54.506 0 00-3.166-4.94 8.573 8.573 0 00-4.73 5.98zm6.36-6.555a45.59 45.59 0 013.186 5c3.038-1.138 4.324-2.866 4.477-3.085a8.531 8.531 0 00-7.664-1.915zm8.613 2.903c-.18.243-1.612 2.078-4.77 3.367a26.435 26.435 0 01.75 1.678c2.843-.357 5.667.216 5.949.275a8.5 8.5 0 00-1.93-5.32z" fill="#E94B88"/></svg><svg fill="none" viewBox="0 0 18 18" id="linkedin" xmlns="http://www.w3.org/2000/svg"><path d="M16.65 0H1.35C.63 0 0 .543 0 1.266v15.468C0 17.457.63 18 1.35 18h15.3c.72 0 1.35-.543 1.35-1.266V1.266C18 .633 17.37 0 16.65 0zM5.31 15.467h-2.7V6.874h2.7v8.593zM3.96 5.608c-.9 0-1.53-.724-1.53-1.538 0-.814.72-1.537 1.53-1.537s1.53.723 1.53 1.537c.09.905-.63 1.538-1.53 1.538zm11.34 9.86h-2.7v-4.161c0-.995 0-2.262-1.35-2.262s-1.62 1.086-1.62 2.262v4.25h-2.7V6.966h2.52V8.14c.36-.724 1.26-1.357 2.52-1.357 2.7 0 3.24 1.809 3.24 4.07v4.613h.09z" fill="#0077B5"/></svg><svg fill="none" viewBox="0 0 32 32" id="mot-design" xmlns="http://www.w3.org/2000/svg"><circle cx="16" cy="16" r="15" stroke="#5221E6" stroke-width="2" stroke-dasharray="10 10"/><path d="M21 16l-7.5 4.33v-8.66L21 16z" fill="#5221E6"/></svg><svg fill="none" viewBox="0 0 32 27" id="photo" xmlns="http://www.w3.org/2000/svg"><path d="M29.828 5.236H26.9L26.227 2.2A2.795 2.795 0 0023.481 0H13.316c-1.33 0-2.459.905-2.746 2.201l-.673 3.035h-.694V3.94c0-.73-.595-1.323-1.326-1.323H3.591c-.73 0-1.325.593-1.325 1.323v1.295h-.094A2.173 2.173 0 000 7.404v14.688c0 1.196.975 2.169 2.172 2.169h10.075a11.293 11.293 0 006.152 1.813c2.265 0 4.378-.667 6.151-1.814h5.278A2.173 2.173 0 0032 22.093V7.404a2.173 2.173 0 00-2.172-2.168zM11.79 2.47c.16-.72.788-1.223 1.526-1.223h10.165c.739 0 1.366.503 1.526 1.223l.613 2.765h-1.07a11.293 11.293 0 00-6.151-1.814c-2.266 0-4.379.667-6.152 1.814h-1.07l.613-2.765zM3.516 3.94c0-.042.034-.075.075-.075h4.286c.042 0 .076.033.076.075v1.295H3.516V3.94zm1.503 19.072v-6.777a.624.624 0 00-1.25 0v6.777H2.172a.923.923 0 01-.922-.921V7.404c0-.508.414-.92.922-.92h8.477a11.287 11.287 0 00-3.596 8.264c0 3.257 1.385 6.197 3.597 8.265H5.02zm19.15 0a10.083 10.083 0 01-11.541 0c-2.613-1.824-4.325-4.848-4.325-8.265 0-3.417 1.712-6.441 4.325-8.264a10.08 10.08 0 0111.541 0c2.613 1.823 4.325 4.847 4.325 8.264 0 3.417-1.712 6.441-4.325 8.265zm6.581-.921c0 .508-.414.92-.922.92h-3.68a11.287 11.287 0 003.596-8.264c0-3.257-1.385-6.196-3.596-8.265h3.68c.508 0 .922.413.922.921v14.688z" fill="#5221E6"/><path d="M18.37 7.111c-4.248 0-7.703 3.456-7.703 7.704 0 4.248 3.456 7.704 7.703 7.704.62 0 1.235-.074 1.831-.22a.587.587 0 10-.278-1.14 6.538 6.538 0 01-8.083-6.345c0-3.6 2.93-6.53 6.53-6.53 3.601 0 6.53 2.93 6.53 6.53a6.495 6.495 0 01-1.12 3.66.587.587 0 00.971.659 7.665 7.665 0 001.323-4.318c0-4.248-3.456-7.704-7.704-7.704zM4.74 8.296a2.373 2.373 0 00-2.37 2.37 2.373 2.373 0 002.37 2.371 2.373 2.373 0 002.371-2.37 2.373 2.373 0 00-2.37-2.37zm0 3.468a1.098 1.098 0 01-1.096-1.097c0-.605.492-1.097 1.097-1.097s1.097.492 1.097 1.097-.492 1.097-1.097 1.097z" fill="#5221E6"/><path d="M23.692 20.625a.63.63 0 00-.088-.213.56.56 0 00-.163-.164.63.63 0 00-.214-.088.587.587 0 00-.608.252.604.604 0 00-.1.329.585.585 0 00.1.329.57.57 0 00.266.218.598.598 0 00.555-.055.597.597 0 00.252-.608z" fill="#5221E6"/></svg><svg fill="none" viewBox="0 0 32 32" id="prod-design" xmlns="http://www.w3.org/2000/svg"><path fill-rule="evenodd" clip-rule="evenodd" d="M30.222 23.111H17.778v7.111h12.444v-7.11zm0-21.333H17.778V16h12.444V1.778zM10.667 16h-8.89v14.222h8.89V16zm0-14.222h-8.89v7.11h8.89v-7.11zM17.777 0C16.797 0 16 .796 16 1.778V16c0 .982.796 1.778 1.778 1.778h12.444c.982 0 1.778-.796 1.778-1.778V1.778C32 .796 31.204 0 30.222 0H17.778zm0 21.333c-.981 0-1.777.796-1.777 1.778v7.111c0 .982.796 1.778 1.778 1.778h12.444c.982 0 1.778-.796 1.778-1.778v-7.11c0-.983-.796-1.779-1.778-1.779H17.778zM0 16c0-.982.796-1.778 1.778-1.778h8.889c.982 0 1.777.796 1.777 1.778v14.222c0 .982-.796 1.778-1.777 1.778h-8.89A1.778 1.778 0 010 30.222V16zM1.778 0C.796 0 0 .796 0 1.778v7.11c0 .983.796 1.779 1.778 1.779h8.889c.982 0 1.777-.796 1.777-1.778V1.778C12.444.796 11.648 0 10.667 0h-8.89z" fill="#5221E6"/></svg><svg fill="none" viewBox="0 0 24 24" id="twitter" xmlns="http://www.w3.org/2000/svg"><path fill-rule="evenodd" clip-rule="evenodd" d="M22 6.872c-.69.296-1.478.493-2.364.591.788-.493 1.477-1.28 1.773-2.167-.788.492-1.675.788-2.562.985C18.157 5.493 17.074 5 15.892 5c-2.266 0-4.04 1.773-4.04 3.94 0 .296 0 .592.099.888C8.6 9.63 5.645 8.054 3.576 5.69a3.552 3.552 0 00-.59 1.97c0 1.38.689 2.562 1.773 3.35-.69 0-1.281-.197-1.872-.493v.099c0 1.97 1.379 3.547 3.25 3.94-.295.1-.689.1-1.083.1-.295 0-.492 0-.788-.1a3.933 3.933 0 003.744 2.76c-1.38 1.083-3.153 1.674-5.025 1.674-.295 0-.69 0-.985-.098 1.773 1.182 3.94 1.773 6.207 1.773 7.39 0 11.527-6.108 11.527-11.33v-.493C20.818 8.35 21.507 7.66 22 6.872z" fill="#26A7DE"/></svg><svg fill="none" viewBox="0 0 32 32" id="vis-design" xmlns="http://www.w3.org/2000/svg"><path d="M17.221 1.2L30.8 14.778l1.2-1.2L18.421 0l-1.2 1.2z" fill="#5221E6"/><path fill-rule="evenodd" clip-rule="evenodd" d="M19.234 7.601a2.546 2.546 0 00-2.804-.54l-9.423 4.04a4.225 4.225 0 00-2.352 2.559 466.947 466.947 0 00-2.98 9.346 132.641 132.641 0 00-1.176 4.039c-.148.551-.27 1.036-.355 1.427-.079.364-.144.722-.144.98v.352L2.194 32h.352c.258 0 .617-.065.981-.144a31.66 31.66 0 001.427-.355 132.4 132.4 0 004.039-1.175 467.92 467.92 0 009.346-2.982 4.225 4.225 0 002.56-2.351l4.038-9.424a2.546 2.546 0 00-.54-2.803l-5.163-5.164zm-2.135 1.02a.849.849 0 01.934.18l5.164 5.164a.848.848 0 01.18.935l-4.038 9.423a2.528 2.528 0 01-1.531 1.408 464.745 464.745 0 01-9.31 2.97c-1.522.464-2.907.87-3.984 1.16-.54.145-.994.258-1.347.335l-.207.043 8.672-8.672a2.547 2.547 0 10-1.2-1.2L1.76 29.04c.012-.063.027-.132.043-.207.077-.353.19-.808.335-1.347.29-1.078.696-2.462 1.16-3.984a464.903 464.903 0 012.97-9.31 2.528 2.528 0 011.408-1.53l9.423-4.04z" fill="#5221E6"/></svg></svg>