<?xml version="1.0" encoding="utf-8"?><svg viewBox="0 0 148 142" xmlns="http://www.w3.org/2000/svg" xmlns:xlink="http://www.w3.org/1999/xlink"><style>:root>svg{display:none}:root>svg:target{display:block}</style><svg viewBox="0 0 13 14" id="buy-icon" xmlns="http://www.w3.org/2000/svg"><path d="M11.265 3.82a.11.11 0 00-.109-.101H9.734a.547.547 0 01-.547-.547A3.175 3.175 0 006.016 0a3.175 3.175 0 00-3.172 3.172.547.547 0 01-.547.547H.875a.11.11 0 00-.11.1L0 13.883A.11.11 0 00.11 14h11.812a.11.11 0 00.109-.118L11.265 3.82zM3.72 3.172A2.3 2.3 0 016.016.875a2.3 2.3 0 012.296 2.297.547.547 0 01-.546.547h-3.5a.547.547 0 01-.547-.547zm-.438 3.61a1.096 1.096 0 01-1.094-1.095c0-.093.01-.184.03-.272.108-.47.627-.209.627.272a.438.438 0 00.875 0c0-.48.518-.74.626-.272.02.088.03.18.03.272 0 .604-.49 1.094-1.094 1.094zm5.469 0a1.096 1.096 0 01-1.094-1.095c0-.093.01-.184.03-.272.107-.47.626-.209.626.272a.438.438 0 00.875 0c0-.48.519-.74.626-.272.02.088.03.18.03.272 0 .604-.49 1.094-1.093 1.094z"/><path d="M11.265 3.82a.11.11 0 00-.109-.101H9.734a.547.547 0 01-.547-.547A3.175 3.175 0 006.016 0a3.175 3.175 0 00-3.172 3.172.547.547 0 01-.547.547H.875a.11.11 0 00-.11.1L0 13.883A.11.11 0 00.11 14h11.812a.11.11 0 00.109-.118L11.265 3.82zM3.72 3.172A2.3 2.3 0 016.016.875a2.3 2.3 0 012.296 2.297.547.547 0 01-.546.547h-3.5a.547.547 0 01-.547-.547zm-.438 3.61a1.096 1.096 0 01-1.094-1.095c0-.093.01-.184.03-.272.108-.47.627-.209.627.272a.438.438 0 00.875 0c0-.48.518-.74.626-.272.02.088.03.18.03.272 0 .604-.49 1.094-1.094 1.094zm5.469 0a1.096 1.096 0 01-1.094-1.095c0-.093.01-.184.03-.272.107-.47.626-.209.626.272a.438.438 0 00.875 0c0-.48.519-.74.626-.272.02.088.03.18.03.272 0 .604-.49 1.094-1.093 1.094z" fill="url(#apaint0_linear)"/><path d="M11.265 3.82a.11.11 0 00-.109-.101H9.734a.547.547 0 01-.547-.547A3.175 3.175 0 006.016 0a3.175 3.175 0 00-3.172 3.172.547.547 0 01-.547.547H.875a.11.11 0 00-.11.1L0 13.883A.11.11 0 00.11 14h11.812a.11.11 0 00.109-.118L11.265 3.82zM3.72 3.172A2.3 2.3 0 016.016.875a2.3 2.3 0 012.296 2.297.547.547 0 01-.546.547h-3.5a.547.547 0 01-.547-.547zm-.438 3.61a1.096 1.096 0 01-1.094-1.095c0-.093.01-.184.03-.272.108-.47.627-.209.627.272a.438.438 0 00.875 0c0-.48.518-.74.626-.272.02.088.03.18.03.272 0 .604-.49 1.094-1.094 1.094zm5.469 0a1.096 1.096 0 01-1.094-1.095c0-.093.01-.184.03-.272.107-.47.626-.209.626.272a.438.438 0 00.875 0c0-.48.519-.74.626-.272.02.088.03.18.03.272 0 .604-.49 1.094-1.093 1.094z" fill="url(#apaint1_linear)"/><defs><linearGradient id="apaint0_linear" x1="6.016" y1="0" x2="6.016" y2="14" gradientUnits="userSpaceOnUse"><stop stop-color="#FE5626"/><stop offset="1" stop-color="#F23F0E"/></linearGradient><linearGradient id="apaint1_linear" x1="6.223" y1="30.206" x2="-6.209" y2="26.787" gradientUnits="userSpaceOnUse"><stop stop-color="#F58656"/><stop offset="1" stop-color="#FE5626"/></linearGradient></defs></svg><svg fill="none" viewBox="0 0 77 86" id="icon-1" xmlns="http://www.w3.org/2000/svg"><path d="M40.812 26.519c-2.5-1.427-4.204-3.016-5.748-4.499-1.385-1.377-2.293-3.127-2.775-4.825-.804-2.6.411-4.78 2.425-6.433 1.166-1.065 2.65-1.92 4.402-2.136 1.327-.27 2.44-.91 3.554-1.55 3.395-1.656 6.847-1.665 10.039.45 3.352 2.221 6.333 4.656 8.573 8.208 2.827 4.4 3.53 9.232 3.438 14.224-.046 2.496.067 5.098-.67 7.596-1 3.243-1.574 6.537-4.276 8.881-.849.587-.74 1.808-1.108 2.712-1.475 4.306-4.603 6.598-8.528 8.362-.636.267-.848.586-.74 1.117.161.796.003 1.38-.58 1.913-3.867 3.41-8.107 6.343-13.47 7.154-1.06.216-2.017.271-3.026.062-1.435-.262-2.123.43-3.077 1.177-2.277 2.396-4.822 4.155-7.685 5.703-.743.427-1.539.589-2.283.325-2.764-.683-4.264-5.352-2.517-7.64.529-.799.74-1.118-.218-1.752-.638-.424-1.225-1.272-1.652-2.014-1.494-2.598-1.288-4.989.672-6.906 2.225-1.971 5.518-2.087 7.7-.18 1.49 1.217 3.087 2.274 4.523 3.226.958.635 1.648.633 2.389-.484 2.01-3.033 3.86-6.171 6.083-8.833.9-1.011 1.535-1.97 2.808-2.504 1.644-.748 2.49-2.025 3.283-3.567 1.056-2.287 1.633-4.89 3.433-6.914.317-.479-.271-2.017-.592-2.919-.589-1.538-1.814-2.81-2.137-4.402-.111-1.912-1.017-2.972-2.24-3.552zm22.093-.061c-.594-3.61-1.135-6.954-3.108-9.87-1.546-2.173-3.515-3.708-5.378-5.402-3.516-3.708-7.395-4.44-11.849-1.88-1.273.535-2.546 1.07-3.873 1.339-1.858.377-3.395 1.656-4.399 3.517-1.267 2.606.225 4.514 1.718 6.422 1.492 1.907 3.567 3.283 5.642 4.658.798.529 1.17.315 1.698-.483.739-1.808 2.17-2.927 4.027-3.304 3.29-.805 6.268.248 9.297.878 2.55.311 4.413 2.006 6.225 4.125zm-4.52-1.846c-2.659-1.533-6.165-1.79-9.617-1.78-1.912.112-3.502 1.125-4.187 3.198-.367 1.595-.098 2.922.596 4.3 1.068 1.856 2.24 3.553 2.14 5.784.002.69.268.636.852.794 4.728.146 7.605 3.43 10.216 6.77.746.954.958.634 1.38-.004.318-.48.636-.958.793-1.543 1.056-2.286 1.527-4.73 1.999-7.175.573-3.985-.127-7.435-4.171-10.345zm-16.187 23.04c2.344 2.702 5.165 5.031 6.873 8 1.962-1.226 4.456-1.87 6.096-4 2.064-2.767 3.966-6.33.453-9.348-1.81-1.429-3.143-3.23-5.587-3.702-1.594-.367-2.973.327-3.554 1.55-.844 1.967-1.848 3.829-2.693 5.796-.688.693-.952 1.437-1.588 1.704zm-9.882 18.031a93.338 93.338 0 013.133-.22c3.875-.649 7.056-2.676 10.183-4.968 2.439-1.6 2.647-3.3.781-5.685-1.279-1.536-2.558-3.073-4.102-4.556-1.225-1.271-2.34-1.321-3.717.064-2.7 3.034-4.656 6.332-6.718 9.79-.318.479-1.43 1.81.43 2.123 1.01.21 1.172 1.006.803 1.91.001.69-.37.904-.793 1.542zm-9.066 5.708c-1.225-1.271-1.225-1.271 1.53-4.04-.691.001-1.487.163-2.178.165-.69.002-1.275-.156-1.383-.687-.107-.53.37-.904.847-1.277 1.113-.64 1.961-1.227 3.18-2.027-1.222-.58-2.34-1.32-3.403-1.796-.48-.317-.958-.635-.535-1.273.264-.744.848-.587 1.593-.323.584.158 1.117.74 1.701.898 1.224.58 2.287 1.056 4.145.679-2.871-1.214-4.735-2.908-6.81-4.283-1.915-1.27-4.515-.466-5.52 1.396-.898 1.702-.148 4.037 2.247 5.623 1.596 1.058 1.704 1.589.486 3.08-1.429 1.809-1.479 2.924.12 4.673.692.688 1.384 1.377 2.444.47.157-.584.794-.851 1.536-1.278z" fill="#0A0A0A" opacity=".1"/></svg><svg fill="none" viewBox="0 0 116 116" id="icon-2" xmlns="http://www.w3.org/2000/svg"><path d="M69.059 36.313c-.368-2.241-.55-4.296-1.106-5.978-.555-2.055.57-3.92.762-5.973l.374-.372c.373 0 .746.375.745.748.557 1.309.927 2.804 1.484 4.112 1.113 2.99 2.598 6.355 1.282 9.9 4.302-2.791 9.53-2.778 14.014-3.888.56-.185.933.19.746.376-.564 1.305.368 1.868.553 2.802.553 2.802-.383 3.733-3.182 3.166-2.426-.566-5.229.36-7.846 1.475l.187.187c6.534.203 10.633 3.947 14.917 8.252 5.029 5.053 6.32 11.218 7.052 17.569.363 4.108-1.14 7.839-3.202 11.381-3.19 6.154-8.056 10.997-13.854 14.904-1.87 1.115-3.554 2.792-5.424 3.907-4.113 2.231-8.225 3.715-12.708 4.451-4.296.549-8.214-.394-11.943-2.644-2.424-1.313-5.036-2.066-6.899-3.938-2.236-1.872-3.723-4.49-5.398-6.921-1.303-1.684-2.232-3.367-2.974-5.61-.37-1.12-.929-1.682-2.422-2.059-3.172-.941-5.967-3.002-8.577-4.876-.559-.561-1.305-.936-1.863-1.498-1.865-1.125-3.168-2.808-4.096-4.865-1.858-3.739-2.97-7.476-2.4-11.395.568-3.173.014-5.602-1.099-8.592-1.484-3.738-.914-8.03.03-11.95.566-2.426 2.438-4.662 4.124-6.711 5.618-6.708 12.91-10.985 21.875-12.083 5.603-.734 10.642.586 15.49 3.212 3.542 2.062 6.522 5.057 8.38 8.796 1.118 1.123 1.488 2.618 2.978 4.115zm9.47 21.496c-.001.373-.376.746-.002.747.373 0 .748-.372.562-.933 2.436-3.541-.348-10.083-4.641-10.654-.374 0-.56-.188-.935.185-.188.56.186.56.745.748 2.05 1.686 3.913 3.557 4.092 6.732a6.234 6.234 0 00.179 3.175zm-59.922-5.935c2.635-8.583 12.926-17.333 16.66-16.95a88.616 88.616 0 01-3.928 2.79c-5.426 4.282-9.174 9.874-10.871 16.778-.567 2.8-1.133 5.226-.767 8.214.728 7.844 5.945 12.338 11.536 16.46 3.168 2.434 7.088 3.004 11.01 2.454 1.494.003 3.175-.18 4.481.01.374.001.747.002.745.75 0 .373-.188.559-.561.558-1.308.557-2.43.928-3.922.55-1.307-.19-2.8-.193-4.107-.383.37 1.121.928 2.056 1.486 2.991.74 2.99 2.601 5.235 5.024 7.294 3.54 2.81 7.27 5.06 11.56 6.751 3.73 1.502 7.837 1.886 11.388.588 5.42-2.041 10.095-5.204 13.654-9.863 3.56-4.66 6.559-9.506 7.88-15.665 1.322-5.785.402-11.202-1.826-16.435-.743-1.496-1.86-2.992-3.538-3.93-.19 1.306.928 2.056.18 2.801-.563.932-.565 1.68-.566 2.426-.001.373.184.934-.377 1.493-.188.186-.747-.002-.934-.19-.372-.373-.371-.747-.183-1.307.563-1.305-.548-5.042-1.666-5.792.178 3.548-2.629 5.968-3.57 9.14-.188.56-.562.56-.935.558-.56-.188-.372-.748-.371-1.12.377-1.494.754-2.987.759-4.854.008-3.36-.544-6.536-3.713-8.598-.373-.374-.56-.561-1.12-.376-1.867-.005-3.359-.755-3.728-2.623-.183-1.308-.927-2.43-1.484-3.738-.93-1.683-2.234-2.993-3.35-4.49-1.117-1.496-2.981-2.62-5.41-2.067-.56.186-1.12-.002-1.68.183-.374 0-.748-.002-.747-.375.001-.374.188-.56.375-.746.561-.186 1.495-.37 2.803-.553-1.863-1.872-3.728-2.624-5.967-3.376-2.053-.565-4.48-.758-6.907-.577.936-.931 1.683-1.303 2.617-1.487 5.044-.922 9.708.77 13.808 3.768 1.119.75 2.052.938 3.172.941-.743-1.495-1.486-2.991-2.417-4.3-5.956-7.484-15.287-9.374-23.322-6.966-6.353 1.852-11.776 5.012-16.456 10.042-3.557 3.913-5.621 8.202-6.008 13.43-.19 1.68-.57 3.919 1.293 5.79zm64.319 40.301c1.12.003 1.308-.557 1.682-.93 2.808-2.793 5.242-5.588 7.491-8.943 4.872-7.084 6.944-14.36 3.042-22.399-1.3-2.804-2.226-5.98-4.46-8.226-.746-.749-1.117-1.497-2.237-1.873.557 1.308 1.301 2.43 1.858 3.74.373.373.372.747-.003 1.12-.187.186-.56.185-.746-.003-.746-.375-1.492-.75-2.052-.938 7.435 13.835 6.47 26.716-4.575 38.452zm2.75-55.634c-3.547-.196-6.725 1.103-9.9 2.03-2.243.74-3.368 2.605-4.867 4.468-.188.56.184 1.308.556 1.682.56.562.748-.371 1.123-.744.936-1.305 2.246-2.235 3.74-2.605 3.177-.926 6.168-2.412 9.899-.91-.93-1.308-1.114-2.616-.551-3.922zm2.575 16.063c-1.301-2.43-2.415-5.047-5.026-6.547-2.236-1.5-4.289-2.064-6.906-.95 4.477 1.878 8.017 5.06 11.932 7.497zM69.64 27.54c-.384 4.107.54 8.03 1.65 12.14 2.066-4.662-.166-8.402-1.65-12.14zm-5.994 7.454c2.423 1.686 4.471 4.118 5.771 6.922.94-2.798-1.851-6.352-5.77-6.922zm23.148 2.297c-.564 1.306-.379 1.866.553 2.802.002-1.12-.183-1.68-.553-2.802zm-10.657 5.762c.187-.186.373.001.373.001s.187-.186 0-.373l-.373-.001c.187.187 0 .373 0 .373z" fill="#020202" opacity=".1"/></svg><svg fill="none" viewBox="0 0 148 142" id="icon-3" xmlns="http://www.w3.org/2000/svg"><g opacity=".1"><path d="M137.34 41.725c3.088 2.942 4.576 6.856 5.116 10.866.39 1.734-.167 3.563-1.227 4.778-3.458 4.559-7.419 8.503-13.053 10.399-2.919 1.032-5.002 3.088-7.289 5.313-5.187 4.954-10.17 9.74-15.693 14.285-7.94 6.191-16.046 12.177-23.949 17.995-4.053 2.994-7.4 6.433-11.454 9.426-3.848 2.825-8.032 5.24-12.55 7.246-2.548 1.068-4.798 2.92-6.843 4.603-2.213 1.478-4.09 3.366-5.969 5.254-3.551 3.608-7.364 2.291-10.172-1.564-2.474-3.446-3.013-7.456-1.247-11.993 4.108-9.205 8.384-18.206 12.325-27.616 1.692-3.79 3.55-7.376 4.87-11.203 1.153-4.032 3.756-7.544 5.448-11.335 1.691-3.79 3.922-7.34 4.2-12.022.13-3.19.595-5.97-.967-9.139-.8-1.398-.242-3.227.278-4.683 1.729-4.164 4.834-7.062 8.813-9.308 4.593-2.752 9.577-3.77 14.467-5.739 1.562-.6 3.254-.622 4.742-.476 2.231.22 4.5.065 6.769-.088 7.549-.39 15.006-1.73 22.352 1.819 3.942 1.894 8.368 2.706 11.865 5.31 3.496 2.605 7.067 4.463 9.168 7.872zM73.15 64.058c.038-.374.075-.747-.297-.783-.372-.037-.037.373-.074.746-1.264 1.383-1.636 1.347-2.232-.22-.632-1.192-.892-2.348.54-3.526-.782.3-2.158-.966-1.972.937.093.951.856 2.722.075 3.022-1.934.563-.353 1.66-.8 2.37-.65.879-1.431 1.179-2.51.696-.539-.241-.837-1.024-1.376-1.266-.91 3.49.54 4.01 6.193 3.812l-.837-1.025c-.335-.41-.465-.987-.056-1.324.41-.337.781-.3 1.32-.059 2.083 1.712 1.693-.022 1.804-1.141.074-.747.52-1.456.223-2.24zm55.23-.227c-1.655-.35-2.585-2.326-4.482-2.136-.576.132-.669-.82-.632-1.192.223-2.24 1.189-4.405 3.198-5.715 1.227-1.01 2.454-2.02 3.514-3.235 2.975-3.476 5.28-4.003 8.349-2.76l-.893-2.348-.502-.615c-4.854-5.94-10.601-10.462-17.854-13.058a48.923 48.923 0 01-5.43-2.041c-2.864-1.412-6.007-1.91-8.852-1.623-4.165.344-8.256-.058-12.291.864-1.525.227-3.217.25-4.873-.101-.91-.278-2.064-.015-3.05.454-4.852 1.595-9.873 2.986-14.466 5.738-2.993 1.778-5.28 4.003-6.73 7.252-.689 1.251-.633 2.576-.037 4.142 1.06 2.553 1.544 5.238.707 7.982a12.615 12.615 0 00-.371 3.732c.948-.095 1.73-.395 2.175-1.105.651-.878 1.097-1.588 2.25-1.852 2.548-1.068 4.928-2.342 7.606-2.832 3.05-.454 6.508-1.245 9.577-.001 1.822.556 3.775 1.69 5.764 2.45 5.022 2.377 7.123 5.787 6.101 10.397-.427 2.407-1.729 4.163-3.235 6.088-2.156 2.803-4.61 4.823-7.27 7.01-4.704 3.872-9.762 5.636-15.806 4.1-5.132-1.258-8.22-4.199-8.982-9.738-.187-1.902-.782-3.468-1.303-5.78-3.886 6.966-6.655 14.042-9.965 20.877.781-.3.986-.469 1.228-1.01 1.06-1.215 1.952-2.635 3.012-3.85.65-.877 1.877-1.887 2.919-1.031 1.209 1.06 2.362.797 3.72.365 1.152-.263 2.64-.117 4.127.029 2.4.424 4.482 2.136 4.26 4.375-.168 3.563-1.58 6.44-4.276 9-2.083 2.057-4.965 2.716-7.978 2.797-.744-.074-1.525.227-2.305.527-1.562.6-2.641.117-3.645-1.112-1.507-1.844-2.232-3.988-2.177-6.432.205-.168.242-.541-.13-.578-.372-.036-.41.337-.446.71-1.376 2.503-2.38 5.042-3.756 7.545-1.822 3.212-2.398 7.112-4.424 10.493-.688 1.251-2.157 2.802-1.934 4.332.187 1.902-.836 2.744-1.524 3.995-.52 1.456-1.208 2.707-.65 4.646.428 1.361-.093 2.818.707 4.215 1.265 2.385 2.715 2.905 4.724 1.595l1.84-1.515c1.841-1.515 3.552-3.608 5.523-4.545 4.723-2.174 8.144-6.359 12.03-9.557 1.432-1.179 2.529-2.767 3.997-4.318-2.026-.388-3.161-2.195-5.225-2.209-.744-.073-1.246-.688-1.34-1.639-.13-.578.317-1.288.893-1.42 1.692-.022 2.38-1.273 3.57-1.91 1.804-1.141 3.459-.79 4.798.848.837 1.025.893 2.349.949 3.673 3.31-3.066 7.419-4.735 10.729-7.8-.67-.82-1.414-.893-2.27.153-.854 1.047-1.803 1.142-1.617-.724.037-.373-.13-.578-.093-.951-1.693-3.746.166-7.332 4.164-7.881 1.525-.227 2.678-.49 4.203-.718 1.153-.263 2.101-.359 3.18.124 1.246.688 1.134 1.807 1.19 3.132 2.696-2.562 5.56-4.918 8.256-7.48-1.488-.146-2.4-.424-3.44-1.28-1.414-.892-1.172-1.433-.28-2.853 2.808-3.68 7.047-4.772 10.952-6.272.577-.132 1.321-.059 1.451.52.465.987.874.65 1.487.145.819-.673 1.506-1.924 2.492-2.393 2.994-1.778 5.15-4.58 7.605-6.6 1.636-1.347 1.45-3.25-.298-4.552-.54-.241-1.246-.687-1.172-1.434-.056-1.324-1.302-2.012-2.381-2.494-6.471-2.897-13.426-4.711-20.623-5.983-7.736-1.514-15.62-1.535-23.486.142-.781.3-1.6.973-2.232-.22-.465-.987.688-1.251 1.302-1.756.409-.337.985-.468 1.394-.805 2.51-.695 5.188-1.186 7.661-1.508 5.486-.403 10.693.108 16.235 1.03 6.824 1.235 13.24 2.808 19.544 5.5 3.608 1.484 6.807 3.306 8.295 7.22.465.988 1.637 2.422.41 3.432-3.068 2.525-5.299 6.074-8.535 8.394-4.5 3.703-8.832 7.61-13.201 11.892-5.188 4.954-10.17 9.74-15.86 14.08l-5.114 4.208c4.016-2.62 7.865-5.445 11.51-8.102 5.652-3.966 10.598-8.38 16.084-12.55 4.499-3.704 8.497-8.021 13.034-12.097 2.361-2.971 5.355-4.75 8.72-6.492.335.41.539.242.744.073l-.744-.073zm-40.63 10.14c2.826-1.984 4.574-4.45 5.782-7.157 1.171-2.335.725-5.393-1.023-6.695-4.37-3.256-9.392-5.633-15.082-5.062-3.794.381-9.465 2.65-11.213 5.116 1.469-1.551 3.366-1.742 5.263-1.932 1.32-.059 1.86.182 2.324 1.17 2.028 4.156 1.247 8.224-.65 12.183.54.242 1.284.315 1.823.556.911.278 1.581 1.097 1.302 2.012-.688 1.251-.055 2.444.038 3.395.26 1.156.353 2.108-.502 3.154 2.585-1.442 5.802-1.691 8.126-4.289-2.343.9-4.407.886-5.71-1.126-1.636-2.422.614-4.273 1.785-6.608-.985.469-2.194-.592-2.882.66-.242.54-.149 1.492-1.06 1.214s-.837-1.024-.763-1.77c.093-2.817.353-5.43.818-8.21.501-3.154 2.844-4.054 5.54-2.847 1.08.483 1.786.929 2.865 1.412 3.98 1.521 4.333 3.628 1.358 7.104-.446.71-1.97.937-1.673 1.72.632 1.193 1.692-.022 2.436.05.948-.094 1.487.147 1.99.762.502.614.428 1.36-.019 2.07.26 1.156-.185 1.866-.873 3.118zM55.562 86.07c-1.357.431-1.171 2.334-2.194 3.175-1.227 1.01-1.543 2.298-1.859 3.586-.353 1.661.41 3.432 1.414 4.66.837 1.025 2.064.015 3.012-.08 1.32-.059 2.306-.527 3.627-.586.948-.095 1.729-.395 2.51-.695 2.584-1.442 3.588-3.981 4.76-6.316.966-2.165.167-3.563-2.232-3.987-1.655-.351-3.18-.124-4.538.308-.948.095-1.896.19-2.77-.46-.67-.82-1.247-.688-1.73.395zm74.547-26.402c1.171-2.334 4.258-3.162 5.466-5.87.279-.914.725-1.624.223-2.238-.502-.615-1.153.263-1.934.563-2.212 1.479-3.923 3.572-5.466 5.87-.651.877-.688 1.25-.186 1.865.67.82 1.116.11 1.897-.19zM76.241 93.377c1.08.483 2.158.965 3.032 1.617.707.446 1.078.482 1.692-.023 1.432-1.178 2.696-2.561 3.626-4.354-2.715.864-6.156-.416-8.35 2.76zm-8.704-14.421c-1.767-3-1.73-3.373 2.026-7.15-2.436-.05-4.742.477-6.416-1.572.577 3.637.615 7.032 4.39 8.722zm-3.157 35.488c4.556-2.379 7.903-5.818 11.621-9.221-4.518 2.006-8.07 5.613-11.62 9.221zM79.027 61.62l-.41.337c-.278.915-.631 2.576-.26 2.612 1.08.483 2.158.966 3.032 1.617.874.651 2.101-.359 2.957-1.405-2.474.322-4.668-.27-5.32-3.16zm4.704-.103c-3.942-1.894-3.942-1.894-4.797-.848 2.1-.359 2.64-.117 2.752 2.532.279-.915.893-1.42 2.045-1.684zm-14.41 14.6c1.116.11 1.544 1.47 2.604.255.446-.71.149-1.492-.019-1.697-1.283-.315-1.766.768-2.584 1.442zm67.166-18.272c-2.213 1.478-3.347 3.44-4.983 4.786 1.971-.937 3.812-2.452 4.983-4.786zM94.966 80.71c1.525-.227 1.525-.227 3.03-2.152-1.524.227-2.008 1.31-3.03 2.152zm-32.372 25.269c1.283.315 1.785.929 2.436.051.409-.336.279-.914-.26-1.156-.707-.446-.986.469-2.176 1.105zm21.641-32.541c-1.32.059-1.618-.724-2.157-.966-.41.337-.855 1.047-.52 1.456.706.447 1.32-.058 2.677-.49z" fill="#060606"/><path d="M72.734 64.037c.205-.168-.299-.782.074-.745.373.036.336.409.299.781-.205.168-.373-.036-.373-.036zM48.42 92.768c.037-.373.074-.746.446-.71.373.037.335.41.13.578-.204.168-.204.168-.576.132zM128.413 63.626l.745.074c-.205.168-.409.336-.745-.074-.205.168 0 0 0 0z" fill="#FBFBFB"/><path d="M102.312 59.461c2.326-2.596 5.714-2.64 9.399-1.902 1.284.314 2.196.592 2.42 2.12.428 1.36-.223 2.237-1.247 3.078-2.047 1.682-4.392 2.582-7.128 1.749-1.08-.483-2.159-.965-3.35-.329-1.564.6-1.992-.76-2.495-1.374-.67-.819.317-1.287.931-1.791.074-.746.651-.878 1.47-1.55zm2.122 1.338c2.196.592 4.691 1.966 6.644-.666-2.568-.629-4.802-.848-6.644.666zM48.783 107.269c.41-.336.856-1.046 1.563-.6.913.278.634 1.192.596 1.565.02 1.696.41 3.429.43 5.125-.093 2.815-2.14 4.497-4.747 4.241-1.862-.182-2.867-1.41-2.514-3.07.838-2.742 2.625-5.579 4.672-7.261zm-.037 4.138c.205-.168.037-.373.037-.373l-.409.337c-.689 1.25-1.172 2.332-1.489 3.619 2.104-.358 2.346-.899 1.861-3.583z" fill="#060606"/><path d="M48.366 111.371l.409-.336c.372.036.167.205-.037.373-.167-.205-.372-.037-.372-.037z" fill="#FBFBFB"/></g></svg><svg fill="none" viewBox="0 0 122 128" id="icon-4" xmlns="http://www.w3.org/2000/svg"><path d="M23.772 76.886c-4.833-4.866-7.168-11.152-8.353-17.721-1.462-7.711-2.157-15.61.397-23.5 4.82-15.305 20.098-24.3 35.264-20.357 6.487 1.636 12.512 1.368 18.92 1.006 15.975-1.097 28.06 5.218 34.711 20.936 2.15 5.525 1.341 10.565 1.866 16.085.802 6.663 1.129 13.039 2.314 19.607.922 3.809.22 7.613-1.434 10.843-2.923 6.367-5.28 13.4-10.58 18.333-7.325 6.64-14.74 12.899-25.535 11.916-6.21-.493-11.255-2.886-14.846-7.654-2.711 3.893-6.082 6.738-10.496 8.629-3.648 1.702-7.388 3.023-11.298 1.966-3.052-.865-5.813-2.205-7.026-5.539-.185-.762-.753-1.429-1.703-2.003-11.781-8.407-9.17-22.766-3.166-31.503.767-.188 1.058-.663.965-1.044zm40.523 1.353s-.093-.381-.476-.287c.093.38.093.38.476.287-.383.094 0 0 0 0 1.795 2.383 6.273 4.109 10.198 3.55l10.73-2.634c2.3-.565 3.74-1.322 3.769-4.557-1.257 1.519-2.101-.291-3.542.466-3.648 1.702-7.189 2.168-11.113 2.728-3.45.846-6.884.075-10.042.447zm-1.292 16.456a18.725 18.725 0 01-2.91 4.75c-1.256 1.518-1.27 3.136-.042 4.852 3.683 5.149 9.219 6.211 15.152 5.562 8.8-.546 14.683-6.428 20.566-12.31 3.662-3.32 4.854-8.455 7.09-12.635 2.235-4.18 2.661-9.127 1.937-13.791-.986-7.425-2.158-15.61-2.087-23.698.043-4.852-1.355-8.948-3.612-13.236-5.926-11.054-15.45-15.172-27.883-14.542-6.792.457-13.583.913-20.453-.629-13.924-3.845-27.578 5.155-31.233 18.56-3.548 12.169-.873 23.214 4.287 34.456.567.667 1.029 2.572 2.377 1.434 1.349-1.138 3.463-2.464 2.619-4.274-2.072-3.527-2.704-7.81-3.243-11.713-1.065-9.422.063-18.173 7.295-25.193 1.64-1.613 3.08-2.37 5.38-2.934 3.54-.466 7.465-1.026 11.006-1.491 7.175-.55 14.534-.34 21.39 2.82 3.62 1.532 6.565 3.634 10.184 5.167 4.954 2.012 8.743 5.924 9.084 10.682.064 3.616 1.185 6.569 2.399 9.903 1.965 4.762 2.306 9.52.255 14.463-1.071 2.28-1.575 5.228-.93 7.894.462 1.905.355 3.141-.61 4.185-2.604 2.657-4.165 6.268-6.294 9.211-2.13 2.944-4.35 5.507-8.09 6.828-5.366 1.317-9.354-1.74-13.634-4.32zM58.546 79.65c-.553-2.286-1.398-4.096-1.951-6.381-.937-2.191-1.398-4.095-2.335-6.286-1.966-4.763-5.11-6.01-9.815-3.644-4.322 2.271-9.027 4.636-12.121 8.624-2.42 3.418-4.932 6.456-7.352 9.874-4.748 7.218-3.868 15.879.567 22.457 1.32 2.097 3.897 2.675 5.217 4.772 2.072 3.526 4.833 4.866 9.048 3.832 8.431-2.069 13.548-7.764 17.529-14.793 3.492-5.7 2.399-11.887 1.213-18.456zm-1.298-15.418c3.768-4.556 8.012-8.826 11.397-13.288 2.803-3.513 6.557-6.452 8.885-10.251.674-.569 1.64-1.613 1.072-2.28-2.087-1.91-4.94-3.63-7.424-3.828-2.1-.291-2.405 1.801-2.895 3.132-3.414 7.697-7.686 15.202-11.575 22.612-.78 1.806-.887 3.042.54 3.903zm-4.344-6.197c3.08-2.37 3.875-5.793 3.336-9.696-.724-4.664-2.307-9.521-2.647-14.28-.064-3.615-2.073-3.526-4.464-3.342l-1.533.376c-2.009.09-2.207.945-1.746 2.85.83 3.427 1.66 6.855 2.108 10.377.433 5.139.39 9.991 4.946 13.715zm11.533 4.029c7.955-2.356 14.023-7.477 20.843-11.168.674-.57 1.348-1.138.78-1.806-.936-2.19-1.78-4.001-3.1-6.098-.66-1.048-1.612-1.622-2.485-.197-1.455 2.374-3.477 4.081-5.315 6.55-3.478 4.081-7.814 7.97-10.723 12.719zm23.469-5.357c-.263-2.76-1.413-2.477-2.378-1.434-5.961 3.884-11.631 7.294-18.16 10.51-1.441.757-2.79 1.895-4.138 3.033-.674.569-1.731 1.232-1.071 2.28.66 1.049 1.81.767 2.483.198 7.48-2.643 14.393-5.953 20.737-9.932 2.115-1.326 2.896-3.131 2.527-4.655zm-56.74-16.336c-1.56 3.61-1.88 7.32-2.2 11.03-.106 1.237.079 1.999 1.598 3.24 1.994 1.528 4.57 2.106 5.89 4.203 2.271 2.67 4.187 2.2 6.976.306-3.96-6.291-7.92-12.582-12.263-18.78zm13.84 13.55c.255-7.326-.838-13.513-2.697-19.513-.185-.762-.462-1.904-1.611-1.622-1.916.47-3.833.94-4.996 2.84-1.164 1.9-1.086 3.898.142 5.614 2.93 3.72 5.954 7.82 9.162 12.681zm41.97 10.681c-6.437 3.597-13.349 6.908-19.97 9.743 5.826.588 10.993.127 16.556-2.046 4.124-1.415 4.706-2.365 3.414-7.697zM56.964 31.215c.05 5.233 2.398 9.902 2.924 15.422 2.526-4.655 4.194-9.503 6.521-13.302-2.853-1.72-6.01-1.35-9.446-2.12zM85.379 83.15c-7.572 2.262-15.144 4.524-22.936-.826.936 2.19.248 4.377 2.732 4.575 2.96.484 5.628 1.443 8.587 1.927 6.976.305 9.95-.828 11.617-5.676zM64.856 90.61c1.596 3.239 4.648 4.104 7.316 5.063 3.052.865 5.365-1.317 7.204-3.785-4.798 1.984-9.17-.978-14.52-1.279zM29.478 58.538l1.2 4.951c.922 3.809.83 3.428 4.002 1.439 1.731-1.232 2.023-1.707.028-3.235-1.518-1.242-2.945-2.102-5.23-3.155z" fill="#0A0A0A" opacity=".1"/></svg><svg fill="none" viewBox="0 0 27 27" id="refresh" xmlns="http://www.w3.org/2000/svg"><path d="M13.5 25a1 1 0 100 2v-2zm0-23a1 1 0 100-2v2zm8.088 2.423l.276-.962-3.693-1.058 2.708 2.725.71-.705zM5.412 22.577l-.276.962 3.693 1.058-2.708-2.725-.71.705zM25.724 6.65a1 1 0 10.552-1.923l-.552 1.923zM1.276 20.35a1 1 0 00-.552 1.923l.552-1.923zM24.265 13.5c0 6.41-4.876 11.5-10.765 11.5v2c7.106 0 12.765-6.102 12.765-13.5h-2zm-21.53 0C2.735 7.09 7.611 2 13.5 2V0C6.394 0 .735 6.102.735 13.5h2zM20.88 5.128c2.079 2.092 3.386 5.063 3.386 8.372h2c0-3.84-1.518-7.318-3.968-9.782l-1.418 1.41zM6.12 21.872C4.042 19.78 2.735 16.81 2.735 13.5h-2c0 3.84 1.518 7.318 3.967 9.782l1.42-1.41zM21.313 5.384l4.411 1.265.552-1.923-4.412-1.265-.551 1.923zM5.687 21.616l-4.411-1.265-.552 1.923 4.412 1.265.551-1.923z" fill="#fff"/></svg><svg fill="none" viewBox="0 0 36 12" id="submit" xmlns="http://www.w3.org/2000/svg"><path d="M1 9.038a1 1 0 100 2v-2zm32 1v1h2.414l-1.707-1.707-.707.707zM24.707.331a1 1 0 10-1.414 1.414L24.707.331zM1 11.038h32v-2H1v2zm32.707-1.707l-9-9-1.414 1.414 9 9 1.414-1.414z" fill="#fff"/></svg><svg fill="none" viewBox="0 0 14 14" id="tel" xmlns="http://www.w3.org/2000/svg"><path d="M12.877 9.19a7.948 7.948 0 01-2.497-.398c-.39-.134-.87-.011-1.11.234l-1.574 1.188c-1.825-.974-2.95-2.099-3.91-3.91L4.938 4.77c.3-.299.407-.736.278-1.146a7.96 7.96 0 01-.4-2.5C4.818.503 4.315 0 3.695 0h-2.57C.503 0 0 .504 0 1.123 0 8.223 5.776 14 12.877 14c.619 0 1.123-.504 1.123-1.123v-2.564c0-.62-.504-1.124-1.123-1.124z" fill="#fff"/></svg></svg>