<svg width="100" height="23" fill="none" xmlns="http://www.w3.org/2000/svg"><rect x="61" width="39" height="23" rx="3" fill="#4A90E2"/><path d="M2.709 13.248V17H1.358V6.969h2.961c.635 0 1.185.075 1.652.224.471.145.861.352 1.169.623.308.27.537.597.686.98.154.383.231.81.231 1.281 0 .467-.082.894-.245 1.281a2.738 2.738 0 01-.721 1.001c-.313.28-.702.5-1.169.658-.467.154-1.001.231-1.603.231h-1.61zm0-1.078h1.61a3.09 3.09 0 001.022-.154c.299-.103.548-.245.749-.427.2-.187.352-.408.455-.665a2.26 2.26 0 00.154-.847c0-.64-.198-1.139-.595-1.498-.392-.36-.987-.539-1.785-.539h-1.61v4.13zM9.581 17V9.909h.714c.135 0 .228.026.28.077.05.051.086.14.105.266l.084 1.106c.242-.495.54-.88.896-1.155a1.99 1.99 0 011.26-.42c.196 0 .373.023.532.07.158.042.305.103.44.182l-.16.931c-.033.117-.105.175-.217.175-.066 0-.166-.021-.301-.063a1.808 1.808 0 00-.567-.07c-.434 0-.798.126-1.092.378-.29.252-.532.618-.728 1.099V17H9.58zm8.453-7.203c.425 0 .817.072 1.176.217.36.14.67.345.931.616.261.266.464.597.61.994.148.392.223.84.223 1.344 0 .196-.02.327-.063.392-.042.065-.121.098-.238.098h-4.718c.01.448.07.838.182 1.169.112.331.266.609.462.833.196.22.43.385.7.497.27.107.574.161.91.161.313 0 .581-.035.805-.105a4.042 4.042 0 00.994-.469.548.548 0 01.287-.112c.103 0 .182.04.238.119l.35.455a2.42 2.42 0 01-.553.49 3.531 3.531 0 01-.693.336 4.086 4.086 0 01-.756.196 4.41 4.41 0 01-.777.07 3.68 3.68 0 01-1.358-.245 3.075 3.075 0 01-1.07-.728 3.405 3.405 0 01-.7-1.19c-.169-.471-.253-1.013-.253-1.624 0-.495.075-.957.224-1.386.154-.43.373-.8.658-1.113a2.952 2.952 0 011.043-.742c.41-.182.873-.273 1.386-.273zm.028.917c-.602 0-1.076.175-1.42.525-.346.345-.56.826-.645 1.442h3.857c0-.29-.04-.553-.119-.791a1.731 1.731 0 00-.35-.623 1.507 1.507 0 00-.567-.406 1.837 1.837 0 00-.756-.147zM22.57 17V9.909h.742c.177 0 .29.086.336.259l.09.728c.262-.322.554-.586.876-.791a2.085 2.085 0 011.134-.308c.48 0 .868.133 1.162.399.299.266.513.625.644 1.078.098-.257.226-.478.385-.665a2.315 2.315 0 011.183-.728c.229-.056.46-.084.693-.084.373 0 .704.06.994.182.294.117.541.29.742.518.205.229.361.511.469.847.107.331.16.712.16 1.141V17h-1.245v-4.515c0-.555-.122-.975-.364-1.26-.243-.29-.595-.434-1.057-.434-.206 0-.402.037-.588.112-.182.07-.343.175-.483.315-.14.14-.252.317-.336.532-.08.21-.12.455-.12.735V17h-1.245v-4.515c0-.57-.114-.994-.343-1.274-.229-.28-.563-.42-1.001-.42-.308 0-.595.084-.861.252a2.773 2.773 0 00-.721.672V17H22.57zm12.884-7.091V17h-1.246V9.909h1.246zm.28-2.226a.784.784 0 01-.077.343.95.95 0 01-.476.469.85.85 0 01-.343.07.851.851 0 01-.343-.07 1.022 1.022 0 01-.28-.189 1.022 1.022 0 01-.19-.28.852.852 0 01-.07-.343c0-.121.024-.236.07-.343a.88.88 0 01.19-.287.851.851 0 01.623-.266.85.85 0 01.623.266c.084.08.15.175.196.287a.784.784 0 01.077.343zm2.994 2.226v4.522c0 .537.124.952.371 1.246.247.294.62.441 1.12.441.364 0 .707-.086 1.029-.259.322-.173.618-.413.889-.721V9.909h1.246V17h-.742c-.177 0-.29-.086-.336-.259l-.098-.763a3.97 3.97 0 01-1.036.826 2.74 2.74 0 01-1.316.308 2.63 2.63 0 01-1.029-.189 2.076 2.076 0 01-.742-.546 2.343 2.343 0 01-.455-.847 3.865 3.865 0 01-.147-1.099V9.909h1.246zm6.7 7.091V9.909h.742c.178 0 .29.086.336.259l.091.728c.262-.322.553-.586.875-.791a2.085 2.085 0 011.134-.308c.48 0 .868.133 1.162.399.299.266.514.625.644 1.078.098-.257.227-.478.385-.665a2.315 2.315 0 011.183-.728c.229-.056.46-.084.693-.084.374 0 .705.06.994.182.294.117.542.29.742.518.206.229.362.511.47.847.107.331.16.712.16 1.141V17h-1.246v-4.515c0-.555-.121-.975-.364-1.26-.242-.29-.595-.434-1.057-.434-.205 0-.401.037-.588.112-.182.07-.343.175-.483.315-.14.14-.252.317-.336.532a2.06 2.06 0 00-.119.735V17H49.6v-4.515c0-.57-.114-.994-.343-1.274-.228-.28-.562-.42-1-.42-.309 0-.596.084-.862.252a2.773 2.773 0 00-.72.672V17h-1.247zm28.86-2.072a.28.28 0 01.203.091l.532.581c-.41.476-.91.847-1.498 1.113-.583.266-1.288.399-2.114.399-.723 0-1.379-.124-1.967-.371a4.373 4.373 0 01-1.505-1.05 4.786 4.786 0 01-.966-1.624 6.053 6.053 0 01-.343-2.079c0-.756.121-1.449.364-2.079a4.794 4.794 0 011.036-1.624 4.586 4.586 0 011.589-1.05 5.403 5.403 0 012.051-.378c.737 0 1.372.114 1.904.343a4.807 4.807 0 011.428.931l-.441.623a.547.547 0 01-.112.119.328.328 0 01-.182.042.385.385 0 01-.196-.063 31.11 31.11 0 00-.238-.168 5.205 5.205 0 00-.329-.21 2.881 2.881 0 00-.448-.21 3.493 3.493 0 00-.602-.161 3.986 3.986 0 00-.791-.07c-.537 0-1.029.093-1.477.28a3.267 3.267 0 00-1.148.784c-.322.34-.574.756-.756 1.246a4.809 4.809 0 00-.266 1.645c0 .625.089 1.183.266 1.673.182.49.427.905.735 1.246a3.15 3.15 0 001.106.77c.425.177.882.266 1.372.266.299 0 .567-.016.805-.049a3.35 3.35 0 00.658-.168c.205-.075.394-.168.567-.28a4.56 4.56 0 00.532-.413c.08-.07.156-.105.231-.105zM85.055 17h-1.05a.452.452 0 01-.294-.091.56.56 0 01-.168-.231l-.938-2.422h-4.501l-.938 2.422a.547.547 0 01-.168.224.447.447 0 01-.294.098h-1.05l4.011-10.031h1.379L85.055 17zm-6.573-3.724h3.745l-1.575-4.081a7.622 7.622 0 01-.301-.945 13.117 13.117 0 01-.294.952l-1.575 4.074zm9.327-.462V17h-1.351V6.969h2.835c.634 0 1.183.065 1.645.196.462.126.842.31 1.14.553.304.243.528.537.673.882.144.34.217.723.217 1.148 0 .355-.056.686-.168.994a2.632 2.632 0 01-.49.833c-.21.243-.47.45-.777.623a3.793 3.793 0 01-1.036.392c.168.098.317.24.448.427L93.87 17h-1.204c-.248 0-.43-.096-.546-.287l-2.604-3.584a.724.724 0 00-.26-.238c-.093-.051-.233-.077-.42-.077H87.81zm0-.987h1.42c.397 0 .745-.047 1.044-.14.303-.098.555-.233.756-.406a1.7 1.7 0 00.462-.63c.102-.243.154-.511.154-.805 0-.597-.199-1.048-.595-1.351-.392-.303-.978-.455-1.757-.455h-1.484v3.787z" fill="#fff"/></svg>