<svg width="16" height="17" fill="none" xmlns="http://www.w3.org/2000/svg"><path fill-rule="evenodd" clip-rule="evenodd" d="M11.813 11.276l3.944 4.208a.913.913 0 01-.024 1.266.857.857 0 01-1.234-.024l-3.974-4.24a6.505 6.505 0 01-3.834 1.241C3.001 13.727 0 10.648 0 6.864 0 3.079 3.002 0 6.691 0c3.69 0 6.691 3.08 6.691 6.864a6.94 6.94 0 01-1.57 4.412zm-.176-4.412c0-2.798-2.219-5.073-4.946-5.073S1.746 4.066 1.746 6.864c0 2.797 2.218 5.073 4.945 5.073 2.727 0 4.946-2.276 4.946-5.073z" fill="#929EAF"/></svg>