<?xml version="1.0" encoding="utf-8"?><svg viewBox="0 0 24 24" xmlns="http://www.w3.org/2000/svg" xmlns:xlink="http://www.w3.org/1999/xlink"><style>:root>svg{display:none}:root>svg:target{display:block}</style><svg fill="none" viewBox="0 0 24 24" id="cart" xmlns="http://www.w3.org/2000/svg"><path d="M17.89 20.85H6.11a1.42 1.42 0 01-1.38-1.08L2.08 9.16a.7.7 0 01.68-.87h18.48a.7.7 0 01.68.87l-2.65 10.61a1.42 1.42 0 01-1.38 1.08v0zM9.8 3.15L6.9 8.29M13.88 3.15l2.91 5.14" stroke="#151515" stroke-width="2.5" stroke-linecap="round" stroke-linejoin="round"/></svg><svg fill="none" viewBox="0 0 8 5" id="down-arrow" xmlns="http://www.w3.org/2000/svg"><path d="M1.61 1.4l2.055 2.055a.5.5 0 00.705 0l2-2" stroke="#6A983C" stroke-width="1.5" stroke-linecap="round" stroke-linejoin="bevel"/></svg><svg fill="none" viewBox="0 0 10 6" id="down-arrow-bold" xmlns="http://www.w3.org/2000/svg"><path d="M1.813 1.533l2.74 2.74a.667.667 0 00.94 0L8.16 1.607" stroke="#6A983C" stroke-width="2.5" stroke-linecap="round" stroke-linejoin="bevel"/></svg><svg fill="none" viewBox="0 0 7 10" id="right-arrow" xmlns="http://www.w3.org/2000/svg"><path d="M2.033 8.187l2.74-2.74a.667.667 0 000-.94L2.107 1.84"/></svg><svg fill="none" viewBox="0 0 16 16" id="search" xmlns="http://www.w3.org/2000/svg"><path d="M9.193 11.433a4.667 4.667 0 100-9.333 4.667 4.667 0 000 9.333zM5.813 10.24l-3.126 3.127" stroke="#151515" stroke-width="1.5" stroke-linecap="round" stroke-linejoin="bevel"/></svg><svg fill="none" viewBox="0 0 10 16" id="slider-next" xmlns="http://www.w3.org/2000/svg"><path d="M2.066 14.373l5.48-5.48a1.333 1.333 0 000-1.88L2.213 1.68" stroke="#fff" stroke-width="2.5" stroke-linecap="round" stroke-linejoin="bevel"/></svg><svg fill="none" viewBox="0 0 10 16" id="slider-prev" xmlns="http://www.w3.org/2000/svg"><path d="M7.933 1.627l-5.48 5.48a1.333 1.333 0 000 1.88l5.333 5.333" stroke="#fff" stroke-width="2.5" stroke-linecap="round" stroke-linejoin="bevel"/></svg><svg fill="none" viewBox="0 0 24 24" id="user" xmlns="http://www.w3.org/2000/svg"><path d="M3 22l.79-2.88c2.61-9.5 13.81-9.5 16.42 0L21 22" stroke="#151515" stroke-width="2.5" stroke-linecap="round" stroke-linejoin="round"/><path d="M12 11.98a5 5 0 100-10 5 5 0 000 10z" stroke="#151515" stroke-width="2.5" stroke-linecap="round" stroke-linejoin="bevel"/></svg></svg>