<svg width="175" height="147" fill="none" xmlns="http://www.w3.org/2000/svg"><g opacity=".1" fill="#040404"><path d="M141.932 91.522c2.316 2.742.528 5.169-1.545 6.804-1.947 1.368-3.928 1.409-5.926.786l-.268-.127c-2.499.449-3.745-1.783-4.974-3.352-.962-1.44-2.442-2.473-3.797-3.773l-.535-.255c-.785.282-1.981.041-2.624.718.426 1.187 1.246 2.232 2.191 3.01.945.777 1.371 1.963 2.191 3.01.552.917-.45 3.063-1.612 4.149-1.93 2.031-4.179 1.945-6.695 1.73-.928-.113-2.374.182-3.177-.2l-1.07-.509c-1.497-1.696-3.386-3.251-4.633-5.483-.284-.791-.819-1.046-1.371-1.964-.694-1.314-1.497-1.696-2.533-.878-1.037.818-2.09.973-3.285.731 1.354 1.3 2.458 3.137 3.813 4.438 1.355 1.3 1.924 2.882 2.367 4.732.427 1.186-.342 2.132-1.646 2.822-2.875 1.254-5.909 1.449-9.069 1.912-1.446.295-2.533-.878-3.745-1.782-.268-.128-.945-.778-1.748-1.16-.802-.382-1.212-.905-1.496-1.696-1.389-2.627-3.688-4.705-4.559-7.741-1.019 1.481-2.072 1.636-3.41 1-.535-.256-1.338-.638-1.713.167-.251.536.552.918.694 1.314 1.906 2.218 3.688 4.705 5.594 6.924.41.522.678.65 1.087 1.172 1.355 1.301 1.406 3.292.119 4.646-2.967 2.849-6.77 3.99-11.016 3.28-.928-.114-1.213-.905-1.748-1.16-1.622-1.427-3.512-2.982-5.134-4.41-2.425-1.809-3.42-4.578-5.202-7.064-.551-.919-.71-1.978-1.263-2.896-.142-.396-.142-.396-.677-.65-2.8-1.005-4.565-2.828-6.079-5.188-1.781-2.486-4.08-4.564-6.255-6.91-1.89-1.555-3.261-3.519-4.507-5.75-1.782-2.488-3.814-4.438-5.202-7.066-1.246-2.232-2.225-4.336-3.078-6.71-.427-1.186-.854-2.372-1.406-3.29-1.639-2.092-2.618-4.196-2.685-6.851-.193-2.386-1.565-4.35-3.062-6.046-1.639-2.091-3.67-4.042-5.31-6.133-.552-.918-1.48-1.032-2.032-1.95-2.458-3.137-2.418-6.723-1.324-10.464.376-.805.752-1.61.86-2.541.108-.932.752-1.609 1.663-2.159 1.713-.168 3.268-1.395 5.107-1.83 2.624-.718 5.157.16 7.816.769 2.658.61 5.459 1.615 7.884 3.424 1.212.905 2.943 1.4 4.656 1.233 2.374-.181 4.606-.758 6.854-.672 2.642-.054 5.158.16 7.817.77 2.123.355 3.62 2.05 5.242 3.478 1.354 1.3 2.943 1.4 4.673 1.897.535.254.928.114 1.037-.818-.018-.664.5-1.073 1.178-.423l.535.255c1.964-.704 4.088-.35 5.926-.785 1.179-.423 2.25.086 3.32.596l4.012 1.91c.945.777 1.873.89 2.659.61 1.32-.028 2.641-.055 3.82-.477 3.017-.859 5.658-.913 8.476.756 1.873.89 3.996 1.246 5.96.542 3.018-.859 5.551.019 7.44 1.574 2.693 1.937 5.26 4.142 7.309 6.756 1.371 1.964 3.136 3.787 5.151 5.073 2.157 1.683 3.796 3.774 5.435 5.865 2.459 3.137 4.917 6.274 7.769 9.27.409.523.677.65.694 1.314.87 3.036 3.17 5.114 5.344 7.46 1.497 1.695 2.333 3.405 3.437 5.241.142.396.285.791.552.919.928.113.678.65.159 1.059l-.25.536c.535.255.786-.282 1.053-.154.393-.141.786-.282.803.382.142.395-.376.804-.644.677-.802-.382-.785.282-.911.55-1.554 1.227-.484 1.736.336 2.782 1.496 1.695 2.993 3.391 4.365 5.355.962 1.441.728 2.641-.969 3.473-1.964.704-3.928 1.408-5.909 1.448-1.714.168-3.319-.596-4.155-2.305-.837-1.71-2.317-2.741-3.546-4.31-1.104-1.836-2.174-2.346-3.603-1.387zm-48.309-2.995c-.786.281-1.162 1.086-1.68 1.495.786-.282 1.43-.959 1.68-1.495.267.127.393-.141.518-.41-.267-.127-.393.142-.518.41zm39.202-6.911c-1.053.154-1.554 1.227-2.465 1.777.802.382 1.07.51 1.446-.295.25-.537.769-.946 1.019-1.482.268.127.393-.14 0 0 .125-.268.125-.268 0 0zm18.182 3.08c.928.114 1.213.905 1.89 1.555.142.396.677.65.928.114.518-.409.376-.804-.284-.79-.268-.128-.536-.255-.143-.396.894-1.214-.176-1.723-.193-2.386-.911.55-1.696.831-2.198 1.904-.142-.396-.142-.396 0 0-.267-.128-.267-.128 0 0zm-75.674 27.578l.267.127c-.267-.127-.142-.396-.267-.127 1.645-2.823 3.86-4.063 6.895-4.258 1.32-.027 2.499-.45 3.962-.081-1.64-2.092-3.153-4.451-5.185-6.401-.82-1.046-1.64-2.092-2.208-3.674-.552-.918-3.244-2.855-4.03-2.573-1.964.704-4.087.35-5.926.785-.393.141-.786.282-1.304.69-2.181 2.569-2.181 2.569-.65 5.592l.142.395c1.23 1.569 1.673 3.419 2.902 4.987 1.89 1.555 3.387 3.251 5.402 4.538zm38.355-65.99c.267.128.267.128 0 0 .25-.535.501-1.072.484-1.735-.017-.664.234-1.2.769-.946.535.255.409.523.159 1.06-.234 1.2-.342 2.131-.576 3.331-.25.537.285.791.678.65.267.128.392-.14.25-.536l.251-.536c.25-.537-.176-1.723.894-1.214.802.382.034 1.328-.092 1.596-.626 1.34-.342 2.131.871 3.036.25-.536.108-.932.359-1.468-.143-.395-.16-1.06.768-.945.661-.014.285.79.427 1.186-.359 1.468-.843 3.205 1.03 4.096.25-.537.359-1.468.342-2.132.125-.268.108-.932.643-.677.393-.14.41.523.285.79-.126.27.016.664-.234 1.2-.877 1.878-.701 3.6.528 5.17.234-1.2.61-2.005.843-3.205.251-.537.251-.537.644-.677.66-.014.802.382.552.918-.501 1.072-.2 2.527-1.361 3.613l-.126.268c.41.523.569 1.582 1.372 1.964.159 1.06.962 1.441 1.906 2.219.234-1.2.735-2.273.969-3.473.251-.536.376-.804.643-.677.661-.013.41.523.285.791-.109.932-.217 1.864-.718 2.936-.501 1.073-.342 2.132.603 2.91 0 0-.126.268.267.127l.126-.268c.375-.805.609-2.005.985-2.81.125-.267.108-.93.643-.676.536.254.41.523.16 1.059-.376.804-.359 1.468-.735 2.272-.251.537-.501 1.073-.484 1.737.836 1.709 2.065 3.277 3.169 5.114.092-1.596.451-3.064 1.077-4.404.126-.269.109-.932.644-.677.535.254.409.522.159 1.059-.359 1.468-.593 2.668-1.219 4.008-.376.805-.359 1.469.067 2.655.61-2.004 1.487-3.881 2.239-5.49.125-.269-.159-1.06.376-.805s.677.65.426 1.187c-.751 1.608-1.236 3.345-1.987 4.954-.894 1.213-.217 1.863.335 2.782.142.395.41.522.803.382l.25-.537c.484-1.736.826-3.868 1.311-5.604l.877-1.877c.125-.268.518-.41.785-.282.536.255.143.396-.108.932l-.626 1.34c-.61 2.005-.952 4.137-1.436 5.873-.251.537-.501 1.073-.359 1.468.677.65.836 1.71 1.639 2.092.802.382.945.777.962 1.44.392-.14.518-.408.643-.677.627-1.34.986-2.808 1.612-4.15.251-.535.501-1.072 1.304-.69.535.255.017.664-.234 1.2l-.125.268c-.752 1.61-.826 3.868-2.381 5.095 0 0-.393.141-.125.268.677.65.176 1.723.853 2.373.678.65.427 1.187-.484 1.737.945.777 1.856.227 2.784.341.928.114 1.446-.295 1.019-1.482l-.125.269c-.125.268-.644.677-.911.55-.268-.128-.017-.664.108-.932.376-.805 1.145-1.75 1.521-2.555.125-.268.376-.804.911-.55.535.255.552.919.159 1.06-.125.268-.518.409-.109.931l3.485-3.258c.518-.409 1.036-.818 1.446-.295.82 1.045 1.196.24 1.446-.295.518-.41 1.037-.818 1.697-.832-1.639-2.091-3.404-3.914-5.043-6.005-1.354-1.3-1.405-3.292-2.76-4.592-2.726-3.264-5.452-6.528-8.053-10.06-1.639-2.092-3.546-4.31-5.828-5.724-1.48-1.033-2.835-2.333-3.939-4.17-.694-1.313-1.781-2.486-3.119-3.123-.802-.382-1.622-1.427-2.299-2.077-2.584-2.87-6.187-4.256-9.706-2.325.928.114.82 1.046 1.497 1.696l.125-.268c.251-.537.501-1.073 1.037-.818.535.254.016.663.159 1.059-.393.14-.376.804-.359 1.468zm7.318 38.23c.159 1.059.051 1.99.21 3.05l.268.127 3.007-6.436c1.605.764-.359 1.468.193 2.387.786-.282 1.162-1.086 1.697-.832.535.255.66-.013 1.053-.154.769-.946 1.805-1.763 2.448-2.44.393-.141.376-.805.911-.55.41.522-.108.931-.233 1.2-.644.677-1.555 1.227-2.324 2.172l-.125.268.268.127c.535.255.785-.281.911-.55.768-.945 1.679-1.495 2.323-2.172.518-.409 1.304-.69 1.463.369-.126.268.142.395.267.127.126-.268.518-.409.251-.536-.268-.128-.41-.523-.41-.523-1.212-.905-2.032-1.95-2.601-3.532-.978-2.105-1.564-4.35-2.936-6.315-1.371-1.964-2.35-4.068-3.847-5.764-2.174-2.346-3.688-4.705-4.951-7.601-.569-1.582-1.531-3.023-2.618-4.196-2.174-2.346-4.081-4.565-5.344-7.46-.444-1.85-1.673-3.419-3.922-3.505-.66.013-1.07-.51-1.605-.764-1.07-.51-2.265-.75-3.319-.597-2.248-.086-4.338.886-6.57 1.463 2.818 1.669 4.474 4.423 6.13 7.178.217-1.863.844-3.204 1.738-4.417.125-.269.375-.805.911-.55.535.254.284.79.033 1.327l-1.503 3.218c-.894 1.213-.593 2.668.227 3.714.552.918 1.246 2.232 2.066 3.277.142.396.694 1.314 1.212.905.393-.14.643-.677.626-1.34l1.253-2.682c.126-.268.376-.805.911-.55s.017.663-.108.932c-.251.536-.359 1.468-.61 2.004-.501 1.073-1.002 2.145-1.913 2.695.41.523.82 1.046 1.104 1.837.376-.805.359-1.468.61-2.005.376-.804.609-2.004 1.253-2.681.125-.268.518-.41.785-.282.268.127.143.395.017.664l-1.879 4.022c-.251.536-.518.41-1.179.423.678.65.837 1.709 1.639 2.09.894-1.213.861-2.54 1.487-3.88.125-.269.108-.933.643-.678.536.255.41.523.427 1.187-.108.931-.342 2.131-1.111 3.077-.768.945-.484 1.736.461 2.513.626-1.34.985-2.809 1.612-4.15.125-.267.108-.931.643-.677.535.255.41.523.285.791-.376.805-.484 1.737-.86 2.541-1.412 1.623-.844 3.205.244 4.378.267.127.142.395.142.395.552.918.836 1.71 1.906 2.219.712 1.977 1.69 4.082 3.312 5.51.82 1.045 1.213.904 2.107-.31l1.128-2.413c.125-.268.643-.677.911-.55.535.255.284.791.159 1.06-.502 1.072-1.003 2.145-1.914 2.695-1.429.958-1.002 2.145-.45 3.063.427 1.187.586 2.246.87 3.037.034 1.327-.074 2.259.21 3.05zm-43.422-39.35c-.125.269-.125.269.142.396 1.765 1.823 2.618 4.196 3.864 6.428 1.247 2.232 2.1 4.605 3.079 6.71.427 1.186 1.639 2.091 2.066 3.277.978 2.105 1.815 3.814 3.186 5.778l1.23 1.569c1.656 2.755 3.437 5.241 5.486 7.855 2.459 3.137 5.578 6.26 5.821 10.638.143.395.16 1.059.82 1.046.66-.014.41.522-.108.931-.911.55-1.805 1.764-2.716 2.313-.911.55.034 1.328-.217 1.864-.125.268.552.918.945.778 1.588.1 3.176.2 4.463-1.154-1.622-1.428-1.622-1.428-3.176-.2-.126.267-.393.14-.519.408-.392.141-.518.41-1.053.154-.409-.522-.017-.663.376-.804 1.179-.422 1.128-2.413 2.574-2.709a4.098 4.098 0 011.128-2.413c.125-.268.25-.536-.017-.664-.535-.254-.41-.522-.285-.79l1.504-3.219c.125-.268.108-.931.643-.677.535.255.285.791.159 1.06-.376.804-.751 1.608-.985 2.808.911-.55 1.429-.959 2.072-1.636.393-.14.519-.409 1.054-.154.409.523.535.255.928.114.518-.41 1.161-1.086 1.947-1.368.393-.14.911-.55 1.053-.154.677.65 1.195.24 1.714-.168.392-.141.785-.282.927.114.143.395-.25.536-.375.804-.911.55-1.822 1.1-2.466 1.777.535.254 1.053-.154 1.179-.423.911-.55 1.554-1.227 2.59-2.045.393-.14.644-.677 1.179-.422.535.254-.251.536-.108.932.392-.141.91-.55 1.303-.691.393-.14.518-.409.376-.805-.301-1.454-.745-3.304-1.046-4.759-.769.946-1.429.96-1.179.423.359-1.468-.853-2.373-1.405-3.291-2.225-4.337-4.701-8.138-7.444-12.066-1.388-2.627-3.17-5.114-4.951-7.6-1.514-2.36-2.777-5.256-4.29-7.615-2.476-3.8-5.453-6.528-9.466-8.438-2.408-1.146-4.782-.965-7.423-.91-1.053.154-1.84.435-2.767.322-1.32.027-2.391-.483-3.553.603-.125.269-.66.014-1.32.027-.393.141-1.196-.24-1.998-.623.82 1.046 1.104 1.837 1.781 2.487.962 1.441 1.924 2.882 3.278 4.182zm-23.96-6.813c-.125.268-.125.268 0 0 .143.395.268.127 0 0l1.128-2.413c.125-.269.501-1.073 1.036-.819.536.255.285.791.034 1.328-.5 1.072-.86 2.54-1.093 3.74l1.002-2.145c.125-.268.518-.409.786-.281.267.127.142.395.017.663-.376.805-.36 1.468-.735 2.273-.627 1.34-.627 1.34.71 1.977.092-1.595.451-3.063 1.345-4.277.126-.268.25-.536.518-.409.268.127.41.523.285.791-.25.536-.627 1.341-.61 2.005-.108.931-.61 2.004-.45 3.063l.376-.804c.25-.537-.051-1.991.877-1.877.803.382.034 1.327-.075 2.259-.108.931-.375.804.57 1.582-.035-1.328 1.002-2.146 1.236-3.346.25-.536.108-.931.643-.677.535.255.677.65.427 1.187-.502 1.072-.878 1.877-1.111 3.077-.376.804-.752 1.609.193 2.386l.142.396.125-.269c.376-.804.36-1.468.735-2.272.126-.268.25-.536.786-.282.535.255.142.396.284.791-.376.805-.358 1.468-.734 2.273-.376.804-.234 1.2.176 1.722.376-.804.216-1.863.985-2.808.125-.269.376-.805.911-.55.535.254.285.79.16 1.059-.502 1.072-.468 2.4-.97 3.472-.25.537-.233 1.2.57 1.582.376-.804.484-1.736.86-2.54.125-.268.25-.537.643-.677.66-.014.41.522.552.918-.376.804-.359 1.468-.734 2.272-.502 1.073-.735 2.273.477 3.178.501-1.073.61-2.005 1.11-3.077.126-.269.251-.537.786-.282.268.127.41.523.285.79-.25.537-.627 1.342-.61 2.005-.359 1.468-.592 2.669.102 3.982l.267.128.126-.269c.233-1.2.342-2.131.843-3.204.125-.268-.017-.664.376-.805.66-.013.802.383.552.919-.108.932-.484 1.736-.467 2.4.159 1.059-1.003 2.145.084 3.318-.125.268.142.395.41.523.393-.141.125-.268-.017-.664-.034-1.327.058-2.923.684-4.263.25-.537.501-1.073 1.304-.691.535.255.017.664-.234 1.2a8.084 8.084 0 00-.525 5.322c.376-.804.627-1.34.735-2.272.126-.268.376-.805.911-.55s.142.396.285.791c-.25.536-.109.932-.36 1.468-.358 1.468-1.377 2.95-.416 4.391 0 0-.125.268.142.395l.126-.268.7-3.6c.126-.268.377-.804 1.037-.817.66-.014.017.663.285.79.284.791-.092 1.596-.468 2.4-.108.932-.61 2.005-.057 2.923.125-.268.376-.804.5-1.073-.141-.395-.016-.663.251-.536.268.127.536.255.678.65.142.396.017.664-.109.932-.233 1.2-.86 2.54-.29 4.123l-.126.268.125-.268-.267-.127c.518-.41.376-.805.5-1.073.11-.932.218-1.864.861-2.54.125-.27.108-.933.643-.678.536.255.41.523.427 1.186-.234 1.2-.325 2.796-.559 3.996-.108.931-.091 1.595.319 2.118.518-.409.108-.932.233-1.2.126-.268.251-.536.519-.409.267.127.142.395.284.791-.108.932-.342 2.132-.45 3.064-.234 1.2.05 1.99.995 2.768.092-1.596-1.012-3.432.667-4.927.126-.268.109-.932.911-.55.535.255.285.79.16 1.06-.894 1.213-.735 2.272-.701 3.599.159 1.06.318 2.118-.183 3.19-.126.269.017.665.284.792.501-1.073.61-2.005.843-3.205.126-.268-.017-.663.376-.804.268.127.535.255.678.65-.109.932.176 1.723.067 2.655-.626 1.34-.592 2.668.102 3.981.142.396-.769.946.301 1.455.627-1.34 1.253-2.681 1.612-4.15.25-.536.502-1.072 1.037-.818.66-.013.016.664.159 1.06-.075 2.259-1.737 4.417-.617 6.918l-.25.536c-.125.268-.393.14-.66.013-.41-.522-1.213-.904-1.623-1.427-1.07-.51-1.89-1.555-2.19-3.01-.729-2.64-1.85-5.14-3.096-7.373-1.798-3.15-3.079-6.71-4.751-10.128-1.247-2.232-1.85-5.142-3.489-7.233-1.087-1.173-1.656-2.755-2.35-4.068-2.208-3.674-3.898-7.756-6.499-11.288-.41-.523-.82-1.046-1.087-1.173-1.212-.905-2.425-1.81-3.119-3.123-1.388-2.628-3.437-5.242-5.218-7.729-1.247-2.232-2.317-2.74-3.387-3.25-2.96-2.064-6.028-3.197-9.614-3.92-2.391-.482-4.782-.965-7.39.417-.91.55-1.696.831-2.607 1.38-1.964.705-2.34 1.51-2.415 3.769.518-.41.501-1.073 1.02-1.482-.143-.395.375-.804.518-.409.142.396.017.664-.109.932-.894 1.213-1.52 2.554-2.147 3.895-.626 1.34-.325 2.795-.023 4.25.5-1.073.484-1.736.592-2.668.2-2.527 1.487-3.882 3.434-5.25.393-.14.518-.409.928.114.41.523.017.664-.376.805-1.036.818-1.002 2.145-1.629 3.486-.125.268-.108.932-.233 1.2-.735 2.272-.81 4.532.955 6.355 0 0 .142.395.267.127l-.142-.396c-.301-1.454-.21-3.05.149-4.518s.576-3.331 2.005-4.29c.393-.141.643-.677 1.053-.155.142.396.017.664-.376.805-1.913 2.695-2.239 5.49-1.368 8.527.16 1.059-.108.932-1.036.818.802.382.82 1.045 1.622 1.427-.017-.663-.16-1.059.091-1.595.092-1.595.183-3.19 1.345-4.277.125-.268.5-1.073.91-.55.536.255.017.664-.233 1.2-.877 1.877-1.094 3.74-.776 5.86.752-1.61 1.236-3.346 1.72-5.083.126-.268.377-.804.644-.677.535.255.285.791.16 1.06-.485 1.736-.97 3.472-1.453 5.208-.234 1.2-.342 2.132.995 2.769-.46-2.514.275-4.787.742-7.187.233-1.2 1.02-1.481 1.93-2.031.393-.14.786-.282.928.114.142.395.017.663-.376.804-.518.41-.91.55-.894 1.214-1.361 3.613-1.937 6.945-.122 10.759l.502-1.073c.592-2.668 2.13-4.559 4.202-6.194.393-.141.518-.41 1.053-.155.142.396.017.664-.376.805-.25.536-.643.677-1.161 1.086-1.68 1.495-2.557 3.372-2.899 5.504-.108.932-.359 1.468-.467 2.4-.376.804-.234 1.2.443 1.85l.251-.536c.359-1.469 1.11-3.078 1.737-4.418.25-.537.644-.678.911-.55.535.255.285.79.16 1.059l-.752 1.609c-.752 1.609-1.379 2.95-1.328 4.94l.25-.536c.451-3.063 2.916-4.84 4.58-6.999.124-.268.643-.677.785-.282.535.255.017.664-.108.932-.502 1.073-1.27 2.018-2.307 2.836-2.323 2.172-2.113 5.223-2.17 8.145.375-.804.484-1.736.734-2.272.485-1.737 1.504-3.218 2.256-4.827.25-.537.769-.946 1.304-.69.802.381-.109.931-.234 1.2-1.788 2.426-2.506 5.362-3.224 8.299-.125.268-.376.804.034 1.327.376-.805.484-1.736.593-2.668.325-2.796 1.72-5.082 3.257-6.972.518-.41.894-1.214 1.304-.691.677.65-.233 1.2-.484 1.736a14.415 14.415 0 00-3.007 6.436c-.234 1.2.335 2.782-1.362 3.613l.143.396c.284.79.569 1.582 1.12 2.5l.251-.536c-.068-2.655 1.328-4.94 2.455-7.354.25-.537.77-.946 1.162-1.086.125-.269.518-.41.66-.014.268.127.142.395.017.664-.643.677-.894 1.213-1.27 2.018-1.002 2.145-1.88 4.022-2.221 6.154.017.663-.234 1.2.05 1.99 1.39 2.628 3.814 4.438 5.202 7.065.41.523.427 1.187 1.23 1.569.108-.932.216-1.864.2-2.527-.177-1.723.308-3.46 1.06-5.069.25-.536.375-.804.91-.55.535.255.017.664.16 1.06-.61 2.004-.827 3.868-1.044 5.731.017.664.444 1.85-.734 2.273-.393.14-.126.268-.126.268.962 1.441 1.924 2.882 3.53 3.646-.336-2.781.399-5.054 1.526-7.468.126-.268.376-.804.911-.55.268.128.41.523.16 1.06l-.752 1.609c-.877 1.877-.952 4.136-.633 6.254.159 1.06 1.622 1.428 2.174 2.346.267.127.267.127.41.523 0 0-.126.268.267.127l.125-.268c-.46-2.514-.118-4.645 1.01-7.059.25-.536.09-1.595.893-1.213.535.254.16 1.059-.091 1.595-.735 2.273-1.202 4.673-.742 7.186.143.396-.376.805.034 1.328 1.372 1.963 3.01 4.055 5.151 5.073.535.255.928.114 1.179-.422 1.019-1.482 2.306-2.836 3.593-4.19.769-.946 1.68-1.496 2.716-2.314.392-.14.785-.281.928.114.41.523-.251.536-.376.805-.786.281-1.43.959-2.198 1.904.928.114 1.713-.168 2.232-.577 1.161-1.086 2.465-1.777 3.501-2.595.393-.14.911-.55 1.053-.154.143.395.143.395.535.254.393-.14.644-.677 1.179-.422.393-.14.66-.014.803.382.142.395-.251.536-.644.677-.928-.114-1.304.69-1.822 1.1-.125.268-.785.281-.376.804.268.127.945.778 1.196.241.125-.268.376-.804.769-.945.643-.677 1.019-1.482 1.804-1.763.519-.41.786-.282 1.196.24.142.396.284.792-.108.933-1.589-.1-2.073 1.636-3.11 2.454 1.07.509 2.016 1.286 2.693 1.936.41.523.803.383 1.07.51 1.588.1 1.588.1 3-1.522-.534-.255-.785.281-1.303.69-.393.141-.644.677-.786.282-.41-.523-.017-.664.376-.805.518-.408 1.162-1.086.877-1.877l.25-.536c.912-.55 1.02-1.482 1.663-2.159.77-.945 1.538-1.89 2.574-2.708.393-.141.911-.55 1.321-.027.41.522.017.663-.501 1.072-.535-.254-1.304.69-2.056 2.3.786-.282 1.446-.295 1.822-1.1.501-1.072 1.27-2.018 2.306-2.836.519-.409 1.145-1.75 2.232-.577 0 0 .393-.14.518-.409.393-.14.644-.677 1.036-.818.393-.14.644-.677 1.054-.154.535.255.017.664-.109.932-.267-.127-.393.14-.518.409.142.395.393-.141.393-.141.393-.14.91-.55 1.304-.69.393-.142.91-.55 1.053-.155.41.523-.376.804-.769.945-.91.55-1.947 1.368-2.59 2.045 1.337.637 1.07.51 2.106-.308 1.036-.818 2.198-1.904 3.234-2.722.393-.141.911-.55 1.053-.155.41.523-.376.805-.768.945-1.304.691-2.34 1.51-3.11 2.454.268.128.536.255.661-.013 1.304-.69 2.323-2.172 3.502-2.595l.125-.268c-.427-1.186-.193-2.386-1.012-3.432-2.76-4.592-6.557-8.365-9.317-12.957-1.514-2.359-3.546-4.31-4.274-6.95-.284-.791-.569-1.582-1.246-2.232-1.23-1.569-2.066-3.278-2.902-4.987-.854-2.373-1.958-4.21-3.204-6.442-1.798-3.15-3.722-6.032-5.913-9.042-2.191-3.01-4.775-5.878-8.503-6.997-3.069-1.132-6.496-.797-9.672-.997-1.446.295-1.965.704-1.772 3.09-.108.932.695 1.314 1.104 1.837zm53.362 66.369c-.552-.918-.711-1.977-1.388-2.627-1.765-1.823-3.404-3.915-5.168-5.738-1.497-1.695-2.6-3.532-5.26-4.142-1.855-.227-3.318-.596-4.89-.032-1.57.563-2.858 1.918-4.571 2.085.82 1.046 1.639 2.091 1.923 2.882.996 2.769 3.028 4.719 4.416 7.347.285.791 1.087 1.173 1.623 1.427.535.255.643-.677 1.036-.818 2.716-2.313 5.34-3.03 8.676-1.771 1.07.51 2.015 1.287 3.603 1.387zm-1.392-13.118c.803.382 1.48 1.032 2.283 1.414 2.157 1.682 3.278 4.182 4.792 6.542.142.395.284.791.802.382 3.126-1.79 6.252-3.581 10.231-2.998-.41-.523-.945-.778-1.087-1.173-1.639-2.092-2.493-4.465-4.65-6.147-2.567-2.205-6.404-2.392-9.404-.87-1.304.691-1.93 2.032-2.967 2.85zm35.62 2.856c-.285-.79-.695-1.313-1.104-1.836a36.568 36.568 0 00-3.671-4.042c-1.087-1.173-2.425-1.81-3.763-2.446-2.14-1.019-4.389-1.105-6.729.403-1.429.96-1.646 2.823-.291 4.123 1.89 1.555 3.779 3.11 5.151 5.074.552.918 1.212.905 2.123.355 2.716-2.313 5.324-3.695 8.284-1.63zm17.454.44c-.41-.523-.552-.918-1.087-1.173-.678-.65-1.355-1.3-1.782-2.486-.426-1.187-.995-2.769-2.726-3.265-.267-.127-.535-.254-.677-.65-2.032-1.95-5.744-2.405-8.084-.897-.125.268-.393.141-.25.536 0 0 .017.664.267.128.126-.268.376-.805.268.127.017.664.034 1.328.443 1.85.695 1.314 1.907 2.219 2.994 3.392.677.65 1.212.905 2.123.355.519-.41 1.446-.296 1.982-.04 2.14 1.018 4.138 1.64 6.529 2.123zm-72.16 15.155c-2.265-.751-4.372-.442-6.604.135-1.053.154-2.089.972-2.59 2.045-.752 1.609-.342 2.132 1.12 2.5 3.32.596 5.802-.517 8.392-2.562 1.555-1.227 1.287-1.354-.318-2.118zm27.925-8.672c.427 1.186 1.23 1.568 2.283 1.414 1.588.1 2.909.073 4.229.046 1.714-.168 2.876-1.254 3.895-2.736.376-.804.108-.931-.427-1.186-2.943-1.4-5.676.249-8.158 1.362-.786.282-.894 1.214-1.822 1.1zm-8.324 5.216l-2.943-1.4c-2.407-1.146-4.781-.965-6.98.94-.392.14-.91.549-.5 1.072.142.396.552.918 1.212.905 2.909.073 5.801-.517 9.211-1.517zm28.034-9.603c1.48 1.032 4.246.71 5.801-.517.518-.41.376-.805-.034-1.328-1.873-.891-4.89-.033-5.767 1.845zm-14.867-12.976c-1.036.818-1.68 1.495-2.716 2.313.677.65 1.48 1.032 1.89 1.555.677.65 1.07.51 1.178-.422.108-.932-.051-1.991-.352-3.446zm36.249 12.007c-1.338-.637-2.801-1.005-4.121-.978-.393.14-.928-.114-.911.55-.126.268.284.79.552.918.535.254 1.07.51 1.856.228.518-.41 1.571-.564 2.624-.718zm-57.337-4.67c1.748 1.16 2.232-.577 3.143-1.127.393-.14.25-.536.108-.931-.142-.396-.535-.255-.66.013-.911.55-1.68 1.495-2.59 2.045zm22.419-1.787c.853 2.373 2.123.355 3.051.469-.82-1.046-2.249-.087-3.051-.469zm12.001-6.088c.661-.014.82 1.045 1.196.24.251-.536.769-.945.894-1.213.125-.268.518-.409.251-.536-.143-.396-.536-.255-.661.013-.643.678-1.161 1.087-1.68 1.496zm1.48 1.032l.803.382c.535.254.786-.282 1.036-.818.126-.268-.017-.664-.284-.791-.535-.255-.661.013-.786.281.142.396-.25.537-.769.946zm-16.919-.185c-.643.677-1.554 1.227-2.197 1.904l.267.127c.644-.677 1.554-1.227 1.93-2.031zM72.752 94c1.32-.027 1.697-.831 2.073-1.636-.644.677-1.162 1.086-2.073 1.636zm2.59-2.045s-.125.268 0 0l-.125.268.126-.268c.142.396-.126.268 0 0zM115.738 48.9s-.126.268 0 0c-.126.268-.126.268 0 0-.126.268 0 0 0 0zm-84.578-.261s-.393.14 0 0c-.393.14-.126.268 0 0-.126.268-.126.268 0 0-.126.268-.126.268 0 0zM49.35 83.19s-.142-.395 0 0c-.142-.395-.267-.127 0 0-.267-.127-.267-.127 0 0z"/><path d="M119.082 84.207c.16 1.056.589 2.238.354 3.434-.11.928-.504 1.068-1.185.42-.681-.648-1.218-.902-1.899-1.55.916-.547 1.689-1.489 2.73-2.303zm31.569.565c.646-.676 1.434-.956 2.08-1.631.285.788 1.359 1.297.319 2.112-.126.268.142.395.142.395.663-.013.806.38.286.789-.52.407-.789.28-.931-.114-.411-.522-.822-1.043-1.896-1.551.269.127 0 0 0 0zm-52.714 6.583c.917-.548 1.69-1.489 2.607-2.036.126-.267.522-.407.665-.013.143.394.412.52-.11.928-.916.547-1.404 2.276-3.162 1.12zm22.414-1.6c1.196.241 2.358-.844 3.053.469-.929-.114-2.199 1.903-3.053-.469zm12.078-5.955c.522-.406 1.171-1.08 1.693-1.486.126-.267.522-.407.666-.013.269.127.143.393-.253.533-.252.534-.775.94-.901 1.207-.379.8-.935-.114-1.205-.24zm.509-1.742c-.252.534-.774.94-.901 1.207-.378.8-.918.547-1.457.293.648-.673 1.027-1.473 2.358-1.5-.269-.126 0 0 0 0zm.955 2.779c.395-.14.52-.407.915-.547.394-.14.377-.802.789-.28.269.127.412.521.286.788s-.378.802-1.041.815c-.143-.395-.412-.522-.949-.776zm-16.898-.339c-.506 1.066-1.3 1.345-1.951 2.018l-.27-.126c.777-.94 1.3-1.346 2.221-1.892zm-44.505 9.27c.92-.546 1.443-.953 2.092-1.626-.38.8-.759 1.6-2.093 1.626zm20.925-5.285c-.38.8-.904 1.206-1.699 1.485.65-.673 1.03-1.472 1.699-1.485zM69.453 61.454c-.126.267.412.521.018.661 0 0-.269-.127-.412-.522.269.128.269.128.394-.14z"/><path d="M93.417 88.49c-.145-.393.126-.266.252-.533.144.394.144.394-.252.533zm1.044-.807s-.253.533-.396.14c.126-.267.126-.267.396-.14.126-.267 0 0 0 0zm-19.358 4.065c-.127.266.146.394 0 0l-.127.266.127-.266c-.127.266 0 0 0 0zM54.39 38.404s-.125.268 0 0c-.393.141-.393.141 0 0-.267-.127-.267-.127 0 0zm7.245 9.417l-.126.266s-.273-.127.126-.266c-.272-.127 0 0 0 0zM72.03 66.966l-.128.267c-.394.143-.267-.125.127-.267-.394.142 0 0 0 0zm60.642 14.975c.126-.268.126-.268 0 0 .394-.141.268.127 0 0 .268.127 0 0 0 0zm-18.253-35.423l-.127.268c-.267-.126-.267-.126.127-.268-.394.142-.394.142 0 0zm-46.711 12.45c.142.395.142.395 0 0 .142.395-.126.268 0 0-.126.268-.126.268 0 0zm83.09 26.183c-.268-.126-.268-.126 0 0-.142-.394-.142-.394 0 0-.142-.394.126-.267 0 0zM31.544 48.32c-.126.265-.126.265 0 0-.126.265-.126.265 0 0-.126.265-.398.138 0 0-.398.138 0 0 0 0zm17.714 34.502c-.269-.128-.269-.128 0 0-.269-.128-.144-.395 0 0-.144-.395 0 0 0 0zm78.198-17.19l-.127.267c-.394.142-.267-.125.127-.267-.394.142-.394.142 0 0zM56.876 90.78s-.126.268 0 0c-.394.141-.394.141 0 0-.268-.127-.268-.127 0 0zm71.459-7.336s-.124.266 0 0c-.269-.128-.269-.128 0 0zm-68.68 7.048c.362-1.46 1.391-2.933 1.754-4.393.126-.266.11-.926.65-.673s.413.52.287.787c-.38.8-.363 1.46-.742 2.26-.76 1.6-.852 3.186-.675 4.9.144.392.431 1.179-.236 1.192-.793.28-.413-.52-.557-.913-.16-1.053-.194-2.373-1.275-2.88-.27-.126-.413-.52-.557-.913-.574-1.573 1.07-5.04 2.514-5.993.396-.14.523-.406 1.063-.153.143.393.017.66-.11.926-1.552 1.88-2.04 3.607-2.116 5.853zm-7.498-15.089c.508-1.065 1.016-2.13 1.94-2.676.4-.14.925-.547 1.07-.154.416.519.017.659-.237 1.191-1.941 2.677-2.67 5.592-2.854 8.76.145.393.162 1.052-.508 1.065-.67.014-.96-.771-.705-1.304.202-2.509.277-4.751 1.294-6.882zm-4.648-3.24c1.017-2.13 2.467-3.082 3.375-4.287.127-.267.398-.14.67-.014s.416.518.29.785c-.382.798-.908 1.205-1.29 2.003-1.687 2.144-2.56 4.667-2.49 7.302-.127.266.017.659-.254.533-.4.14-.67.013-.815-.38-.416-.518-.307-1.443-.052-1.975-.18-1.71.456-3.042.566-3.967zm1.622-9.42c.418.518.29.784-.237 1.19-1.439 1.61-2.331 3.473-3.352 5.602-.51 1.064-.747 2.254-.985 3.445-.127.266.018.658-.655.672-.273-.126-.418-.518-.29-.784.439-3.697 1.824-7.282 4.718-9.845.128-.266.528-.406.801-.28zm-2.444 7.047c.381-.8.364-1.458 1.29-2.004.4-.14.527-.406.672-.014.272.126.145.392.017.658-1.545 2.536-2.419 5.058-2.748 7.832-.127.266.018.658-.654.672-.272-.126-.544-.252-.417-.518-.162-1.051-.053-1.976.33-2.774.636-1.331.873-2.522 1.51-3.853zM67.46 91.959c-.652.673-.889 1.865-1.811 2.411-.525.407-.922.547-.905 1.206-.127.266-.254.533-.652.673-.27-.127-.415-.52-.288-.786.237-1.192.617-1.991.854-3.184l.634-1.332.254-.533c.397-.14.541.253.415.52.017.659.415.519.668-.014.127-.266.11-.926.652-.673.685.646.703 1.305.178 1.712zm-11.002-11.2c.399-.14.509-1.065 1.035-1.472.399-.14.526-.406.67-.013.273.126.146.392.018.658-1.29 2.004-2.307 4.134-2.11 6.502l-.254.533c-.4.14-.544-.253-.417-.519-.434-1.177-.07-2.635.168-3.826l.89-1.863zm8.836 7.534c-.763 1.597-2.069 2.942-2.017 4.919-.127.266-.127.266-.525.406-.272-.126-.544-.252-.416-.519-.307-1.444.057-2.901.837-3.84.254-.533.907-1.205 1.433-1.612.127-.266.653-.672 1.196-.42.543.253.018.66-.11.925-.271-.126-.398.14-.398.14zM79.38 95.14c-.27-.127-.414-.52-.288-.787.777-.94 1.824-1.753 2.6-2.693.127-.266.397-.14.668-.013.27.126.143.393.016.66-.776.94-1.553 1.88-2.473 2.426-.253.533-.524.406-.524.406zm20.435-32.083c.036 1.317-.474 2.38-.857 3.179-.62 1.988-1.513 3.85-2.406 5.713-.127.266-.382.798-.928.547-.545-.252-.017-.659-.163-1.05.748-2.255 1.768-4.383 2.516-6.638.382-.798.91-1.204 1.838-1.75zm-1.938 12.188c.638-1.33 1.003-2.787 1.768-4.384.383-.798.638-1.33 1.566-1.876.127-.266.527-.406.8-.28s.145.392.018.658c-1.438 1.61-1.931 3.333-2.55 5.321-.256.532-.51 1.064-.911 1.204-.4.14-.4.14-.673.015-.673.014-.545-.252-.018-.659zm-4.945-15.532c-.365 1.457-1.129 3.053-1.494 4.51-.127.266-.11.925-.782.939-.544-.253-.017-.659-.162-1.05.33-2.774 1.348-4.903 2.495-7.298.127-.266.382-.799.8-.28.545.252.417.518.162 1.05l-1.019 2.13zm11.2 18.872l-1.532 3.192c-.127.266-.383.798-.929.546s-.017-.658.11-.924c.621-1.988 1.368-4.242 2.808-5.852.127-.266.51-1.064.929-.547.546.252.017.658-.238 1.19l-1.148 2.395zm-2.345.165c-.127.266-.382.798-.925.546-.271-.127-.017-.66-.161-1.052.618-1.99 1.363-4.247 1.709-6.363.254-.533.381-.8.924-.546.544.252.018.658.162 1.05-.346 2.117-1.091 4.374-1.709 6.364zm-6.213-10.881c-.255.532-.382.798-.654.672s-.544-.252-.417-.518c.347-2.116.966-4.105 1.984-6.235.127-.266.654-.672.926-.546.544.252.018.658-.11.925-.619 1.99-1.237 3.978-1.73 5.702zM84.325 47.016c-.51 1.064-1.147 2.395-1.112 3.711-.127.266.018.659-.382.799s-.417-.519-.29-.785c.075-2.24.966-4.104 2.13-5.84.128-.267.528-.407.8-.28.273.125.145.392.018.658-.655.672-.91 1.204-1.164 1.736zm9.512 19.025c-.127.267-.254.533-.653.673-.271-.126-.415-.519-.415-.519.346-2.117.692-4.233 1.582-6.098.127-.266.254-.532.525-.406.543.253.29.785.162 1.052-.508 1.065-.745 2.256-.982 3.448.018.659.035 1.318-.219 1.85zm-5.44-11.158c-.383.798-.765 1.596-1.547 2.535-.128.266-.255.532-.528.406-.272-.126-.145-.392-.017-.658.492-1.723 1.53-3.194 1.894-4.65.127-.266.4-.14.527-.407.273.127.418.519.29.785.018.658-.637 1.33-.62 1.989zm-2.486-5.77c.128-.267.527-.407.654-.673l.4-.14c.272.126.145.392.145.392-.62 1.99-1.383 3.587-2.002 5.576-.128.266-.128.266-.527.406-.272-.126-.545-.252-.417-.518.11-.925.492-1.723.474-2.382.51-1.064 1.163-1.737 1.273-2.661zm-7.934-3.856c.364-1.457.873-2.522 1.509-3.853.127-.267.381-.8.78-.94.4-.14.4-.14.671-.013.272.126.145.392.017.659-.635 1.33-1.398 2.928-1.763 4.386-.653.672-.942-.113-1.214-.239zm28.561 36.464c-.782.939-1.291 2.003-1.801 3.068-.127.266-.382.798-.654.672-.545-.252-.417-.518-.163-1.05l1.656-3.46c.255-.532.51-1.065 1.054-.813.69.645.163 1.05-.092 1.583zM80.844 44.03c.382-.799.636-1.331 1.29-2.004.398-.14.526-.406.67-.014.272.127.145.393.018.66-.908 1.204-1.816 2.409-1.636 4.119-.128.266-.255.532-.527.406-.399.14-.543-.252-.416-.519-.29-.784.22-1.85.601-2.648zm9.563 13.471l-.892 1.863c-.128.266-.255.532-.528.406-.273-.127-.145-.393-.018-.659.237-1.19.874-2.52 1.512-3.85.127-.267.254-.533.527-.407.273.126.145.392.29.785.019.658-.636 1.33-.891 1.862zm13.002-5.161c.765-1.597 1.257-3.32 2.149-5.183.127-.266.382-.798.927-.546.544.252.29.784.162 1.05-.637 1.33-1.001 2.787-2.038 4.258-.255.532-.655.673-1.2.42zm3.705-.193l-.89 1.864c-.127.266-.255.532-.798.28-.272-.126-.145-.392-.29-.785.636-1.33 1.001-2.788 1.637-4.12.127-.266.381-.798.925-.546.272.127.289.785.162 1.051-.11.925-.364 1.458-.746 2.256zm15.51 26.876l-.382.798c-.127.266-.382.798-.799.28-.545-.253-.018-.659.109-.925.509-1.064.746-2.255 1.128-3.053.255-.533.509-1.065.782-.939.545.253.29.785.035 1.317-.382.799-.763 1.597-.873 2.522zm-19.437-34.356c-.38.8-.76 1.599-1.412 2.271-.127.267-.253.533-.795.28-.271-.126-.144-.393-.288-.785.507-1.066.617-1.992 1.124-3.058.254-.533.651-.673.922-.546.542.253.288.785.035 1.318.541.253.414.52.414.52zm17.639 40.065l1.913-3.99c.127-.267.255-.533.527-.407.273.126.419.518.291.784-.637 1.33-1.147 2.395-2.058 3.599.146.392-.273-.126-.673.014zm-6.235-14.843c.364-1.458.855-3.182 1.219-4.64.127-.266.254-.532.653-.672.271.126.416.519.288.785-.363 1.458-.727 2.915-1.363 4.247.017.659-.526.406-.797.28zm-.574-4.226c-.127.266-.255.533-.653.673-.127.266-.399.14-.399.14-.272-.127-.272-.127-.144-.393.364-1.457.872-2.523 1.236-3.98.127-.267.653-.673.924-.547.544.253.018.66-.109.925-.237 1.192-.347 2.117-.855 3.182zm4.993 3.11c.541.252.685.645.829 1.038-.363 1.46-.87 2.525-.963 4.11-.126.267.018.66-.651.673-.271-.126-.415-.52-.288-.786-.178-1.711.583-3.31 1.073-5.035zm-1.74-2.487c.541.253.956.772.703 1.305-.237 1.192-.617 1.992-.854 3.184-.126.266-.253.533-.524.406-.542-.253-.144-.393-.288-.785.236-1.193.6-2.651.963-4.11zm22.739 19.524c-.127.266-.11.924-.654.672-.545-.252-.29-.784-.163-1.05.22-1.85.984-3.446 1.876-5.31.127-.265.382-.798.926-.546.545.253.018.659-.11.925-.491 1.723-.983 3.446-1.875 5.309zm-2.859-6.965c-.526.407-.491 1.724-1.306 1.345-.815-.378-.035-1.317.219-1.85.509-1.065.746-2.256.983-3.447l.381-.799c.128-.266.526-.406.798-.28.272.127.145.393.018.659-.237 1.191-.33 2.775-1.093 4.372zm-13.43-17.647c.092-1.584 1.127-3.055 1.491-4.512.127-.267.399-.14.399-.14.272.126.544.252.416.518-.364 1.458-.728 2.915-1.635 4.12-.128.266-.399.14-.671.014z"/></g></svg>