<svg width="198" height="150" fill="none" xmlns="http://www.w3.org/2000/svg"><path d="M10.755 139.813c-1.93 0-3.585-.275-5.24-.551a5.33 5.33 0 01-2.482-1.379c-.827-.827-.827-1.93-.275-3.309 1.103-2.206 2.206-4.137 3.585-6.067-1.655-.276-2.758-.552-4.137-.827-1.103-.276-1.654-1.103-1.379-2.206.552-2.207.828-4.413 1.93-6.343.552-.827.828-1.655 1.38-2.482.551-1.103 1.103-2.206 2.206-2.758.827-.551.827-.827 0-1.378-1.103-.552-1.93-1.379-3.034-1.931-.827-.551-.827-1.103-.551-1.93.551-1.103.827-2.482 1.93-3.861-1.103 0-1.93 0-2.758-.276-1.378-.551-1.93-.827-1.93-2.206.276-3.033.276-6.342 1.379-9.376.827-1.93 1.654-4.136 2.482-6.067 1.103-1.93 2.757-3.033 4.412-4.412 2.758-2.758 6.343-4.136 10.203-4.688 1.93-.552 4.137-.552 6.343 0 3.033.551 6.343.827 9.376 1.655 1.103.275 2.206.551 3.585.827.551.276.827-.276 1.103-.552 1.379-2.757 4.136-4.963 6.067-7.445.551-.828 1.379-1.655 1.654-2.482.552-1.379 1.655-2.206 2.482-3.31.552-.55 1.103-1.103 1.655-1.93a6.443 6.443 0 011.93-1.93c1.38-1.379 3.31-1.655 4.688-3.31 2.206-2.481 5.516-3.584 7.997-5.515 4.137-2.757 8.55-5.515 12.686-8.548 1.93-1.38 4.136-3.034 6.067-4.413 3.033-2.206 6.618-3.585 10.203-4.688 3.31-.827 6.343-1.654 9.652-2.206 7.17-.827 13.788-3.309 20.682-4.412 3.861-.552 7.722-1.103 11.307-1.379 2.206-.276 4.412-.827 6.894-1.379.827-.275.276-1.103.827-1.378.552-.276.827.827 1.379.275.551-.827 1.379-1.379 1.93-2.206 1.103-1.103 1.931-2.482 3.309-3.31 1.655-.826 3.034-2.205 4.137-3.584a8.405 8.405 0 012.206-2.206c3.309-2.206 5.24-5.515 7.17-8.825C165.184 3.31 167.39 1.93 169.32 0h.828c3.309 1.379 6.894 1.655 10.203 3.033 1.655.828 2.758 1.655 3.861 3.31 1.103 1.654 2.482 3.033 3.86 4.412 2.482 2.206 4.413 4.688 6.067 7.446.552 1.103 1.379 1.93 2.206 3.033 1.103 1.93 1.379 4.136 1.655 6.067 0 .827-.552 1.654-.827 2.206-.276.827-1.103 1.379-1.379 2.206 0 .276-.276.276-.552.276-1.93 0-3.033 1.103-4.136 2.482l-.552.551c-3.309 1.655-5.791 4.413-8.824 6.619-4.964 3.585-9.376 7.997-14.34 11.858-2.758 2.206-5.24 4.412-7.997 6.618-1.103.827-1.931 2.482-2.758 3.585-2.206 3.585-4.688 6.894-7.446 9.652-1.93 1.93-4.412 3.585-6.618 5.24-3.309 2.205-6.894 3.584-10.755 4.412-1.93.551-3.585 1.378-5.239 2.206-3.034 1.379-6.343 1.654-9.652 2.482-5.516 1.378-11.031 3.309-16.822 4.963-1.93.552-3.86 1.655-5.515 2.758-.552.276-1.38.552-1.93.827-2.758.828-4.964 2.758-7.17 4.413l-5.792 4.136-.827.827c-.827.552-1.379 1.103-2.482 1.379-1.379.552-3.033 1.103-4.136 1.931-1.103.551-1.93 1.103-3.034 1.654-.275 0-.551 0-.551.276-3.585 2.758-8.273 4.136-11.858 6.894-1.103.827-2.482 1.103-3.585 1.93-.552.552-1.103 1.103-1.103 1.931 0 4.136-1.103 7.721-2.758 11.306-1.103 2.482-2.206 4.964-4.136 6.894-1.93 2.206-3.861 4.137-6.619 5.24-1.93.827-3.86 2.206-6.067 2.758-4.412 1.103-8.824 1.654-13.236 1.103-2.206-.276-4.137-.552-6.067-1.379-1.38-.552-2.206-1.379-3.31-2.206-.551-.552-.275-1.379-.275-1.931.276-1.103.827-2.206 1.103-3.585zm94.312-50.19s-.276 0-.276.277l.276-.276c2.758-.276 5.239-1.655 7.721-2.206 3.585-.828 7.446-1.655 11.031-2.482 1.103-.276 1.93-.552 2.758-1.379-2.482.276-4.964.827-7.446 1.379-4.688 1.103-9.376 2.758-14.064 4.136v.552zm-34.747.552s.276 0 0 0c0-.275 0-.275 0 0-3.309 1.38-6.342 3.585-9.376 5.24-1.654.827-3.309 1.93-4.964 2.758-3.309 1.654-6.066 3.86-9.375 5.515-1.93.827-3.31 2.482-5.516 3.033-.551.276-.827 0-1.379-.275-1.654-.828-3.309-1.931-4.964-2.206-2.206-.276-4.136-.552-6.342-.276-3.31.276-6.343.827-9.376 2.206-4.137 1.93-7.722 4.688-11.03 7.997-.828.552-1.655 1.103-2.207 1.93-1.655 2.758-3.033 5.792-3.585 9.101 0 .551 0 .827.552.827 1.378.552 2.757.827 4.412.827 1.103 0 1.655.828.827 1.655-1.379 2.206-3.033 4.136-3.86 6.618-.552 1.379-.552 1.931.827 2.482.551.276 1.103.552 1.654.552 1.655.276 3.31.276 4.964.276 1.103 0 1.379.551.827 1.378-.827 1.103-.827 2.482-1.378 3.861-.276.276 0 .827.275 1.103.828.552 1.655 1.103 2.482 1.379 1.103.552 2.482.552 3.585.827 3.861.828 7.446.552 11.307 0 3.86-.551 6.894-2.482 10.203-4.136.827-.552 1.655-.828 2.482-1.655 2.482-2.482 4.688-5.239 6.067-8.549 1.654-3.585 3.033-7.445 3.033-11.306 0-.551 0-.827-.551-1.103-.276 0-.552-.276-.552-.552 0-.551.276-.551.552-.827.827-.276 1.654-.551 2.206-.827 2.757-1.655 5.24-3.309 8.273-4.688l9.1-4.964c2.758-1.379 5.24-2.758 7.722-4.412 1.378-.828 2.757-2.206 4.688-3.309h-.828c-3.86 1.378-7.721 1.103-11.582.827-1.93-.276-3.31-1.655-3.31-3.585 0-1.379.552-2.758 1.38-3.86 1.103-1.38 2.206-2.483 2.757-3.862zm116.925-55.153v.276s.276 0 0-.276c.552 0 1.103 0 .827-.551-.551-1.103 0-.827.552-.827.827 0 1.379 0 .827-1.104v-.275c.828-1.103.828-2.207.828-3.31.275-1.103.275-1.93.551-3.033 0-.552.276-1.103.827-.827.828 0 .552.551.552 1.103 0 .551 0 .827-.276 1.379-.276 1.103-.551 2.481-.551 3.86.827-.827 1.93-1.103 1.93-2.206 0-1.379.552-2.482.552-3.86 0-.552.275-1.104 1.103-.828 1.103 0 .827.552.827.828-.276 1.103-.276 2.206-.552 3.309 1.655-.552 1.655-1.38 1.379-3.31-.551-3.033-2.206-5.24-3.861-7.445-.827-1.103-1.378-2.482-2.206-3.31-2.206-2.206-4.688-4.412-6.618-6.894-1.655-1.93-3.309-3.309-5.515-3.86-2.207-.828-4.688-1.103-6.895-1.93-1.103-.276-1.654 0-1.93.827s-.551 1.103-1.103 1.378c-1.103.552-1.655 1.38-2.482 2.482-1.93 3.034-4.136 6.067-6.342 8.825-1.931 2.206-4.137 4.136-6.343 5.791a31.73 31.73 0 00-4.688 3.86l-.276.276c-.551 1.38-1.654 1.93-2.758 2.758-1.654 1.103-3.584 1.103-5.239 1.379-3.861.827-7.722 1.655-11.582 1.93-3.585.276-6.894.828-10.204 1.93-2.206.828-4.688 1.38-6.894 1.38-2.206 0-4.136.551-6.342.827l-4.137.827c-2.206.276-4.688.552-6.618 1.93-2.206 1.38-4.688 1.655-6.894 3.585-1.655 1.38-3.585 2.758-5.791 3.861-.552.276-.828.552-1.38.828-.827 1.103-1.93 1.654-3.308 2.206-1.655.551-2.758 1.654-3.861 2.757-.276.276-.276.552-.828.552-3.033 1.654-5.515 3.86-8.548 5.24-2.758 1.378-4.688 3.584-7.446 5.239-1.655.827-2.482 2.482-3.86 3.585-.828.551-1.38 1.103-1.655 1.93-1.103 2.482-3.31 4.137-5.24 6.067-1.379 1.655-3.309 3.31-4.688 5.515 7.997-2.206 15.995-3.309 22.337-8.548 0 0-.276-.276-.551-.276-.276-.276-.552-.552-.276-1.103.276-.276.551-.276 1.103 0 .276 0 .552.276.552.276.827 1.103 2.206.827 3.033.275 3.86-1.93 8.273-3.033 12.134-5.24 1.103-.55 1.378-.826.275-1.654-.551-.276-1.379-.551-.827-1.379.552-.827 1.103 0 1.93 0 .276 0 .276 0 .552.276.827.552 1.655.552 2.482.552 2.206 0 4.412-.828 6.343-1.93 2.481-1.104 4.963-2.483 7.72-2.758-.826-.276-1.102-1.103-1.93-1.38-.275 0-.827-.275-.827-.827.276-.551.828-.551 1.38-.275 2.481 1.103 4.411 2.757 5.514 5.24.276.827.276 1.378.276 2.205-.551 1.655-1.103 3.585-1.93 5.24-.276.552-.552.827-.828 1.103-1.93 1.655-4.412 2.482-6.066 4.688 0 .276-.276.276-.552.276-3.585 2.482-6.618 5.515-10.203 7.721-1.93 1.103-3.585 2.758-5.516 3.861-1.93 1.103-3.309 2.482-4.412 4.136 0 0-.276.276 0 .276 0 .276.276 0 .276 0 1.379-1.379 3.033-1.654 4.964-2.206a1.758 1.758 0 011.654 0c2.482 1.379 4.413 3.31 4.964 6.343.276.827 0 1.379-.827 1.93-.552.276-.827.552-1.379.827-2.206 1.38-4.412 2.482-6.894 3.31 2.482 0 4.964-.828 7.446-1.38 3.309-.827 6.342-3.033 9.651-4.136 1.103-.551 2.482-1.103 3.585-1.93 3.31-1.93 6.067-4.412 10.204-5.24 3.033-.551 6.067-1.93 9.1-2.757 3.861-1.103 7.721-2.206 11.858-2.758 3.033-.276 5.791-.276 8.824-1.379 4.964-1.93 9.101-4.688 12.961-8.273 3.861-3.585 6.343-7.997 9.376-12.41.828-1.102 1.104-3.033 3.034-2.757l.276-.276c.551-2.206.827-4.412 1.654-6.618 0-.276-.276-.827.276-.827s.552.551.552.827c0 1.654-.552 3.31-.828 4.964 1.103-.828 1.931-1.38 2.206-3.034 0-2.206.552-4.412.552-6.618 0-.552.276-.827.827-.827.552 0 .828.551.828 1.103-.276 2.206-.276 4.412-.828 6.618v.276h.276c.827-.828 2.206-1.379 2.206-2.758.276-2.206.552-4.688 1.103-6.894 0-.551.276-.827.552-1.103.275 0 .551 0 .827.276.276.551.276.827 0 1.379-.552 1.93-.827 3.86-1.103 5.79 0 0 .276 0 .276.276.827-.551 1.654-1.103 1.93-2.481a43.935 43.935 0 011.655-8.273c0-.552.275-1.104.827-.828.551 0 .551.552.276 1.103-.276.276-.276.828-.276 1.103-.276 1.93-.827 4.137-1.103 6.343a6.515 6.515 0 002.482-2.206c.276-.276.827-.552.827-1.379.276-1.103.276-2.206.552-3.31.275-1.654.551-3.584.827-5.239 0-.551.276-1.103.827-.827.552.276.552.827.552 1.103-.828 2.206-.828 4.688-1.379 7.17-.276.276-.276.276 0 .551 0 .276.276 0 .276-.275.551-.276 1.103-.828 1.654-1.103 1.103-.552 1.655-1.655 1.655-2.758s.276-2.482.551-3.585c.276-.827.552-1.379.276-2.206 0-.827 0-1.379.552-1.93.275-.276.551-.276.551 0 .552.551.552 1.378.276 1.93-.276 1.93-.552 3.585-1.103 5.515 0 .276-.276.276 0 .552h.276c.551-.552 1.103-.828 1.93-1.38.276-.275.552-.275.552-.826.275-2.482.551-5.24 1.103-7.722 0-.551.275-1.103.827-1.103.551 0 .551.827.551 1.379-.827 1.379-1.378 3.31-1.93 5.515zM21.51 78.87c-3.034-.276-5.791.552-8.273 1.93-2.758 1.38-4.964 3.585-7.17 5.516l-.276.276c-2.482 4.136-4.136 8.548-4.136 13.512 0 3.033 0 3.033 2.757 3.033 1.655 0 2.206 1.104 1.38 2.482-.552.828-.828 1.931-1.38 2.758-.276.552 0 .552.276 1.103.827 1.103 2.482 1.379 3.585 2.206.276.276.552 0 .552-.276 2.481-3.033 6.066-4.963 9.651-6.618 5.791-2.482 11.582-3.033 17.925-1.93 1.103.275 2.758 0 3.585.827 1.103.827 1.103.276 1.655-.552.275-.275.275-.551.275-1.103 0-2.206 1.655-3.309 3.31-4.136 3.309-1.655 6.618-3.034 9.927-4.412 3.034-1.103 6.343-1.93 9.1-3.585 1.103-.828 1.93-1.655 3.31-2.206 2.757-1.103 5.24-2.207 7.721-3.585 4.137-2.206 7.997-4.964 11.858-7.722 1.655-1.379 2.758-3.309 4.688-4.136 1.655-.828 2.758-2.206 4.412-3.034 1.38-.551 2.758-1.654 3.31-3.309.275-.827.827-1.93 1.103-2.758.551-1.378 0-3.584-1.103-4.688 0 0-.276-.275-.552-.275-1.93.275-3.86.827-5.24 1.93-1.93 1.379-3.86 2.482-6.066 3.585-3.585 1.93-7.446 3.31-11.307 4.412-3.309 1.103-6.342 2.758-9.652 3.585-2.481.828-4.963 1.93-7.17 3.034-2.206 1.103-4.136 1.93-6.342 2.481-3.585.828-6.894 1.93-10.48 3.034-.827.276-1.378.551-2.205.827-1.38 1.103-2.482 1.103-3.861-.276l-.276-.275c-4.964-.276-9.928-1.103-14.891-1.655zm49.362 21.51c.827.551.827-.552 1.379-.828 3.585-.827 6.618-2.481 9.651-4.412.276-.275.552-.551.276-1.103-.275-1.93-1.654-3.309-3.033-4.412-.827-.827-2.206-1.103-3.034-.552-1.378 1.103-2.757 2.206-4.412 3.31-1.379 1.103-2.206 2.757-3.585 3.585-.551.551-.827 1.654-.551 2.481.275.828.827 1.38 1.379 1.38.551.275 1.103.275 1.93.551zm-26.75 2.482c2.207-2.206 4.689-3.034 6.895-4.413h-.552c-2.206.552-3.86 2.207-6.067 2.758-.551.276-.275.827-.275 1.655zm11.858-7.17c-1.103.276-1.93.551-2.481 1.654.827-.551 1.654-.827 2.481-1.654zm113.892-45.777c0-.276 0-.276 0 0 0-.276 0 0 0 0zM51.568 98.448s0-.275 0 0c-.276-.275-.276 0 0 0-.276 0-.276 0 0 0z" fill="#0A0A0A" opacity=".1"/></svg>