<svg width="192" height="149" fill="none" xmlns="http://www.w3.org/2000/svg"><g opacity=".1" fill="#040404"><path d="M97.987 61.577c-1.472-1.977-3.636-2.561-6.09-2.853-1.576-.024-2.974.465-4.313 1.125-1.339.66-1.974 1.648-2.785 2.698-.636.989-1.447 2.039-1.848 3.138-.458 1.5-.915 3.002-.38 4.54.179.512.242 1.256.42 1.769l-.174.06c-.885-1.414-2.465-2.011-3.35-3.427-.885-1.415-2.294-2.647-4.398-3.06-2.168-1.159-4.5-.535-6.712.43-3.26 1.332-6.637 2.895-9.072 5.472-.87.879-1.331 1.807-1.733 2.905-.227 1.038-.688 1.965-.565 2.88.06.171-.171.635-.052.977l-.116.232c-.234-.11-.583.012-.702-.33-.647-.731-1.06-1.353-1.707-2.085-.88-.842-1.877-1.452-2.874-2.061-2.751-1.146-5.212-2.585-7.964-3.73-.702-.33-1.346-.488-2.164-.585-.643-.159-1.862.843-2.208 1.538-.867 1.453-1.09 3.064-1.897 4.688-.636.988-.453 2.074-.62 3.283-.105 1.952-.444 3.795-.314 5.858.13 2.062.026 4.015.506 5.955l.238.683c.356 1.025.241 1.257-.867 1.453-1.283.257-2.506.684-3.73 1.112l-10.135 3.544c-1.223.428-2.446.856-3.73 1.113-.758.073-1.163.598-1.862.843-2.038.904-4.31 1.698-6.406 2.432-.35.122-.64.415-.993-.037-.06-.17-.234-.109-.41-.048-.813.476-1.27 1.978-.973 2.832.237.683.59 1.134 1.003 1.756.12.342.294.281.644.159.93-.708 1.862-.843 2.97-1.039 1.108-.196 2.391-.453 3.44-.819.35-.123.699-.245 1.163-.599.231-.464.99-.537 1.398-.489.878.268 1.692-.208 2.391-.453a67.256 67.256 0 007.86-3.323c3.027-1.442 6.176-1.968 9.262-3.239.35-.122.584-.012.644.159.119.341.412.622.647.732.059.17.234.11.118.341-.635.99.246 1.83.658 2.453 1.357 2.208 2.655 4.245 4.127 6.222.825 1.244 2.056 1.964 3.402 2.451 2.048.817 4.212 1.401 6.376 1.986.644.158.993.036 1.339-.66.747-1.794 1.904-3.54 2.885-5.224.346-.696.517-1.331.863-2.027.517-1.33 1.153-2.319 1.845-3.71.345-.696.866-1.453.569-2.307-.06-.171.115-.232-.06-.171-.762-.5-.65-1.306-.539-2.111.294.28.528.39.647.732 1.357 2.208 3.461 2.622 5.912 2.34.933-.135 2.1-.16 3.034-.294 3.442-.246 6.826-.663 10.21-1.08.933-.134 1.922-.672 2.796-.977.174-.061.464-.354.405-.525-.06-.171-.12-.342.115-.232.993.036 1.104-.77 1.51-1.294 1.677-2.503 2.774-4.42 2.815-7.117 2.933 2.232 6.324 2.963 10.05 1.277 3.785-1.516 5.752-4.311 6.604-8.058.765 1.073 1.182 2.27 1.713 3.233.179.513.357 1.025.885 1.415.588.561 1.406.659 2.339.524 3.554-1.052 7.228-1.761 10.723-2.983.699-.245 1.164-.599 1.688-.782.814-.477 1.982-.502 2.387-1.026.695-.819 1.74-1.759 1.324-2.955l-.238-.683c1.06 1.354 1.944 2.77 3.119 3.892.941 1.012 2.346 1.67 3.462 2.622.234.11.468.22.762.5.885 1.415 2.87 1.487 4.736 1.218 1.343-.086 2.388-1.027 3.258-1.906.405-.525.401-1.098.398-1.672-.48-1.94-.844-4.112-1.324-6.052-.36-1.599-.895-3.136-1.081-4.796-.063-.744-.067-1.318-.13-2.062-.011-1.72-.022-3.442.257-5.455.825 1.244 1.65 2.488 2.591 3.5 1.881 2.026 4.108 3.355 6.915 4.098.644.158.822.67 1.465.829 1.87.304 3.796.206 5.722.107 2.451-.282 5.02-.222 7.526-.907 1.398-.489 2.859-.233 4.197-.893a4.62 4.62 0 012.098-.733c.583-.013.81-1.05.806-1.624-.301-1.427-1.531-2.147-2.122-3.282-1.595-2.891-4.179-5.245-5.309-8.49-.179-.513-.647-.733-1-1.184-.353-.451-.472-.793.342-1.27.874-.305 1.807-.44 2.502-1.258.465-.354 1.049-.366 1.573-.55 1.223-.427 2.391-.452 3.439-.819 2.737-1.148 5.414-2.468 8.329-3.104 1.807-.44 2.792-1.551 3.953-2.723.174-.061.29-.293.405-.525.405-.525.402-1.099-.357-1.025-1.461-.256-2.922-.511-4.439-.364-.584.013-.755.647-1.279.83-3.261 1.332-6.466 2.261-9.668 3.764-1.048.367-2.331.624-3.379.99-1.049.367-1.982.502-2.971 1.04-1.279.83-1.923.671-2.629-.231-2.353-2.818-5.056-5.514-7.119-8.625-.413-.622-.941-1.012-1.469-1.403-1.469-1.402-2.762-2.866-3.941-4.562a3.92 3.92 0 00-1.349-1.06c-.528-.391-.644-.16-.874.305-1.205 3.295-3.053 6.433-3.615 9.887-.056.402-.111.805-.874.305-1.524-1-3.104-1.597-4.915-1.73-.584.012-.238-.684-.122-.916.345-.695.517-1.33.453-2.075.112-.805-.185-1.66-.483-2.513-.119-.342-.178-.513-.762-.5-.584.012-1.227-.146-1.751.037-.524.184-.874.306-.636.99.297.853.42 1.769.543 2.684.119.341.063.744.007 1.147.007 1.147-.513 1.904-1.911 2.393-3.265.758-5.645 2.931-7.671 5.556-.521.757-1.101 1.343-1.387 2.21-.231.464-.231.464-.699.244-2.052-1.39-4.391-1.913-6.789-2.608-.409-.049-.933.135-1.342.086-.759.074-1.752.038-2.451.282-1.457.318-2.621.917-4.078 1.235-1.633.379-3.146 1.1-4.544 1.589-1.632.379-2.034 1.477-2.55 2.808-.343 1.269-.51 2.477-.269 3.734l.357 1.025c.004.574-.108 1.38.13 2.063zm48.087-21.223c-.115.232-.055.403-.171.635-.044 2.123-.323 4.137-.193 6.2-.045 2.123.025 4.015.33 6.016.119.342.532.964.067 1.318-.465.354-.056.403.063.744.06.171.234.11.353.452.182 1.086.889 1.988 1.595 2.891.465-.354.346-.696-.123-.915-.234-.11-.293-.28-.353-.451-1.003-1.757-1.074-3.649-1.319-5.48-.364-2.171-.204-4.527-.16-6.65.045-2.124.09-4.247 1.012-6.103.234.11.294.28.179.513-.287.867-.573 1.733-.625 2.71-.112.805.185 1.659.074 2.465-.101 2.526.557 4.978.806 7.382.305 2.002 1.249 3.588 2.193 5.174a8.668 8.668 0 001.354 1.634c1.409 1.232 3.164 1.768 4.919 2.304 2.632.805 5.435.974 8.239 1.143.818.098 1.636.195 2.167 1.159-.643-.159-.755.647-1.338.66-1.168.024-2.276.22-3.268.184-1.811-.133-3.741-.608-5.611-.912a13.577 13.577 0 01-5.209-2.011c-.821-.671-1.584-1.171-2.405-1.842.063.744.357 1.025.71 1.476 1.524 1 2.933 2.232 4.688 2.768 1.286.317 2.748.572 4.034.889 2.807.743 5.666.51 8.526.276.583-.012.758-.073.762.5-.29.293-.524.184-.874.306-5.131 1.028-10.325 1.31-15.356-.188-2.398-.694-4.041-2.036-5.279-3.902-1.238-1.867-1.836-4.148-2.201-6.32-.301-1.428-.252-2.978.03-4.418.164-1.782.737-3.515 1.075-5.358.342-1.27.45-2.649.967-3.98.052-.976.168-1.207.342-1.269-.059-.17-.119-.341.056-.402.112-.806.283-1.44.395-2.246.527.39.646.732.182 1.086-.29.293-.346.696-.577 1.16.06.17-.115.232-.056.402zm-30.875 10.413s-.06-.17 0 0c-.06-.17-.06-.17 0 0 1.81.134 3.041.853 3.461 2.623.179.512-.052.976-.108 1.379.008 1.147-.569 2.306-.736 3.515-.42-1.77-1.424-3.526-1.844-5.296-.123-.915-.361-1.598-.773-2.22zm-56.53 43.145c.819.097.997.61 1.525 1 .528.39-.167 1.208.42 1.77-1.52-.427-1.64-.769-1.706-2.087-.294-.28-.179-.512-.238-.683-.64.415-.227 1.037-.398 1.672-.643-.158-1.056-.78-1.41-1.232-.352-.451-1.11-.378-1.29-.89-.59-1.135-1.59-2.318-1.892-3.746-.178-.512-.182-1.086-.126-1.489.164-1.781.212-3.331.61-5.003.458-1.502.856-3.174 1.079-4.785 1.23.72 1.703 1.513 1.186 2.843-.116.232-.171.635-.227 1.038-.171.634-.167 1.208-1.22 1-.234-.109-.409-.048-.35.123-.114.232.06.17.294.28.993.037.937.44.826 1.245-.116.232-.056.403.003.573.179.513-.111.806-.635.99-.35.121-.584.012-.815.476-.282 1.44-.39 2.819.61 4.002.294.28.353.451.643.159.64-.416.933-.135 1.112.377.06.171.353.452.412.622.413.623 1.29.89 1.588 1.745zm-4.12 12.938c.23-.464.636-.989.807-1.624.632-1.562 1.324-2.954 2.31-4.065.58-.586.866-1.452 1.212-2.148.115-.232.23-.464-.004-.574-.234-.11-.35.123-.524.184-1.454.891-2.38 2.173-3.306 3.455-1.565 1.697-2.662 3.614-4.228 5.311-.29.293-.23.464.238.683.878.268 1.64.768 2.633.804-.231.464-.346.696-.402 1.099-.115.232-.23.463-.465.354l-2.632-.804c.056-.403.405-.525.286-.867l-.524.183c-.171.635-.64.416-1.049.367-.937-.439-1.409-1.232-2.17-1.732-.235-.11.055-.403.23-.464.405-.525.87-.879 1.334-1.233.175-.061.116-.232.056-.403-.06-.171-.409-.048-.35.123-.464.354-1.044.94-1.509 1.294-.29.293-.465.354-.758.073-1.29-.89-2.175-2.305-3-3.549-.12-.342-.238-.684.52-.757-.06-.171-.004-.574-.468-.22-.35.123-.584.013-.703-.329-.476-1.366-.952-2.733-1.602-4.038-.179-.513-.004-.574.52-.757l1.573-.55c.175-.061.35-.123.23-.464-.059-.171-.234-.11-.408-.049-.525.184-1.283.257-1.748.611-.35.123-.35.123-.643-.158-1.12-1.525-1.19-3.416-2.193-5.173-.12-.342.055-.403.29-.293.933-.135 1.981-.502 2.915-.636.174-.062.409.048.464-.355-.119-.341-.234-.11-.468-.219-.524.183-1.108.196-1.632.38-1.633.378-1.633.378-1.759-1.11-.06-.171.056-.403-.004-.574-.063-.745.287-.867.87-.88 1.343-.085 2.51-.11 3.852-.196.175-.061.41.048.35-.123.115-.232-.119-.341-.294-.28-.174.061-.409-.049-.583.012-1.343.087-2.685.173-3.793.368-.175.061-.524.184-.468-.219-.004-.574-.242-1.257-.07-1.892.285-.866.397-1.672.45-2.648.055-.403.23-.464.639-.415.992.036 1.985.072 3.153.047 1.167-.025 2.394.12 3.621.267.234.11.703.329.818.097.056-.403-.528-.39-.762-.5-.234-.11-.41-.049-.643-.158-1.636-.195-3.213-.218-4.849-.413-.583.013-1.111-.378-1.75.038.166-1.209.16-2.356.327-3.564l.167-1.208c.056-.403.171-.635.64-.416.702.33 1.345.488 1.814.707.234.11.468.22.584-.012.115-.232-.12-.342-.354-.452-.643-.158-1.17-.548-1.989-.645-.409-.049-.702-.33-.412-.623.405-.525.401-1.098.223-1.61-.298-.855.342-1.27.513-1.905.346-.695 1.394-1.062 2.212-.965 2.045.243 3.57 1.243 5.21 2.011 1.405.658 3.16 1.195 4.334 2.317.882.841 1.878 1.451 2.759 2.293l.06.17c-.175.062-.175.062-.235-.11-.584.013-.937-.438-1.755-.535.238.683.94 1.012 1.525 1 .583-.013.702.329.647.731-.168 1.209-.168 1.209-1.454.892-.235-.11-.469-.22-.644-.158-1.286-.317-2.632-.804-4.149-.657-.175.061-.409-.049-.35.122-.115.232.294.28.47.22.408.048.992.036 1.226.145 1.23.72 2.807.743 3.919 1.121.643.158.528.39.531.964-.338 1.843-1.26 3.698-1.364 5.651-.056.403-.231.464-.406.525-.758.074-1.457.318-2.331.624-.175.06-.469-.22-.524.183.119.341.468.22.643.158.699-.244 1.457-.318 1.982-.501.699-.245.583-.013.762.5.063.744.186 1.66.424 2.343.178.512.472.793-.343 1.269.584-.013.818.097 1.172.549.531.963 1.238 1.866 2.06 2.537.587.561.356 1.025-.109 1.379-.115.232-.465.354-.64.415-.114.232-.464.354-.345.696.814-.476 1.454-.891 1.915-1.82.528.391.766 1.074 1.758 1.11.584-.012 1.112.378 1.755.537.644.158.763.5.591 1.134-.055.403-.345.696-.401 1.099-.461.927-1.097 1.916-1.499 3.015-.8 2.77-2.885 5.224-4.094 7.946-.23.464-.524.184-.933.135-.41-.048-.294-.28-.179-.512.461-.928.922-1.856 1.209-2.722.115-.232.23-.464-.004-.574-.238-.683-.353-.451-.528-.39 0 0 .06.171 0 0-.175.061 0 0 0 0zm3.556-19.064c-.119-.342-.297-.854-.241-1.257.338-1.843.033-3.844.372-5.687.167-1.209-.015-2.294-.257-3.551-.185-1.66.447-3.222 1.139-4.614.115-.232.29-.293.464-.354 1.395-1.063 3.023-2.015 4.418-3.078 1.859-1.416 4.13-2.21 6.343-3.176.524-.183 1.223-.428 1.807-.44 1.457-.318 2.513.462 3.86.95 1.404.658 2.695 1.548 3.58 2.964.353.45.007 1.147.475 1.366 1.171.549 1.528 1.574 2.175 2.306.881.841 1.238 1.866 1.246 3.013a3.909 3.909 0 00.951 2.733c1.06 1.355 1.246 3.014 1.78 4.552.949 2.16.789 4.514.803 6.809-.055.403.123.915-.167 1.208-1.1 1.343-2.26 2.515-3.42 3.687-.756.648-1.57 1.124-2.503 1.259-1.458.318-2.744.001-4.202.319-2.8.404-5.718.467-8.458 1.042-2.566.513-4.44-.364-5.912-2.34-2.06-2.538-3.011-5.271-4.253-7.711zm64.506-19.107c-.587-.561-.475-1.367-1.063-1.928-.766-1.073-1.416-2.379-2.007-3.513-.889-1.99-.26-4.125-.216-6.249-.003-.573.168-1.208.339-1.843 1.208-2.722 2.592-5.505 4.678-7.959.81-1.05 1.971-2.222 3.551-1.625l.174-.06c1.402.084 2.332-.624 3.496-1.223 1.338-.66 2.736-1.149 4.257-.722.409.048.643.158 1.111.378.878.268 1.822 1.854 1.476 2.55-.576 1.16-.743 2.367-.911 3.576-.446 3.222-.658 6.553.472 9.8.178.512.182 1.085.301 1.427.007 1.147-.22 2.184-.038 3.27.246 1.83-.268 3.735-.257 5.456-1.056-.78-2.059-2.538-2.301-3.795-.119-.341.112-.805-.472-.793-.584.013-.231.464-.286.867.301 1.428 1.011 2.904 1.546 4.441.714 2.05 2.766 3.44 2.606 5.796l.119.341c.535 1.538 1.48 3.124 1.491 4.845.063.744-.168 1.208-1.042 1.513-1.981.502-4.026.259-6.015-.387-3.57-1.243-5.689-3.951-7.458-6.782-.294-.28-.298-.854-.417-1.195-.186-1.66-.955-3.307-1.49-4.844-.77-1.648-1.015-3.478-.911-5.43.049-1.55-.253-2.978-.788-4.516-.059-.17-.119-.341-.353-.451-.175.061-.29.293-.29.293.297.854-.164 1.782.134 2.636.36 1.598.137 3.21.498 4.808.003.573.182 1.086.066 1.318zm-33.16-9.1c1.401.085 2.684-.172 4.145.084 1.696.365 2.755 1.719 4.045 2.61.822.67 1.294 1.463 1.476 2.55.182 1.085.48 1.94.837 2.964.472.793 1.119 1.525 1.241 2.44.42 1.77 1.305 3.185 1.9 4.893.238.683.126 1.489.539 2.111.531.964.654 1.88.252 2.978-.747 1.794-1.026 3.808-3.12 5.115-1.104.769-2.149 1.71-3.487 2.369-2.737 1.148-6.652.601-8.708-1.363-.528-.39-.94-1.012-.885-1.415.056-.403.112-.805-.122-.915-.766-1.073-1.182-2.27-1.948-3.343-1-1.183-1.361-2.782-1.428-4.1-.126-1.488-.777-2.794-.903-4.283-.123-.915-.305-2-.487-3.087-.238-.683.402-1.099.339-1.843.104-1.953 1.26-3.698 2.71-5.163.465-.355.99-.538 1.395-1.063.93-.708 1.569-1.123 2.209-1.539zM145 36.706c.822.67.885 1.415.599 2.282-1.09 3.063-1.536 6.285-2.217 9.398-.398 1.672-.736 3.515-.491 5.345.305 2.002 1.018 4.051 1.673 5.93.832 2.392 2.594 4.075 5.052 4.94 3.22 1.366 6.901 1.803 10.518 1.496 2.335-.05 4.726-.502 7.117-.955.699-.245.643.158.821.67.179.513-.23.464-.58.587-.524.183-1.282.257-1.866.27l-1.751.037c-2.506.684-5.016.795-7.466 1.077-1.867.27-3.793.368-5.432-.4-2.692-.975-5.094-2.243-6.51-4.622-.945-1.586-2.004-2.94-2.484-4.88-.36-1.599-.955-3.307-.732-4.918.104-1.952.209-3.905.662-5.98.398-1.672.153-3.502.96-5.126 1.041-1.514 1.38-3.357 2.127-5.151zm-1.472-1.976c.881.841 1.004 1.757.543 2.684-.116.232-.056.403-.231.464-.8 2.77-2.302 5.212-2.458 8.141-.212 3.332-1.008 6.676-.462 9.934.788 4.515 2.74 8.432 6.9 10.81.996.61 2.227 1.328 3.454 1.474 2.863.34 5.897.046 8.931-.248 1.692-.209 3.264-.758 5.016-.796.818.097 1.576.024 2.45-.282.699-.244.877.268.996.61.179.512-.405.525-.58.586l-.524.183c-1.692.209-3.443.246-4.956.967-.175.06-.525.183-.699.244-2.975.465-6.009.76-8.991.078-.877-.268-1.87-.304-2.688-.401-1.87-.305-3.104-1.598-4.744-2.366-1.231-.719-2.461-1.438-3.052-2.573-.532-.964-.889-1.989-1.595-2.892l-.119-.341c-.535-1.538-.662-3.026-.613-4.576-.063-.745.223-1.611-.015-2.295-.305-2 .034-3.844.138-5.796.279-2.014.499-4.199 1.012-6.103.625-2.71 1.543-5.138 2.287-7.506zM37.548 95.74c-.7.245-1.574.55-2.213.966-.64.415-1.339.66-1.863.843-2.216.392-4.194 1.466-6.291 2.2-2.157.562-4.016 1.979-6.347 2.602-2.621.917-5.187 1.431-7.749 2.518-1.048.367-2.156.563-3.205.929-.873.306-.762-.5-1.115-.951-.178-.512.405-.525.58-.586 1.632-.379 3.38-.99 4.953-1.54.35-.122.524-.184.405-.525-.119-.342-.468-.22-.643-.158-1.804 1.013-3.67 1.283-5.592 1.955-.179-.513.345-.696.695-.818.758-.074 1.632-.379 2.331-.624 2.562-1.087 5.128-1.601 7.69-2.688 2.561-1.088 5.242-1.834 7.863-2.75.175-.061.29-.293.584-.013-.35.123-.699.245-.58.586.06.171.294.281.584-.012 1.279-.83 2.796-.978 4.134-1.637 1.339-.66 2.503-1.259 3.9-1.748.175-.06.819.098.406-.525 0 0 1.339-.66 1.398-.488.234.11.186 1.66.011 1.72-.93.709.004.574.063.745zm127.461-34.222l-2.454-.291c-3.212-.218-6.309-.668-9.18-2.156a6.491 6.491 0 01-2.111-1.56c-1.532-2.148-2.889-4.356-3.082-7.163-.126-1.489-.662-3.026-.613-4.576.044-2.123-.494-4.234.484-6.492.527.39.765 1.073.829 1.817.189 2.234.438 4.638.278 6.993-.104 1.953.55 3.832 1.554 5.588 1.888 3.173 4.993 4.77 8.792 5.549 1.053.207 2.161.011 3.328-.014.409.049.759-.074.878.268.472.793.825 1.244 1.297 2.037zm-59.991 3.924c-.472-.793-.011-1.721.334-2.417.521-.757.982-1.685 1.737-2.332 1.104-.77 1.922-.672 2.339.524.238.683.535 1.537 1.063 1.928.647.731.416 1.195.07 1.891-.345.696-.517 1.33-.688 1.965.06.171-.055.403.119.342.235.11.35-.122.29-.293-.007-1.147.521-.757 1.224-.428.468.22.937.439 1.461.256.409.048.933-.135 1.283-.257.524-.184.818.097.821.67-.111.806-.048 1.55-.16 2.356-.223 1.61-.223 1.61-1.859 1.416-.234-.11-.699.245-.818-.097-.182-1.086-1.353-1.634-1.885-2.598-.591-1.135-1.528-1.574-2.87-1.488-.874.306-2.104-.413-2.461-1.438zm6.665 10.699c-.409-.049-.702-.33-.937-.439-.702-.33-1.115-.951-1.989-.646-1.048.367-2.331.624-3.26 1.332-.291.293-.409-.049-.469-.22-.881-.841-.948-2.159-1.48-3.123l-.059-.17c.171-.635 2.443-1.43 2.737-1.15.528.391.877.269 1.461.256.758-.073 1.632-.379 2.45-.281.409.048.877.267.933-.135.056-.403-.643-.159-.877-.268-.878-.268-1.807.44-2.625.343-.759.073-1.227-.146-1.231-.72-.182-1.086-.189-2.233-.137-3.21.115-.231.115-.231.29-.292.584-.013 1.402.084 1.985.072.759-.074 1.053.207 1.465.83.413.621.885 1.414 1.647 1.914.353.452.472.793.476 1.367-.227 1.037-.629 2.136-.387 3.393-.115.232.004.573.007 1.147zm9.135 4.279c-1.338.66-2.561 1.087-3.959 1.576-.35.122-.699.245-.644-.158.171-.635-.357-1.025.164-1.782.115-.232-.476-1.367-.885-1.415-.933.134-.937-.44-1.115-.952-.119-.341-.297-.854-.591-1.134-.294-.28-.119-.342-.004-.574.751-1.22 1.975-1.648 3.138-2.247.35-.122.874-.305 1.112.378.238.683 1.234 1.293 2.168 1.158.174-.061.409.049.643.159 1.755.535 2.231 1.902 2.881 3.208.119.341.004.573-.346.695-1.223.428-2.327 1.198-3.617.307l-.235-.11c-1.167.026-1.639-.767-2.111-1.56-.179-.513-1.056-.781-1.521-.427-.175.061-.35.122-.29.293.059.171.234.11.409.049.524-.183.993.036 1.171.548.532.964 1.297 2.038 2.814 1.89.35-.122.759-.073.818.098zm29.294-38.603c.588.56 1 1.183 1.588 1.744l.119.342c-.171.635-.108 1.379-.105 1.952.194 2.807.736 5.492 2.792 7.456.647.731 1.469 1.402 2.406 1.841 1.639.768 3.684 1.011 5.439 1.547.409.049 1.115.952 1.06 1.354-.116.232-.29.293-.35.123-3.387-.157-6.6-.376-9.243-2.9-1.822-1.854-3.353-4.002-3.487-6.637l-.211-5.675c-.06-.17-.004-.574-.008-1.147zm-47.964 13.13c.699-.244 2.573.634 2.751 1.146.06.171.06.171-.115.232-.521.757.301 1.428.535 1.538 1.112.378 1.119 1.525 1.882 2.025.234.11.119.341-.056.403-.989.537-1.566 1.697-2.202 2.685-.29.293-.464.355-.758.074-.468-.22-.996-.61-1.231-.72-1.052-.206-1.989-.645-1.937-1.621.052-.977-.416-1.196-1.234-1.294-.584.013-.818-.097-.472-.792.29-.293-.004-.574-.298-.855-.234-.11-.353-.451-.003-.573 1.104-.77 2.208-1.539 3.138-2.247zm59.616 1.191c-6.429-1.01-9.719-4.266-9.592-11.784.175-.061.234.11.294.28 1.293 1.465 2.587 2.928 3.706 4.453.706.903 1.298 2.038 2.119 2.708 1.759 1.11 2.878 2.635 3.473 4.343zm-2.428-5.283c1.458-.318 2.677-1.32 4.369-1.527 1.632-.38 3.324-.588 4.837-1.309.35-.122.933-.134.989-.537.171-.635.58-.586 1.164-.599.35-.122.584-.012.933-.135 1.629-.952 3.436-1.392 4.949-2.113 1.223-.428 2.447-.856 3.908-.6-1.982.501-3.551 1.625-5.417 1.894-.525.183-1.108.196-1.514.72-.174.062-.29.294-.23.465.059.17.234.11.349-.122a3.227 3.227 0 011.748-.611c1.807-.44 3.32-1.162 4.833-1.882.525-.184 1.049-.367 1.577.023-.93.709-1.744 1.185-2.852 1.38-.933.136-1.632.38-2.387 1.027-1.279.83-2.852 1.38-4.365 2.101-1.688.782-3.432 1.967-5.537 1.553-.409-.049-.758.074-1.108.196 1.748-.611 3.496-1.222 5.124-2.175.175-.061.584-.013.465-.354-.119-.342-.469-.22-.643-.158l-.35.122a38.741 38.741 0 01-6.116 2.138l-.699.245c-.171.634-.755.647-1.105.77l-1.048.366c-.64.415-1.223.428-1.521-.426.64-.416 1.398-.49 2.038-.905-.759.074-1.573.55-2.391.453zm-50.559 9.056c1.227.146 1.748-.61 2.034-1.477.056-.403.346-.696.636-.99.115-.231.23-.463.758-.073.588.561 1.171.549 1.751-.037.291-.293.755-.647 1.045-.94 1.105-.77 1.339-.66 1.406.658.063.744.186 1.66.598 2.282.353.451.707.902-.346.695-.234-.11-.349.123-.639.416-.58.586-1.335 1.233-1.681 1.929-.636.988-1.569 1.123-2.502 1.258-.993-.036-1.056-.78-1.409-1.232-.357-1.025-.539-2.11-1.651-2.489zm10.663 5.853c.06.17.178.512.004.573-.346.696-2.213.966-2.8.404a2.2 2.2 0 00-1.171-.548c-.818-.097-1.692.208-2.45.282-.934.135-1.696-.365-2.224-.756-.234-.11.521-.757.517-1.33.056-.403.171-.635.755-.647a3.585 3.585 0 003.023-2.015c.23-.464.87-.88 1.275-1.405.29-.293.699-.244 1.108-.195.409.048.179.512.238.683.182 1.086.305 2.001.662 3.026.119.342-.112.806.357 1.025.468.22.412.622.706.903zm-9.644-10.808c-1.219 1.001-2.681.746-3.963 1.003-.175.06-.35.122-.644-.159-.238-.683-.881-.841-1.524-1-.468-.219-1.112-.377-.591-1.134.29-.293.112-.806-.123-.915-.353-.452-.003-.574.287-.867 1.338-.66 3.324-.587 4.439.364.822.67 1.933 1.049 1.825 2.428 0 0 .235.11.294.28zm9.767 11.723c.238.683.591 1.135.769 1.647.179.513.242 1.257.42 1.77.238.683-.171.634-.58.585-.643-.158-.993-.036-1.398.49l-.346.695c-.23.464-.695.818-1.16 1.172-.524.184-.528-.39-.821-.67-.235-.11-.528-.39-.763-.5-.528-.39-.647-.732-.475-1.367.401-1.099.569-2.307.208-3.905 1.465.829 2.87 1.487 4.146.083zm-13.704-15.712c1.573-.55 3.205-.929 4.663-1.247.349-.122.583-.012.817.098.937.438 1.06 1.354 1.707 2.086.353.45.825 1.244-.164 1.781-.175.061-.23.464-.405.525-.405.525-.167 1.209-.573 1.733-.119-.341-.468-.219-.702-.329-.528-.39-1.406-.658-1.294-1.463-.123-.916-.301-1.428-1.354-1.635-.174.061-.234-.11-.293-.28-.647-.732-1.409-1.232-2.402-1.268zm9.055 28.26c-.524.183-.933.135-1.342.086-.993-.036-1.926.099-2.447.855-.635.99-.803 2.197-1.673 3.077 0 0-.115.231-.056.402.119.342.179.513-.346.696-.349.122-.643-.158-.702-.329-.353-.451-.532-.964-.945-1.586-.412-.622-.825-1.244.164-1.782.175-.061.29-.293.405-.525.581-.586.633-1.562 1.681-1.929.874-.305 1.629-.953 2.681-.746.234.11.349-.122.524-.183.406-.525.699-.244.818.097.238.683.476 1.367 1.238 1.867zm9.336-.774c-.063-.744-.766-1.073-.944-1.586-.357-1.025-2.056-1.964-3.283-2.11-.758.074-1.286-.316-1.524-1-.238-.683.104-1.952.684-2.538.29-.293 2.041-.33 2.335-.05.706.903 1.647 1.915 2.353 2.818 1.06 1.354 1.361 2.782.379 4.466zm-14.092 5.694c-.119-.341-.237-.683.112-.805.58-.586.866-1.453 1.153-2.32.171-.634.636-.988 1.335-1.233.873-.305 1.636.195 2.509-.11 0 0 .235.109.294.28-.056.403.238.683.357 1.025.297.854-.164 1.782-1.038 2.087-1.572.55-3.208.356-4.722 1.076zm-4.527-14.13c-.528-.39-.881-.841-1.35-1.06-.881-.842-1.706-2.086-3.457-2.049-.175.061-.409-.049-.818-.097 1.044-.94 1.855-1.99 2.666-3.04.29-.293.346-.696.814-.477.468.22 1.052.207.941 1.013-.112.805-.283 1.44.364 2.172.412.622 1.059 1.354.773 2.22.059.172.004.574.067 1.319zm6.29 6.807c-.699.245-1.338.66-2.037.904-.699.245-1.339.66-1.685 1.356a5.62 5.62 0 01-.926 1.282c-.115.231-.405.525-.639.415-.234-.11-.528-.39-.413-.622-.119-.342.346-.696-.472-.793-.584.012-.598-2.282.041-2.697.93-.709 2.097-.734 3.086-1.271.35-.122.469.22.878.268.762.5 1.175 1.122 2.167 1.158zm-2.296-21.233c.64-.416.818.097 1.286.316.937.44.997.61.302 1.428-.116.232-.29.293-.406.525-.461.928-.807 1.624-2.149 1.71-.758.073-1.227-.146-1.58-.598-.353-.45-.357-1.024-1-1.183-.469-.22-.703-.329-.472-.793-.004-.573.405-.525.814-.476 1.049-.367 2.275-.22 3.205-.93zm2.523 20.196c-.241-1.257-.483-2.514.093-3.674.116-.232.171-.634.58-.586 1.168-.025 2.276-.22 3.217.792.646.732.825 1.244.126 1.489-1.164.598-2.153 1.136-2.964 2.186-.29.293-.933.134-1.052-.207zM98.731 59.209c.468.219.877.268 1.346.487.234.11.643.158.587.561-.108 1.38.829 1.818 1.826 2.428.234.11.468.22.178.512-.636.989-1.446 2.039-2.376 2.747-.773-2.22-1.312-4.331-1.561-6.735zm1.977 7.931c.878.268 1.811.133 2.224.755.472.794 1.468 1.403 2.056 1.964.293.28.528.39.646.732.294.28.238.684-.345.696-.525.183-1.283.257-1.688.782-.406.525-.699.244-.818-.097l-.952-2.733c-.413-.623-1-1.184-1.123-2.099zm12.096-16.493c1.525 1 2.469 2.586 3.004 4.123.06.17.353.451-.171.635-.874.305-1.454.891-2.034 1.477-.29.293-.639.416-1.108.196-.468-.22-.587-.56-.357-1.025.116-.232.172-.634.287-.866.23-.464.167-1.209.866-1.453.64-.415.521-.757.342-1.27-.063-.744-.416-1.195-.829-1.817zm-11.489 1.91c.409.048.815-.477 1.108-.197.294.28.413.623.357 1.025-.056.403-.171.635-.461.928l-3.313 2.308c-.175.061-.29.293-.409-.048-.178-.513-.531-.964-.476-1.367-.003-.574.283-1.44 1.157-1.746.524-.183 1.223-.427 2.037-.904zm30.062-9.938c.227-1.037.453-2.074.097-3.1-.238-.683-.242-1.256-.48-1.94-.059-.17-.119-.341.056-.402.349-.123 1.112.377 1.405.658.532.964.19 2.233.197 3.38.179.513.067 1.318-1.275 1.404zM56.47 78.585c.643.158.877.268.996.61.305 2-.324 4.137-.368 6.26-.056.403-.465.355-.64.416-.35.122-.294-.28-.178-.513l.334-2.416c.108-1.38 1.15-2.893-.144-4.357zm3.895 15.692c-1.35-1.061-2.29-2.073-3.056-3.147-.06-.17-.587-.561-.063-.744.524-.184.93-.709 1.402.084.416 1.196 1.007 2.33 1.717 3.807zm-5.762-6.416l-.06-.171c.64-.415 1.573-.55 2.212-.965.175-.061.175-.061.235.11.178.512.416 1.195.36 1.598-.056.403-.699.244-1.048.367-.35.122-.7.244-1.283.257-.175.06-.64.415-.643-.159-.12-.341.23-.464.52-.757l1.573-.55a1.212 1.212 0 00-.992-.036c-.116.232-.465.354-.874.306zm110.689-36.79c-1.572.55-3.026 1.442-4.718 1.65 1.629-.952 3.261-1.331 4.718-1.65zM123.57 72.56c-1.996-1.793-2.468-2.586-2.42-4.136 1.175 1.123 1.42 2.953 2.42 4.136zM57.763 89.055c-.695.818-1.394 1.063-2.328 1.197-.174.061-.35.123-.409-.048-.119-.342.29-.293.465-.354.58-.587 1.339-.66 2.272-.795zm118.948-41.784c.929-.709 1.978-1.075 3.086-1.271-.87.88-2.097.733-3.086 1.27zm-78.34 10.34c.293.28.761.499.706.902 0 0-.116.232-.35.122-.468-.22-.238-.683-.357-1.025zm-44.803 50.923c.055-.402.23-.463.52-.756-.115.231.004.573-.52.756z"/><path d="M53.89 108.736c.587-.012.467-.356.523-.76-.175.061-.467.356-.523.76zm91.618-68.055c.116-.234.056-.406.172-.64l-.236-.111c.12.345.004.579.064.751z"/><path d="M145.793 39.807l-.116.234.236.11c-.236-.11-.06-.172-.12-.344zm-30.688 10.53l-.175.061s.059.172.175-.061c-.116.233.06.171 0 0zm-60.242 56.7s-.173.061 0 0c.059.17 0 0 0 0zm-.643-29.772s.06.172 0 0c.175-.06 0 0 0 0-.06-.171 0 0 0 0zm25.541-1.395c-.889-1.422-1.31-3.2-2.024-4.682-.239-.686-.945-1.017-1.475-1.409-1.83-1.862-4.12-2.216-6.808-.891-1.52.724-3.04 1.447-4.381 2.686-.583.589-.52 1.336-.926 1.864-.116.233.12.343.295.281.818-.478 1.755-.613 2.043-1.484.231-.466.582-.588.933-.711 1.46-.896 2.92-1.791 4.624-1.424 1.467.257 3.286.39 4.406 1.346 1.12.956 1.54 2.157 2.017 3.53.235.11.59.563 1.296.893zm-5.276 1.355c.543 1.556 1.263 3.05 1.983 4.544.72 1.495 1.733 2.692 3.217 3.532.772.506 1.133 1.543 1.258 2.47.241.69.66 1.32.133 2.086-.117.235.06.173.12.346.177-.062.354-.124.294-.296.23-1.05.459-2.1.274-3.199-.366-1.617-1.436-2.407-2.743-3.309-1.246-.728-1.552-2.173-2.328-3.26-.478-.802-.78-1.666-1.259-2.469-.06-.173-.358-.457-.949-.445zm.842 15.599c-.06-.171-.295-.281-.47-.22-1.053.368-1.933.099-2.93.063-1.232-.147-2.344.05-3.404-.734a1.436 1.436 0 00-.996-.036c-1.347.086-2.288-.354-3.463-.905-.705-.33-1.41-.66-1.94-1.052-.236-.11-.411-.05-.587.012-.115.233-.056.404.18.515 1.06.783 1.828 1.86 3.004 2.411.765.502 1.761.538 2.698.403 1.989-.503 4.101-.088 6.094-.015.41.049.996.036 1.407.085.35-.123.467-.355.407-.527zM69.563 85.3c-.004-.578-.417-.627-.889-.848-1.18-.553-1.833-1.291-2.017-2.386-.48-1.377-1.661-1.93-3.194-2.36-.236-.111-.649-.16-.825-.099-.825-.098-1.357-.491-1.773-1.118-.06-.172-.297-.283-.413-.05-.176.062-.116.234.12.345.833 1.254 1.897 2.041 3.255 2.533 1.357.491 1.953 1.635 2.841 2.484.945.442 1.481 1.414 2.895 1.5zm-7.299-14.712c-.467.356-1.226 1.006-1.633 1.534-1.046 1.521-1.681 3.091-2.257 4.833.06.171-.291.294-.056.404.235.11.351-.122.467-.355.934-.712 1.162-1.755 1.626-2.687.694-1.398 1.45-2.625 2.44-3.741.175-.062.115-.233.056-.405-.116.233-.352.123-.643.417zm9.044 10.813c-.06-.172-.12-.345-.417-.628-.95-1.023-1.608-2.341-2.206-3.487-.597-1.146-.834-1.257-2.13-.998-.177.062-.413-.05-.353.123l.12.345c1.597.604 2.078 1.984 2.912 3.24.417.63 1.011 1.196 1.665 1.935.06.173.237.111.237.111.233-.468.172-.64.172-.64zm12.476 5.009c.124.926.78 1.667.728 2.655-.057.408-.052.989-.523 1.347-.177.062-.294.296-.057.407.238.112.354-.123.354-.123.528-.766.7-1.408.399-2.273-.31-2.026-1.328-3.805-1.698-6.004-.06-.173.056-.408-.358-.457-.354.123-.233.47-.173.642.66 1.322.905 2.595 1.328 3.805zm-9.952 8.903c-.589-.563-1.054-.208-1.58-.024-2.744.576-5.433.748-8.014-.46-.056.403.178.513.413.623 1.877.879 4.157.658 6.26.498 1.11-.197 1.986-.503 2.92-.638zm3.876-6.21c-.835-1.258-1.494-2.577-2.859-3.65-.474-.222-.831-.678-1.188-1.135-.06-.172-.12-.345-.237-.11-.177.061-.117.234-.057.406l.892.851c1.305.9 2.14 2.158 2.975 3.416.12.345.24.69.124.925-.116.234-.293.296-.056.407.237.111.353-.123.47-.358.177-.061.056-.407-.064-.752z"/><path d="M68.946 72.534c-.175.062-.116.233-.116.233.06.172.06.172.236.11.175-.06.235.11.41.05 1.99-.504 3.58.672 5.167 1.271l.47.22c.236.11.296.282.587-.012.116-.233-.12-.343-.295-.282-1.176-.55-2.352-1.101-3.704-1.59-.821-.099-1.874.27-2.755 0zm-8.481 9.779c-.697 1.403-.337 2.437.965 3.335.83.677 2.127.997 3.073 1.44.236.11.412.049.352-.124.117-.233-.06-.172-.296-.283l-2.127-.996c-1.242-.726-2.131-1.575-1.846-3.027.176-.062-.06-.173-.12-.345zm21.673-1.186c-.184-1.097-1.19-1.712-1.844-2.451l-.89-.85c-.06-.173-.237-.111-.413-.05-.177.062-.117.235.06.173 1.243.727 2.017 1.81 2.79 2.894-.056.407.12.345.297.284zm-.458 13.216c-.06-.171-.06-.171-.235-.11-1.11.196-2.283-.353-3.334.014-.175.061-.41-.049-.35.122-.115.233.294.281.47.22 1.11-.196 2.164.011 3.158.047.175-.06.41.05.29-.293zm47.08-34.41c.353-.123.293-.295.233-.468.277-2.609.614-5.045 1.893-7.618.232-.467.228-1.046.225-1.624.056-.406-.301-.862.284-1.453.293-.295-.12-.344-.356-.455-.236-.11-.413-.049-.529.185-.172.64-.521 1.342-.633 2.154-.285 1.452-.923 3.027-.971 4.59.068 1.33-.454 2.671-.386 4 .06.172-.056.406.24.69zm5.705 16.151c-2.278-3.675-3.846-7.597-4.822-11.532-.878 1.473 2.919 10.64 4.822 11.531zm-10.513-14.415c.008 1.162.548 2.14.733 3.24.186 1.1.726 2.078.734 3.24l.181.52c.299.285.303.866.657.742.532-.185-.004-.581-.125-.927-.133-2.09-1.036-4.107-1.701-6.011.057-.409.113-.817-.479-.804zm11.33 15.129c-.233.47-.112.815.125.926.656.741 1.195 1.717 1.673 2.52.358.457.539.975.366 1.617-.116.235.121.346.298.284.177-.061.354-.123.471-.358l-.181-.518c-.483-1.384-1.082-2.532-2.213-3.496-.12-.345-.241-.691-.539-.975zM124.561 49.39c-.589.013-.822.48-1.054.948-.638 1.575-.51 3.077-.382 4.578.06.172.12.345.296.283.177-.062.293-.295.233-.468.056-.406-.004-.578-.124-.923.108-1.39.157-2.953 1.031-4.418zm5.377 28.865c-.012-1.743-.556-3.3-1.454-4.734-.06-.173-.298-.285-.592.012-.116.235.061.173.121.346.657.742 1.019 1.78 1.204 2.88.182.52.363 1.039.721 1.496zm-31.642 3.88c-.703.246-1.458 1.474-1.043 2.1.299.858 1.593 1.177 2.647.808.879-.307 1.111-.774.513-2.491-.3-.86-.887-.847-2.117-.417zM52.57 77.983s-.236-.11-.296-.282c-2.888-1.497-5.896-3.337-8.668-5.067-.707-.33-1.59-.6-2.18-1.165-.06-.172-.412-.049-.528.184-.348.7-.872 1.462-.748 2.382-.056.405.415.626.827.675 3.415 1.312 6.83 2.624 10.358 3.126.236.11.647.16.883.27.295.282.471.22.351-.123zm-3.639 12.041c-2.74.575-5.476 1.723-8.454 1.615-.41-.049-.525.183-.58.586.063.744.475 1.366.888 1.989.119.341.528.39.818.097 1.164-.599 2.387-1.027 3.376-1.564 1.688-.782 3.26-1.332 4.889-2.284.35-.122.814-.477 1.163-.599.175-.061.465-.354.406-.525-.06-.17-.234-.11-.584.013l-1.922.672zm-9.568-9.886c.179.514.53.392.94.44 1.995.073 4.049.317 6.043.39 1.233.147 2.52-.112 3.582.672.235.11.35-.122.466-.355.116-.233-.003-.576-.414-.625-1.292-.318-2.409-.698-3.641-.844-2.114-.416-4.228-.832-5.878-2.18-.295-.28-.706-.33-.762.075-.112.809-.224 1.618-.572 2.317.351-.123.411.048.236.11zm-.456 4.827c.12.342.239.684.589.562.41.049.645.159.995.036 2.981-.466 5.847-.7 8.948-.824l.526-.184c.35-.122.525-.183.58-.587-.118-.343-.469-.22-.644-.159-1.52.148-2.925.063-4.39-.193-1.465-.257-2.754-.574-4.219-.83-1.934-.476-2.109-.415-2.273 1.371.004.575-.112.808-.112.808zM54.18 96.598c-.642.416-1.458.894-2.039 1.481-1.863 1.42-3.96 2.729-6.118 3.868-.35.122-.876.306-.872.881.238.684.592 1.137 1.296 1.467.47.219.76-.074 1.051-.368.872-.881 1.86-1.994 2.732-2.875 1.278-1.407 2.675-2.472 4.188-3.77.115-.231.466-.354.346-.696-.294-.281-.41-.05-.585.012zm-4.597-1.913c-1.923.672-3.552 1.626-5.535 2.127-1.807.44-1.748.611-1.212 2.15.357 1.025.59 1.134 1.461.255 1.8-1.588 4.014-2.554 6.108-3.861.465-.354.99-.538 1.454-.892.175-.061.525-.183.23-.464-.118-.342-.468-.22-.642-.158-.466.354-1.165.599-1.864.843zm2.254-9.196c-.583.012-1.342.086-2.1.16-1.692.208-3.559.477-5.25.686-.175.06-.41-.049-.466.354.06.17.235.11.469.22 2.39-.453 4.841-.735 7.176-.785l.525-.184c.174-.06.464-.354.23-.463-.178-.513-.234-.11-.584.012zm-5.423 14.746c1.397-1.064 2.853-1.957 4.074-2.96.175-.061.29-.293.056-.403-.06-.171-.234-.11-.35.122-1.281.832-2.387 1.602-3.608 2.605-.116.233-.29.294-.172.636zM60.709 98c-.587.013-.643.418-.76.651-.519 1.338-1.158 2.332-1.738 3.498-.116.234-.291.295-.056.405.236.111.176-.061.352-.123a31.39 31.39 0 002.202-4.43zm-12.272-4.302c1.047-.366 2.153-.562 3.026-.867.174-.06.523-.183.404-.524-.059-.17-.408-.049-.582.013-1.047.366-2.154.561-2.908 1.207l.06.17zm5.68.561c-.99.538-1.92 1.247-2.852 1.957-.115.232-.465.354-.346.696.294.281.35-.122.465-.354.756-.648 1.922-1.248 2.678-1.896.175-.06.584-.012.465-.354.115-.233-.235-.11-.41-.049zm-8.94-21.019c1.534 1.006 3.299 1.545 4.712 2.207.236.11.236.11.412.05.116-.234-.12-.344-.296-.283-.942-.441-1.885-.883-2.767-1.153-.471-.22-1.118-.38-1.474-.833-.06-.172-.295-.283-.587.012zm-1.235 15.418c-.175.061-.35.122-.465.354l-.115.232c.06.171.234.11.234.11 1.049-.367 2.332-.623 3.5-.648.174-.062.349-.123.29-.294-.06-.17-.235-.11-.235-.11-1.167.026-2.1.16-3.209.356zm9.2 13.509c.814-1.055 1.628-2.109 2.618-3.225 0 0 .116-.233-.12-.343-.06-.172-.235-.11-.35.123-.815 1.054-1.864 1.998-2.443 3.163.236.11.295.282.295.282zm-.062-19.256c-1.174-.55-2.634-.23-3.804-.206 1.174.55 2.459.292 3.803.206zM42.9 76.755c-.057.405.354.454.354.454.881.27 1.703.367 2.584.636.236.11.411.049.351-.123.116-.233.056-.404-.179-.514-.997-.037-2.054-.245-3.11-.453zm8.689 24.231c-.698.821-1.691 1.361-2.154 2.292l.119.343s.235.11.175-.061c.699-.822 1.632-1.533 1.86-2.574zm4.241 5.505c.76-.651 1.047-1.522 1.57-2.282 0 0 .116-.234-.12-.344-.235-.11-.175.061-.35.123-.464.932-.812 1.632-1.1 2.503zm-6.698-.183c.295.282.47.22.586-.013.231-.465.522-.759.813-1.054.176-.061.116-.232.056-.404-.235-.11-.175.061-.35.123-.291.294-.523.76-.814 1.054-.175.061-.116.233-.291.294zm-5.942-4.155c.059.171.294.281.41.048.64-.416 1.105-.77 1.452-1.467-.641.416-1.282.832-1.863 1.419zm-15.893-3.016l3.832-1.34c1.16-.596 2.672-.743 3.833-1.34.174-.06.522-.182.463-.352-.06-.17-.408-.049-.582.012-2.498.682-4.878 1.705-7.49 2.619 0 0-.175.06-.056.401zm-2.973-.707c-1.395.488-3.078 1.268-4.647 1.817-.174.06-.523.182-.464.353.119.34.234.109.583-.013 2.032-.901 4.124-1.633 6.216-2.364l.522-.183c.175-.06.523-.183.464-.353-.119-.34-.408-.049-.642-.158-.638.414-1.16.597-2.032.902zm-1.14 1.761c-1.802.439-3.312 1.158-5.054 1.767-.174.061-.349.122-.115.231.06.171.233.11.408.049l3.66-1.28c.522-.182.87-.304 1.1-.767zM9.253 105.06c.816.097 1.687-.208 2.384-.452l3.66-1.279.523-.183c.174-.061.349-.122.29-.292-.06-.171-.234-.11-.409-.049-1.22.427-2.44.853-3.6 1.45-.523.183-1.22.427-1.802.439-.408-.048-.816-.097-1.046.366zm6.833-3.363c.643.158 1.282-.257 2.04-.33.175-.061.35-.122.29-.293-.06-.171-.234-.11-.294-.281-.758.074-1.397.489-2.036.904zm40.748-7.433c.176-.062.588-.013.468-.357-.18-.516.053-.984.049-1.562-.585.59-.701.824-.517 1.919zm-2.633-9.779c-.176.062-.116.234-.116.234.12.343.356.454.591.564.236.11.532.393.764-.074.116-.233-.296-.282-.532-.392-.236-.11-.471-.221-.531-.393.06.172 0 0-.176.061zm2.027 6.888c-.468.356-.64.995-.46 1.512.468-.357.464-.935.46-1.513z"/></g></svg>