<svg width="104" height="115" fill="none" xmlns="http://www.w3.org/2000/svg"><path opacity=".1" d="M14.644 103.574c-4.905-3.136-5.415-5.912-1.161-9.899 4.716-4.543 9.987-8.625 14.147-13.63 8.322-10.01 15.023-20.896 17.653-34.227 1.707-9.396 5.311-17.685 13.773-23.346 4.116-2.691 8.324-4.365 13.32-3.033.787.183 2.267-.467 3.238-1.07 4.578-3.248 9.387-6.774 15.632-5.814.833.692 1.434 1.662 2.499 2.077-.694.834-1.34 2.177-2.312 2.78-2.682 1.532-5.41 2.556-7.862 3.81-.74.325-1.571 2.455-1.016 2.916 3.01 4.853-.042 7.959-1.983 11.988-2.819 5.65-5.129 11.253-7.948 16.903-5.222 10.236-9.842 21.441-19.413 29.002-7.12 6.306-14.472 12.89-22.332 19.522-4.994 4.313-11.33 5.158-16.235 2.021zm55.238-77.745c-2.035.189-4.255 1.165-6.106.567-2.359-.55-3.33.053-4.763 1.212-6.751 4.733-8.367 12.324-10.029 19.406-3.784 17.543-13.028 31.488-25.79 43.45-2.635 2.04-4.993 4.312-7.628 6.353-1.387 1.669-1.525 2.964.834 3.515 2.36.551 5.505 1.285 7.771.818 2.498-.745 4.902-2.508 6.798-4.224 9.016-8.022 18.587-15.582 26.77-24.296 7.028-7.324 11.047-16.678 14.003-26.447 1.154-4.212 4.668-7.874 3.185-12.869-4.394-.361-5.227-1.054-5.045-7.485z" fill="#020202"/></svg>