<svg width="81" height="91" fill="none" xmlns="http://www.w3.org/2000/svg"><g opacity=".1"><path d="M27.761 90.358c-6.552.755-13.104-1.006-19.908-2.012-2.016-.252-3.528-2.013-5.292-3.27-3.276-2.516-3.276-3.02-.756-6.541 1.512-1.76 2.268-3.773 3.276-6.037.756-2.013 2.268-3.522 3.528-5.032 1.764-2.515 3.276-5.03 5.04-7.546 3.276-4.78 6.552-9.308 9.576-14.34 1.764-3.018 4.032-6.037 6.804-8.552.504-.503 1.008-1.258 1.26-1.761 1.008-1.761 2.268-3.522 3.78-4.78 1.764-1.509 2.52-3.773 3.78-5.534 3.277-4.276 4.537-9.56 7.309-14.087 1.008-1.51 1.764-3.019 2.772-4.78.756-1.51 1.512-2.767 1.26-4.528-.252-1.006 1.008-1.76 2.268-1.51 1.26.252 2.268 1.259 3.276 2.013 3.528 2.264 7.308 4.025 9.828 7.547l6.804 9.81c3.528 5.535 6.3 11.572 7.56 18.364 1.512 6.541 1.008 13.333-.504 19.622-.756 2.516-1.512 5.283-3.276 7.295-.252.755-.504 1.007-.504 1.51-3.276 7.043-8.568 12.326-14.868 16.854-6.048 4.528-12.852 6.289-20.16 7.044-4.285.251-8.317.503-12.853.251zM60.018 8.853c0 .252.252.755.504.503.504-.251 0-.503-.504-.503 0-.503-.252-.754-.504-.503l.504.503zM40.613 28.726c2.773-2.515 5.04-5.282 6.3-8.804.757-2.013 2.269-3.774 3.529-5.534.504-1.007 1.764-1.51 2.772-2.264.756-.504 1.26-.504 2.268 0 2.52 1.257 4.032 3.521 4.536 6.289.504 3.018 1.512 5.282 3.024 7.798 1.008 1.76.252 3.522-.756 5.283-1.008 1.257-2.268 1.257-3.528.754-3.024-1.006-6.3-.251-9.324.252-2.52.503-4.788 1.006-7.308.755-1.513-.252-2.52-.504-2.52-2.013-2.773 2.264-5.04 4.78-6.553 7.798 0 .252-.252.252-.504.503-2.772 2.264-4.788 5.032-6.3 8.05-3.024 5.283-6.552 9.811-9.828 14.842-1.26 1.761-2.016 3.774-3.528 5.534-3.024 3.774-5.544 7.547-7.308 11.824 6.048 2.264 12.096 2.012 18.396 2.264 3.024 0 6.3 0 9.324-.503 3.78-.504 7.308-1.258 10.584-2.767 5.04-2.013 9.325-4.78 13.357-8.553l1.26-1.258c2.52-2.767 4.032-6.29 6.3-9.056 2.268-2.767 3.024-6.29 4.032-9.56 1.008-3.773 0-7.798 0-11.823.252-3.27-.756-6.037-2.016-9.056-1.26-3.019-2.772-6.289-3.78-9.56-2.016-5.533-5.292-10.061-9.828-14.338-1.512 3.522-3.528 6.289-5.04 9.308-2.52 4.528-4.536 9.307-7.56 13.835 0-.251-.253 0 0 0 0 .252 0 0 0 0zM3.317 81.554c0 .754.756 1.006 1.008 1.257 2.016 2.013 4.536 2.768 7.56 3.02 4.284.502 8.316 1.257 12.6 1.257 6.552.252 13.356.252 19.909-1.006 5.04-1.006 10.08-2.516 14.364-5.786 3.024-2.264 5.544-4.78 8.064-7.295 3.78-3.774 5.796-8.302 8.316-12.83 1.764-3.018 1.764-6.792 2.52-10.062.504-2.264.756-4.78.252-7.044-.252-1.258-.504-2.767-.756-4.276-.252-3.019-1.26-5.786-2.268-8.553-1.764-4.025-4.032-8.05-6.552-11.823-1.764-2.265-3.276-4.78-4.788-7.044-.756-1.006-1.512-2.013-2.772-2.516 0 .755.252 1.007.504 1.258 2.016 3.27 4.032 6.54 5.04 10.314.504 1.76 1.512 3.522 2.268 5.283 1.512 3.522 3.276 7.043 3.024 10.817 0 1.51-.252 3.018 0 4.528 1.008 5.03-.252 9.81-2.016 14.59-1.008 3.019-3.528 5.031-4.788 7.798-2.268 4.528-5.796 8.05-9.576 11.069-3.528 2.767-8.064 5.031-12.348 6.54-8.317 2.768-16.885 3.27-25.705 2.516-4.788.503-9.324 0-13.86-2.012zm40.825-51.57c1.764 0 3.527-.755 5.04-1.006 3.024-.503 5.796-.755 8.82 0 .504.252 1.512.755 2.016-.252.756-1.006.252-1.509-.252-2.264-1.26-2.012-2.52-4.276-2.772-6.792 0-1.509-.756-2.767-1.512-4.025-.504-.754-1.26-1.257-2.016-.251-1.512 1.51-2.52 3.27-3.528 5.283-1.513 3.018-2.773 6.037-5.293 8.301-.504.252-.756.503-.504 1.006z" fill="#070707"/><path d="M60.018 8.853l-.504-.503c.504-.251.756 0 .504.503.252 0 .252 0 0 0zm.252-.251c.252.251.756.251.252.754 0 .252-.252-.251-.252-.754 0 .251 0 .251 0 0zM40.614 28.726s0 .252 0 0c-.252 0 0-.251 0 0 0-.251 0-.251 0 0z" fill="#FCFCFC"/><path d="M50.19 35.015c2.016-.251 4.284.252 6.552-.754.252-.252.756-.252 1.008 0 2.268 1.76 5.292 2.012 6.552 5.03 1.26 2.516 1.764 5.032 1.008 8.05-.504 2.516-1.26 4.78-3.276 6.541-3.528 3.019-5.796 6.792-7.812 10.817-1.008 2.013-3.528 2.516-5.544 2.767-3.024.252-5.292-1.006-6.804-3.773-1.009-2.012-3.025-3.27-5.04-4.025-2.773-1.258-5.04-3.019-6.805-5.534-.504-.755-1.008-1.51-2.268-1.51-1.26 0-1.512-1.509-.756-2.264 1.008-1.006 1.512-2.264 2.772-2.767.504-.251.756-.754.756-1.258.504-2.012 2.016-3.521 2.52-5.534.252-.503.504-1.006 1.008-1.258 1.764-.754 3.276-2.264 5.292-2.264 2.268 0 4.032-1.509 6.3-1.76 1.513-.252 2.773-.504 4.537-.504zm12.852 9.56c-.252-2.264-1.008-4.529-3.528-6.038-1.512-.755-3.024-1.258-4.536-.755-1.008.252-2.016 0-3.024 0-1.764 0-3.276 0-5.04.252-2.268.252-4.032 1.761-6.3 1.761-2.772 0-4.789 1.51-5.797 4.276-.504 1.51-1.26 3.27-2.016 4.78-1.26 2.264-1.26 2.264 0 4.277 1.008 1.509 2.268 2.767 4.032 3.521 3.276 1.51 6.3 3.27 8.065 6.792.756 1.258 2.268 1.51 3.528 1.258 1.512-.251 3.024-.503 3.78-2.012 1.512-3.522 3.528-7.044 6.552-9.308 2.772-2.515 3.528-5.534 4.284-8.804z" fill="#070707"/><path d="M27.51 77.529h-1.26c-2.017-.252-4.033-.504-5.797 1.006-.756.755-2.016.503-3.024 0-1.512-.755-3.024-.755-4.284-2.013-.504-.503-1.008-1.006-1.008-1.509-.252-3.27-.504-6.54 2.268-9.056 3.024-2.516 5.04-5.786 6.804-9.308 1.764-3.018 4.032-2.515 6.3-1.006 2.772 2.013 5.796 3.773 9.072 5.283 3.276 1.76 5.292 6.037 4.284 9.559-.504 1.76-2.52 3.27-4.284 3.27-1.512 0-3.024 0-3.78 1.761-.504.755-1.26 1.258-2.268 1.258-.756.755-2.016.755-3.024.755zm.251-2.767c.756-.252 2.268.754 3.024-.504 1.26-2.264 3.276-2.515 5.544-2.515 1.26 0 1.764-.755 2.016-1.761.504-2.767-1.008-5.283-3.78-6.54a23.063 23.063 0 01-3.528-1.761c-1.764-1.258-3.528-2.013-5.292-3.27-.756-.504-1.26-.504-2.016.25-.756 1.007-1.008 2.265-1.764 3.271-1.512 2.767-4.032 4.528-5.796 7.044-.756 1.006-1.512 2.264-2.016 3.522-.252 1.006-.252 2.263 1.008 2.515 1.764.503 3.276 2.264 5.04.503 1.008-1.006 2.016-1.51 3.276-1.006 1.512.251 2.772.251 4.284.251z" fill="#070707"/></g></svg>